<?xml version="1.0" encoding="UTF-8" standalone="no"?><!-- Generator: Gravit.io --><svg xmlns="http://www.w3.org/2000/svg" xmlns:xlink="http://www.w3.org/1999/xlink" style="isolation:isolate" viewBox="175.021 2209.145 780 433" width="780pt" height="433pt"><defs><clipPath id="_clipPath_fZkMe4ggr09cOf2amkrBedvAyMdeTJsn"><rect width="1440" height="3072"/></clipPath></defs><g clip-path="url(#_clipPath_fZkMe4ggr09cOf2amkrBedvAyMdeTJsn)"><defs><mask id="_mask_XMWNWLmnMGbUJGa6xVmAaZf6tQeznqD7"><path d="M 707 26 L 1007 26 L 1007 482 L 707 482 L 707 26 Z" style="stroke:black;fill:white;stroke-miterlimit:10;"/></mask><mask id="_mask_z1FB9nrucaz4ZLxXGThdY5XcTkBE9Pkp"><path d="M 707 26 L 1007 26 L 1007 482 L 707 482 L 707 26 Z" style="stroke:black;fill:white;stroke-miterlimit:10;"/></mask></defs><g mask="url(#_mask_z1FB9nrucaz4ZLxXGThdY5XcTkBE9Pkp)"><g mask="url(#_mask_XMWNWLmnMGbUJGa6xVmAaZf6tQeznqD7)"/></g><g mask="url(#_mask_XMWNWLmnMGbUJGa6xVmAaZf6tQeznqD7)"><use xlink:href="#img_9WwLnrbhnltZiYcPn4W6GocktPeP57M2" transform="matrix(1,0,0,1,707,26)" preserveAspectRatio="none" style=""/></g><defs><mask id="_mask_G1UK6zixAqDLRq7WN0xs1aWe8lK7Rqmw"><path d="M 1010 46 L 1410 46 L 1410 442 L 1010 442 L 1010 46 Z" style="stroke:black;fill:white;stroke-miterlimit:10;"/></mask><mask id="_mask_w09bURY3sbIjrXgGSiAuIvphDZLi4zoM"><path d="M 1010 46 L 1410 46 L 1410 442 L 1010 442 L 1010 46 Z" style="stroke:black;fill:white;stroke-miterlimit:10;"/></mask></defs><g mask="url(#_mask_w09bURY3sbIjrXgGSiAuIvphDZLi4zoM)"><g mask="url(#_mask_G1UK6zixAqDLRq7WN0xs1aWe8lK7Rqmw)"/></g><g mask="url(#_mask_G1UK6zixAqDLRq7WN0xs1aWe8lK7Rqmw)"><use xlink:href="#img_gustNhMm9yf3khyxvuBUky4B3QXydBmm" transform="matrix(1,0,0,1,1010,46)" preserveAspectRatio="none" style=""/></g><defs><mask id="_mask_XpPbEAid0dhayKBXg5vNEKCvEQpw9gx3"><path d="M 634.363 639.615 L 879.46 466.62 L 993.637 628.385 L 748.54 801.38 L 634.363 639.615 Z" style="stroke:black;fill:white;stroke-miterlimit:10;"/></mask><mask id="_mask_kMb7eZ7aYrX6I17hJHSziAhPD2BkSA0d"><path d="M 634.363 639.615 L 879.46 466.62 L 993.637 628.385 L 748.54 801.38 L 634.363 639.615 Z" style="stroke:black;fill:white;stroke-miterlimit:10;"/></mask></defs><g mask="url(#_mask_kMb7eZ7aYrX6I17hJHSziAhPD2BkSA0d)"><g mask="url(#_mask_XpPbEAid0dhayKBXg5vNEKCvEQpw9gx3)"/></g><g mask="url(#_mask_XpPbEAid0dhayKBXg5vNEKCvEQpw9gx3)"><use xlink:href="#img_mYtlHbfBh46MLAtcJJb0UYcE1KYioh4Z" transform="matrix(0.817,-0.577,0.577,0.817,634.363,639.615)" preserveAspectRatio="none" style=""/></g><defs><mask id="_mask_Wc1waCmy3JPrVsC3YJ9SzOqS0pzkDg7r"><path d="M 31 32 L 481 32 L 481 259 L 31 259 L 31 32 Z" style="stroke:black;fill:white;stroke-miterlimit:10;"/></mask><mask id="_mask_svZdpIB4POLU3kwUNMDnWhMFfKxLLg5h"><path d="M 31 32 L 481 32 L 481 259 L 31 259 L 31 32 Z" style="stroke:black;fill:white;stroke-miterlimit:10;"/></mask></defs><g mask="url(#_mask_svZdpIB4POLU3kwUNMDnWhMFfKxLLg5h)"><g mask="url(#_mask_Wc1waCmy3JPrVsC3YJ9SzOqS0pzkDg7r)"/></g><g mask="url(#_mask_Wc1waCmy3JPrVsC3YJ9SzOqS0pzkDg7r)"><use xlink:href="#img_PF2NZztFrhPyq6h8XwAul5mhW2PdhAN4" transform="matrix(1,0,0,1,31,32)" preserveAspectRatio="none" style=""/></g><path d=" M 83 698.687 L 84 706.687 Q 115 710.687 143 695.687 Q 219.5 794.187 324 748.687 Q 428.5 703.187 532 584.687 Q 203 459.687 143 676.687 Q 138 699.687 83 698.687 Z " fill="rgb(0,255,0)"/><rect x="654.5" y="860" width="1" height="1" transform="matrix(1,0,0,1,0,0)" fill="rgb(0,255,0)"/><path d=" M 171 676 Q 285.636 586.424 436 597 Q 282.909 606.545 171 676 Z " fill="rgb(1,164,1)"/><path d=" M 33.182 1187.682 C 43.475 1188.349 56.78 1185.675 63.864 1178.591 C 67.142 1178.591 80.835 1167.907 82.045 1166.091 C 84.304 1162.704 89.278 1164.54 91.136 1162.682 C 99.444 1154.374 99.091 1150.125 99.091 1137.682 C 99.091 1126.82 107.253 1112.198 110.455 1104.727 C 111.122 1103.17 111.97 1101.697 112.727 1100.182 C 113.419 1098.798 117.273 1093.178 117.273 1092.227 C 117.273 1087.055 122.002 1082.292 122.955 1080.864 C 127.681 1073.775 125 1059.5 129.773 1054.727 C 137.274 1047.226 134.318 1026.35 134.318 1017.227 C 134.318 1011.503 138.587 1009.827 140 1007 C 143.429 1000.142 148.881 985.928 154.773 982 C 167.64 973.422 177.434 981.967 186.591 986.545 C 197.218 991.859 204.609 1005.7 211.591 1012.682 C 213.864 1014.955 216.136 1017.227 218.409 1019.5 C 230.415 1031.506 234.318 1012.548 234.318 1002.455 C 234.318 985.732 251.364 972.326 251.364 957 C 251.364 945.334 252.5 934.86 252.5 924.045 C 252.5 911.178 252.043 896.093 260.455 887.682 C 274.836 873.301 275.452 866.091 295.682 866.091 C 297.955 866.091 300.227 866.091 302.5 866.091 C 320.903 866.091 326.48 886.779 330.909 895.636 C 335.608 905.035 334.246 914.81 337.727 921.773 C 338.307 922.931 341.136 929.578 341.136 930.864 C 341.136 937.675 346.029 959.62 349.091 962.682 C 352.645 966.236 351.931 970.351 353.636 972.909 C 354.703 974.509 356.554 980.033 357.045 982 C 357.556 984.042 358.189 995.644 359.318 996.773 C 364.35 1001.805 363.19 1003.591 371.818 1003.591 C 374.434 1003.591 380.313 1003.105 380.909 1001.318 C 382.821 995.584 385.075 992.228 386.591 989.955 C 388.4 987.24 390.796 984.954 392.273 982 C 394.834 976.877 396.86 968.869 400.227 963.818 C 409.336 950.155 408.182 936.181 408.182 924.045 C 408.182 911.886 413.795 904.865 418.409 895.636 C 419.888 892.678 425.227 885.489 425.227 882 C 425.227 871.822 424.196 844.395 430.909 837.682 C 440.191 828.4 452.243 814.698 463.864 826.318 C 472.797 835.252 480.305 841.091 492.273 841.091 C 505.55 841.091 514.36 825.253 525.227 824.045 C 528.795 823.649 530.961 822.909 534.318 822.909 C 543.548 822.909 535.47 822.785 546.818 824.045 C 550.387 824.442 552.818 821.272 554.773 825.182 C 558.159 831.954 559.419 839.021 562.727 845.636 C 568.963 858.108 575.227 866.77 575.227 879.727 C 575.227 883.894 575.227 886.924 575.227 889.955 C 575.227 897.899 570.682 905.116 570.682 911.545 C 570.682 922.563 554.843 937.541 550.227 946.773 C 543.241 960.746 542.273 967.281 542.273 980.864 C 542.273 995.632 559.147 990.608 565 987.682 C 578.059 981.152 575.441 967.914 587.727 963.818 C 607.096 957.362 622.528 949.259 636.591 942.227 C 650.516 935.265 665.339 936.791 677.5 938.818 C 711.553 944.494 715 953.241 715 971.773 C 715 985.386 711.591 997.472 711.591 1008.136 C 711.591 1017.534 723.359 1017.632 728.636 1022.909 C 734.183 1028.456 740.427 1032.427 745.682 1037.682 C 756.794 1048.794 752.5 1061.353 752.5 1071.773 C 752.5 1075.958 750.38 1080.711 749.091 1082 C 749.091 1082 735.455 1100.182 735.455 1100.182 C 728.558 1100.182 732.907 1117.344 734.318 1120.636 C 737.278 1127.543 744.545 1128.026 744.545 1137.682 C 744.545 1158.828 753.047 1173.204 737.727 1180.864 C 724.931 1187.262 712.439 1199.045 699.091 1199.045 C 685.219 1199.045 671.895 1201.318 659.318 1201.318 C 643.149 1201.318 624.091 1195.648 624.091 1213.818 C 624.091 1224.84 629.62 1234.12 637.727 1242.227 C 645.166 1249.666 655.465 1264.707 651.364 1272.909 C 647.752 1280.132 638.749 1297.909 632.045 1297.909 C 628.268 1297.909 625.208 1302.464 622.955 1303.591 C 615.647 1307.244 606.355 1305.864 597.955 1305.864 C 588.673 1305.864 574.091 1318.854 574.091 1327.455 C 574.091 1344.866 558.586 1344.5 546.818 1344.5 C 542.645 1344.5 539.031 1340.122 537.727 1338.818 C 529.153 1330.244 520.46 1319.352 510.455 1312.682 C 495.166 1302.49 488.523 1288.478 478.636 1278.591 C 469.873 1269.827 464.665 1255.128 454.773 1250.182 C 443.494 1244.542 442.963 1223.599 436.591 1217.227 C 433.567 1214.204 432.764 1207.718 430.909 1205.864 C 428.738 1203.692 425.077 1202.004 424.091 1199.045 C 423.601 1197.577 421.301 1189.955 420.682 1189.955 C 416.837 1189.955 414.263 1177.455 412.727 1177.455 C 410.081 1177.455 403.636 1183.331 403.636 1185.409 C 403.636 1195.068 404.457 1208.957 409.318 1213.818 C 416.868 1221.368 416.375 1235.647 421.818 1241.091 C 428.795 1248.068 427.5 1264.488 427.5 1272.909 C 427.5 1286.893 427.375 1294.625 419.545 1302.455 C 412.218 1309.782 399.867 1312.682 391.136 1312.682 C 388.041 1312.682 376.995 1314.45 375.227 1312.682 C 373.166 1310.621 367.84 1310.124 366.136 1309.273 C 359.17 1305.79 353.668 1297.941 349.091 1293.364 C 347.7 1291.973 344.837 1286.123 343.409 1285.409 C 332.656 1280.033 321.591 1259.954 317.273 1251.318 C 312.391 1241.554 304.245 1229.199 299.091 1224.045 C 295.491 1220.446 293.748 1218.703 291.136 1216.091 C 288.604 1213.558 285.85 1210.805 283.182 1208.136 C 278.323 1203.277 262.727 1208.608 262.727 1216.091 C 262.727 1231.019 268.21 1238.08 262.727 1249.045 C 255.307 1263.886 226.853 1253.917 219.545 1249.045 C 218.409 1248.288 217.273 1247.53 216.136 1246.773 C 214.621 1246.394 212.93 1246.44 211.591 1245.636 C 209.068 1244.123 206.614 1240.66 204.773 1238.818 C 201.285 1235.331 199.433 1233.961 196.818 1232 C 188.72 1225.926 177.348 1227.302 170.682 1220.636 C 166.786 1216.74 162.127 1212.082 158.182 1208.136 C 145.157 1195.112 127.369 1189.824 116.136 1178.591 C 115 1177.455 100.227 1177.455 100.227 1177.455 C 83.617 1178.641 71.703 1189.955 55.909 1189.955 C 44.211 1189.955 22.628 1212.355 9.318 1199.045 C -0.545 1189.182 14.24 1186.64 33.182 1187.682 Z " fill="rgb(0,255,42)"/><path d=" M 136 1140 Q 355.869 1054 666 1060 Q 309.002 1046.5 136 1140 Z " fill="rgb(0,205,74)"/><g><g><path d=" M 798.847 2405.341 Q 801.525 2407.044 804.183 2408.621 C 812.959 2413.828 821.566 2418.014 830.004 2421.178 C 831.766 2421.839 833.521 2422.455 835.268 2423.026 C 874.79 2435.955 910.547 2426.095 942.54 2393.445 Q 946.759 2389.14 955.001 2379.339 Q 865.07 2317.015 798.847 2405.341 Z " fill="rgb(0,255,42)"/><path d=" M 764.95 2406.634 Q 767.771 2405.52 770.502 2404.359 C 779.521 2400.523 787.814 2396.292 795.382 2391.666 C 796.962 2390.7 798.511 2389.717 800.027 2388.716 C 834.338 2366.085 852.46 2334.629 854.395 2294.349 Q 854.65 2289.036 854.316 2277.951 Q 756.523 2312.69 764.95 2406.634 Z " fill="rgb(0,255,42)"/><path d=" M 467.836 2428.254 Q 470.677 2425.668 473.384 2423.065 C 482.323 2414.471 490.171 2405.734 496.929 2396.854 C 498.34 2395 499.704 2393.14 501.02 2391.273 C 530.787 2349.052 536.232 2303.646 517.354 2255.057 Q 514.865 2248.649 508.616 2235.666 Q 408.084 2320.744 467.836 2428.254 Z " fill="rgb(0,255,42)"/><path d=" M 395.348 2423.438 Q 397.526 2421.59 399.606 2419.727 C 406.471 2413.573 412.53 2407.285 417.782 2400.863 C 418.879 2399.522 419.94 2398.175 420.967 2396.822 C 444.184 2366.224 449.41 2332.628 436.647 2296.033 Q 434.964 2291.207 430.659 2281.398 Q 353.747 2341.999 395.348 2423.438 Z " fill="rgb(0,255,42)"/><path d=" M 394.723 2430.058 Q 396.541 2432.261 398.259 2434.462 C 403.93 2441.731 408.783 2448.99 412.819 2456.239 C 413.662 2457.752 414.469 2459.265 415.241 2460.778 C 432.691 2494.994 431.904 2528.986 412.881 2562.753 Q 410.372 2567.206 404.403 2576.101 Q 339.397 2502.873 394.723 2430.058 Z " fill="rgb(0,255,42)"/><path d=" M 467.311 2435.008 Q 470.287 2437.437 473.131 2439.89 C 482.519 2447.99 490.827 2456.291 498.054 2464.794 C 499.563 2466.569 501.025 2468.354 502.44 2470.147 C 534.441 2510.701 542.326 2555.747 526.096 2605.284 Q 523.955 2611.817 518.416 2625.117 Q 413.443 2545.584 467.311 2435.008 Z " fill="rgb(0,255,42)"/><path d=" M 766.216 2411.352 Q 769.188 2411.952 772.081 2412.617 C 781.633 2414.809 790.54 2417.518 798.802 2420.744 C 800.528 2421.418 802.225 2422.114 803.894 2422.833 C 841.644 2439.089 865.008 2466.875 873.984 2506.19 Q 875.167 2511.375 876.784 2522.347 Q 774.412 2505.315 766.216 2411.352 Z " fill="rgb(0,255,42)"/><path d=" M 697.838 2420.095 Q 701.926 2421.479 705.893 2422.936 C 718.993 2427.748 731.112 2433.163 742.251 2439.179 C 744.577 2440.435 746.86 2441.718 749.101 2443.027 C 799.776 2472.631 828.583 2515.67 835.52 2572.141 Q 836.435 2579.589 837.123 2595.185 Q 695.798 2552.626 697.838 2420.095 Z " fill="rgb(0,255,42)"/><path d=" M 697.708 2417.793 Q 701.308 2415.412 704.772 2412.99 C 716.21 2404.996 726.547 2396.668 735.783 2388.009 C 737.711 2386.201 739.592 2384.378 741.424 2382.541 C 782.87 2340.988 799.743 2292.025 792.044 2235.653 Q 791.028 2228.218 787.715 2212.962 Q 661.924 2290.167 697.708 2417.793 Z " fill="rgb(0,255,42)"/><path d=" M 624.967 2422.874 Q 628.441 2420.315 631.779 2417.722 C 642.8 2409.16 652.704 2400.322 661.491 2391.209 C 663.325 2389.306 665.112 2387.39 666.849 2385.463 C 706.147 2341.873 720.53 2292.121 709.998 2236.209 Q 708.609 2228.835 704.531 2213.765 Q 582.793 2297.215 624.967 2422.874 Z " fill="rgb(0,255,42)"/><path d=" M 545.928 2428.272 Q 548.95 2425.191 551.831 2422.098 C 561.344 2411.888 569.71 2401.582 576.93 2391.183 C 578.437 2389.011 579.895 2386.836 581.303 2384.656 C 613.14 2335.352 619.398 2283.943 600.076 2230.428 Q 597.528 2223.37 591.097 2209.145 Q 484.239 2310.955 545.928 2428.272 Z " fill="rgb(0,255,42)"/><path d=" M 546.211 2433.335 Q 549.694 2435.883 553.04 2438.465 C 564.088 2446.991 574.02 2455.797 582.837 2464.882 C 584.678 2466.779 586.47 2468.689 588.214 2470.61 C 627.652 2514.074 642.195 2563.778 631.844 2619.725 Q 630.478 2627.103 626.449 2642.186 Q 504.442 2559.129 546.211 2433.335 Z " fill="rgb(0,255,42)"/><path d=" M 624.428 2427.057 Q 628.426 2428.679 632.301 2430.368 C 645.094 2435.944 656.873 2442.063 667.638 2448.726 C 669.886 2450.117 672.09 2451.532 674.249 2452.971 C 723.092 2485.51 749.312 2530.171 752.909 2586.953 Q 753.383 2594.442 753.151 2610.052 Q 614.58 2559.238 624.428 2427.057 Z " fill="rgb(0,255,42)"/><path d=" M 197.676 2392.676 C 192.343 2391.676 181.343 2394.01 177.676 2380.676 C 172.896 2363.294 171.676 2372.676 199.676 2377.676 C 227.676 2382.676 319.343 2425.676 479.676 2428.676 C 553.123 2430.051 623.825 2424.228 686.676 2417.343 C 763.296 2408.95 827.635 2398.485 863.343 2391.343 L 819.01 2401.01 Q 746.557 2415.013 686.676 2421.343 C 577.411 2432.894 503.935 2436.6 467.676 2435.343 C 376.737 2432.191 332.702 2417.994 197.676 2392.676 Z " fill="rgb(0,255,42)"/></g></g></g><defs><image width="300" height="456" xlink:href="cloud://id=GQANzUgDH" id="img_9WwLnrbhnltZiYcPn4W6GocktPeP57M2"/><image width="400" height="396" xlink:href="cloud://id=dB170eL9R" id="img_gustNhMm9yf3khyxvuBUky4B3QXydBmm"/><image width="300" height="198" xlink:href="cloud://id=BCr5olBMO" id="img_mYtlHbfBh46MLAtcJJb0UYcE1KYioh4Z"/><image width="450" height="227" xlink:href="cloud://id=NLLCnxlQ2" id="img_PF2NZztFrhPyq6h8XwAul5mhW2PdhAN4"/></defs></svg>