<?xml version="1.0" encoding="UTF-8" standalone="no"?><!-- Generator: Gravit.io --><svg xmlns="http://www.w3.org/2000/svg" xmlns:xlink="http://www.w3.org/1999/xlink" style="isolation:isolate" viewBox="77.895 1346.701 333 185" width="333pt" height="185pt"><defs><clipPath id="_clipPath_zkQZLCgazoes11UIFd1cxvOOQni6P2iI"><rect width="1440" height="3072"/></clipPath></defs><g clip-path="url(#_clipPath_zkQZLCgazoes11UIFd1cxvOOQni6P2iI)"><defs><mask id="_mask_bKPs8tNdYK2o913pJ5fFhME2cy9z8ttA"><path d="M 707 26 L 1007 26 L 1007 482 L 707 482 L 707 26 Z" style="stroke:black;fill:white;stroke-miterlimit:10;"/></mask><mask id="_mask_d0DAHnsJ7PwYMrdpBbepwND4Hrj17eVB"><path d="M 707 26 L 1007 26 L 1007 482 L 707 482 L 707 26 Z" style="stroke:black;fill:white;stroke-miterlimit:10;"/></mask></defs><g mask="url(#_mask_d0DAHnsJ7PwYMrdpBbepwND4Hrj17eVB)"><g mask="url(#_mask_bKPs8tNdYK2o913pJ5fFhME2cy9z8ttA)"/></g><g mask="url(#_mask_bKPs8tNdYK2o913pJ5fFhME2cy9z8ttA)"><use xlink:href="#img_9WwLnrbhnltZiYcPn4W6GocktPeP57M2" transform="matrix(1,0,0,1,707,26)" preserveAspectRatio="none" style=""/></g><defs><mask id="_mask_RUpcYlect9ASrZfRZmc1MTDXpcPNc2eY"><path d="M 1010 46 L 1410 46 L 1410 442 L 1010 442 L 1010 46 Z" style="stroke:black;fill:white;stroke-miterlimit:10;"/></mask><mask id="_mask_PqGDG4wBpFki5mby8Ui15S6QZZh2Q5pd"><path d="M 1010 46 L 1410 46 L 1410 442 L 1010 442 L 1010 46 Z" style="stroke:black;fill:white;stroke-miterlimit:10;"/></mask></defs><g mask="url(#_mask_PqGDG4wBpFki5mby8Ui15S6QZZh2Q5pd)"><g mask="url(#_mask_RUpcYlect9ASrZfRZmc1MTDXpcPNc2eY)"/></g><g mask="url(#_mask_RUpcYlect9ASrZfRZmc1MTDXpcPNc2eY)"><use xlink:href="#img_gustNhMm9yf3khyxvuBUky4B3QXydBmm" transform="matrix(1,0,0,1,1010,46)" preserveAspectRatio="none" style=""/></g><defs><mask id="_mask_0oQ9sx4Lz5qPpTFw47KGmUZ1vRjz3VAU"><path d="M 634.363 639.615 L 879.46 466.62 L 993.637 628.385 L 748.54 801.38 L 634.363 639.615 Z" style="stroke:black;fill:white;stroke-miterlimit:10;"/></mask><mask id="_mask_csJj1ly2WnLUtQ4GSJe2V92ZTROsIOiF"><path d="M 634.363 639.615 L 879.46 466.62 L 993.637 628.385 L 748.54 801.38 L 634.363 639.615 Z" style="stroke:black;fill:white;stroke-miterlimit:10;"/></mask></defs><g mask="url(#_mask_csJj1ly2WnLUtQ4GSJe2V92ZTROsIOiF)"><g mask="url(#_mask_0oQ9sx4Lz5qPpTFw47KGmUZ1vRjz3VAU)"/></g><g mask="url(#_mask_0oQ9sx4Lz5qPpTFw47KGmUZ1vRjz3VAU)"><use xlink:href="#img_mYtlHbfBh46MLAtcJJb0UYcE1KYioh4Z" transform="matrix(0.817,-0.577,0.577,0.817,634.363,639.615)" preserveAspectRatio="none" style=""/></g><defs><mask id="_mask_6aHwQlbvNvbzfxyXCeiHlG8MbXXqg2NS"><path d="M 31 32 L 481 32 L 481 259 L 31 259 L 31 32 Z" style="stroke:black;fill:white;stroke-miterlimit:10;"/></mask><mask id="_mask_8f9Td2yNjljoRyHW296IVQQY0XvLnl3t"><path d="M 31 32 L 481 32 L 481 259 L 31 259 L 31 32 Z" style="stroke:black;fill:white;stroke-miterlimit:10;"/></mask></defs><g mask="url(#_mask_8f9Td2yNjljoRyHW296IVQQY0XvLnl3t)"><g mask="url(#_mask_6aHwQlbvNvbzfxyXCeiHlG8MbXXqg2NS)"/></g><g mask="url(#_mask_6aHwQlbvNvbzfxyXCeiHlG8MbXXqg2NS)"><use xlink:href="#img_PF2NZztFrhPyq6h8XwAul5mhW2PdhAN4" transform="matrix(1,0,0,1,31,32)" preserveAspectRatio="none" style=""/></g><path d=" M 35 554.687 L 36 562.687 Q 67 566.687 95 551.687 Q 171.5 650.187 276 604.687 Q 380.5 559.187 484 440.687 Q 155 315.687 95 532.687 Q 90 555.687 35 554.687 Z " fill="rgb(0,255,0)"/><rect x="654.5" y="860" width="1" height="1" transform="matrix(1,0,0,1,0,0)" fill="rgb(0,255,0)"/><path d=" M 127 540 Q 241.636 450.424 392 461 Q 238.909 470.545 127 540 Z " fill="rgb(1,164,1)"/><g><path d=" M 1264.433 694.108 C 1270.629 694.51 1278.64 692.899 1282.905 688.634 C 1284.879 688.634 1293.123 682.202 1293.852 681.108 C 1295.211 679.069 1298.206 680.175 1299.325 679.056 C 1304.327 674.054 1304.114 671.496 1304.114 664.004 C 1304.114 657.465 1309.028 648.661 1310.956 644.164 C 1311.357 643.226 1311.868 642.339 1312.324 641.427 C 1312.741 640.594 1315.061 637.21 1315.061 636.638 C 1315.061 633.524 1317.908 630.656 1318.482 629.796 C 1321.327 625.528 1319.713 616.934 1322.586 614.06 C 1327.103 609.544 1325.323 596.975 1325.323 591.483 C 1325.323 588.036 1327.893 587.027 1328.744 585.325 C 1330.809 581.196 1334.091 572.639 1337.638 570.274 C 1345.385 565.109 1351.281 570.254 1356.795 573.01 C 1363.193 576.21 1367.643 584.543 1371.846 588.746 C 1373.215 590.115 1374.583 591.483 1375.951 592.851 C 1383.179 600.079 1385.53 588.666 1385.53 582.589 C 1385.53 572.521 1395.792 564.449 1395.792 555.222 C 1395.792 548.198 1396.476 541.892 1396.476 535.381 C 1396.476 527.634 1396.201 518.552 1401.265 513.488 C 1409.924 504.83 1410.295 500.489 1422.475 500.489 C 1423.843 500.489 1425.211 500.489 1426.58 500.489 C 1437.659 500.489 1441.017 512.945 1443.684 518.277 C 1446.513 523.936 1445.693 529.821 1447.789 534.013 C 1448.137 534.711 1449.841 538.712 1449.841 539.486 C 1449.841 543.587 1452.787 556.799 1454.63 558.643 C 1456.77 560.783 1456.34 563.26 1457.367 564.8 C 1458.009 565.764 1459.123 569.089 1459.419 570.274 C 1459.727 571.503 1460.108 578.488 1460.788 579.168 C 1463.817 582.197 1463.119 583.273 1468.314 583.273 C 1469.889 583.273 1473.428 582.981 1473.787 581.905 C 1474.938 578.452 1476.295 576.432 1477.208 575.063 C 1478.297 573.429 1479.739 572.052 1480.629 570.274 C 1482.171 567.189 1483.39 562.368 1485.418 559.327 C 1490.902 551.101 1490.207 542.688 1490.207 535.381 C 1490.207 528.06 1493.586 523.834 1496.364 518.277 C 1497.255 516.496 1500.469 512.168 1500.469 510.067 C 1500.469 503.939 1499.849 487.426 1503.89 483.385 C 1509.478 477.797 1516.735 469.547 1523.731 476.543 C 1529.11 481.922 1533.63 485.437 1540.835 485.437 C 1548.829 485.437 1554.133 475.902 1560.676 475.175 C 1562.824 474.936 1564.128 474.491 1566.149 474.491 C 1571.706 474.491 1566.843 474.416 1573.675 475.175 C 1575.823 475.414 1577.287 473.505 1578.464 475.859 C 1580.503 479.936 1581.262 484.191 1583.253 488.174 C 1587.008 495.683 1590.779 500.898 1590.779 508.699 C 1590.779 511.208 1590.779 513.032 1590.779 514.856 C 1590.779 519.64 1588.042 523.985 1588.042 527.856 C 1588.042 534.489 1578.506 543.507 1575.727 549.065 C 1571.521 557.477 1570.938 561.412 1570.938 569.59 C 1570.938 578.481 1581.098 575.457 1584.622 573.695 C 1592.484 569.763 1590.908 561.793 1598.305 559.327 C 1609.966 555.44 1619.257 550.561 1627.724 546.328 C 1636.108 542.136 1645.032 543.055 1652.354 544.276 C 1672.856 547.693 1674.931 552.959 1674.931 564.116 C 1674.931 572.312 1672.879 579.589 1672.879 586.01 C 1672.879 591.668 1679.964 591.726 1683.141 594.904 C 1686.481 598.243 1690.24 600.634 1693.404 603.798 C 1700.094 610.488 1697.509 618.049 1697.509 624.323 C 1697.509 626.843 1696.232 629.704 1695.456 630.48 C 1695.456 630.48 1687.246 641.427 1687.246 641.427 C 1683.094 641.427 1685.712 651.759 1686.562 653.742 C 1688.344 657.9 1692.72 658.191 1692.72 664.004 C 1692.72 676.736 1697.838 685.391 1688.615 690.003 C 1680.911 693.855 1673.389 700.949 1665.353 700.949 C 1657.001 700.949 1648.98 702.318 1641.407 702.318 C 1631.672 702.318 1620.198 698.904 1620.198 709.843 C 1620.198 716.479 1623.527 722.067 1628.408 726.948 C 1632.887 731.426 1639.087 740.481 1636.618 745.42 C 1634.444 749.769 1629.023 760.472 1624.987 760.472 C 1622.713 760.472 1620.871 763.214 1619.514 763.892 C 1615.115 766.092 1609.52 765.261 1604.462 765.261 C 1598.874 765.261 1590.095 773.082 1590.095 778.26 C 1590.095 788.742 1580.76 788.522 1573.675 788.522 C 1571.162 788.522 1568.987 785.887 1568.202 785.102 C 1563.04 779.939 1557.806 773.382 1551.782 769.366 C 1542.577 763.229 1538.578 754.793 1532.625 748.841 C 1527.349 743.565 1524.214 734.715 1518.258 731.737 C 1511.467 728.341 1511.147 715.732 1507.311 711.896 C 1505.491 710.075 1505.007 706.171 1503.89 705.054 C 1502.583 703.747 1500.379 702.731 1499.785 700.949 C 1499.49 700.065 1498.105 695.476 1497.733 695.476 C 1495.418 695.476 1493.868 687.95 1492.944 687.95 C 1491.35 687.95 1487.47 691.488 1487.47 692.739 C 1487.47 698.555 1487.964 706.917 1490.891 709.843 C 1495.436 714.389 1495.139 722.986 1498.417 726.263 C 1502.618 730.464 1501.838 740.35 1501.838 745.42 C 1501.838 753.839 1501.762 758.494 1497.049 763.208 C 1492.637 767.62 1485.201 769.366 1479.944 769.366 C 1478.081 769.366 1471.43 770.43 1470.366 769.366 C 1469.125 768.125 1465.918 767.826 1464.893 767.313 C 1460.699 765.216 1457.386 760.491 1454.63 757.735 C 1453.793 756.898 1452.069 753.376 1451.209 752.946 C 1444.735 749.709 1438.073 737.62 1435.474 732.421 C 1432.534 726.542 1427.63 719.104 1424.527 716.001 C 1422.36 713.834 1421.31 712.784 1419.738 711.212 C 1418.213 709.687 1416.555 708.029 1414.949 706.423 C 1412.023 703.497 1402.634 706.707 1402.634 711.212 C 1402.634 720.199 1405.935 724.45 1402.634 731.052 C 1398.166 739.987 1381.035 733.986 1376.636 731.052 C 1375.951 730.596 1375.267 730.14 1374.583 729.684 C 1373.671 729.456 1372.653 729.484 1371.846 729 C 1370.327 728.089 1368.85 726.004 1367.741 724.895 C 1365.642 722.795 1364.526 721.971 1362.952 720.79 C 1358.076 717.133 1351.23 717.962 1347.216 713.948 C 1344.871 711.603 1342.066 708.798 1339.691 706.423 C 1331.849 698.581 1321.14 695.397 1314.377 688.634 C 1313.692 687.95 1304.798 687.95 1304.798 687.95 C 1294.798 688.664 1287.625 695.476 1278.116 695.476 C 1271.073 695.476 1258.078 708.962 1250.065 700.949 C 1244.127 695.011 1253.028 693.48 1264.433 694.108 Z " fill="rgb(0,255,42)"/><path d=" M 1326.336 665.4 Q 1458.711 613.622 1645.43 617.235 Q 1430.494 609.107 1326.336 665.4 Z " fill="rgb(0,205,74)"/><path d=" M 1326.336 665.4 Q 1347.883 656.972 1370.87 650.011 C 1449.693 626.144 1541.213 615.219 1645.43 617.235 Q 1430.494 609.107 1326.336 665.4 Z " fill="rgb(0,205,74)"/></g><g><g><path d=" M 1159.302 943.664 Q 1161.029 944.762 1162.743 945.779 C 1168.402 949.137 1173.953 951.836 1179.394 953.877 C 1180.53 954.303 1181.662 954.7 1182.789 955.069 C 1208.275 963.406 1231.333 957.048 1251.964 935.993 Q 1254.685 933.216 1260 926.896 Q 1202.006 886.706 1159.302 943.664 Z " fill="rgb(0,255,42)"/><path d=" M 1137.444 944.498 Q 1139.262 943.78 1141.024 943.031 C 1146.84 940.557 1152.188 937.829 1157.068 934.846 C 1158.087 934.223 1159.085 933.589 1160.063 932.943 C 1182.189 918.349 1193.875 898.065 1195.123 872.09 Q 1195.287 868.664 1195.072 861.516 Q 1132.009 883.917 1137.444 944.498 Z " fill="rgb(0,255,42)"/><path d=" M 945.846 958.44 Q 947.678 956.772 949.424 955.094 C 955.188 949.552 960.249 943.918 964.607 938.191 C 965.517 936.996 966.396 935.796 967.245 934.592 C 986.441 907.365 989.952 878.085 977.778 846.752 Q 976.173 842.619 972.144 834.248 Q 907.315 889.111 945.846 958.44 Z " fill="rgb(0,255,42)"/><path d=" M 899.101 955.334 Q 900.506 954.143 901.847 952.941 C 906.274 948.973 910.181 944.918 913.568 940.777 C 914.275 939.912 914.96 939.043 915.622 938.171 C 930.593 918.439 933.964 896.774 925.734 873.176 Q 924.648 870.063 921.872 863.738 Q 872.274 902.817 899.101 955.334 Z " fill="rgb(0,255,42)"/><path d=" M 898.699 959.603 Q 899.871 961.024 900.978 962.443 C 904.635 967.131 907.765 971.812 910.368 976.486 C 910.911 977.462 911.432 978.438 911.929 979.414 C 923.182 1001.478 922.675 1023.398 910.408 1045.173 Q 908.79 1048.045 904.94 1053.781 Q 863.021 1006.559 898.699 959.603 Z " fill="rgb(0,255,42)"/><path d=" M 945.507 962.796 Q 947.426 964.362 949.26 965.944 C 955.315 971.167 960.672 976.52 965.333 982.003 C 966.306 983.148 967.248 984.298 968.161 985.455 C 988.797 1011.607 993.882 1040.655 983.415 1072.599 Q 982.035 1076.812 978.463 1085.389 Q 910.77 1034.101 945.507 962.796 Z " fill="rgb(0,255,42)"/><path d=" M 1138.26 947.54 Q 1140.176 947.928 1142.042 948.356 C 1148.202 949.77 1153.946 951.517 1159.273 953.597 C 1160.386 954.032 1161.48 954.481 1162.557 954.944 C 1186.9 965.427 1201.967 983.345 1207.755 1008.698 Q 1208.518 1012.042 1209.561 1019.117 Q 1143.545 1008.134 1138.26 947.54 Z " fill="rgb(0,255,42)"/><path d=" M 1094.166 953.178 Q 1096.801 954.071 1099.36 955.011 C 1107.807 958.114 1115.623 961.605 1122.805 965.485 C 1124.305 966.295 1125.778 967.122 1127.223 967.966 C 1159.901 987.057 1178.478 1014.811 1182.951 1051.227 Q 1183.541 1056.03 1183.985 1066.087 Q 1092.85 1038.643 1094.166 953.178 Z " fill="rgb(0,255,42)"/><path d=" M 1094.082 951.694 Q 1096.403 950.159 1098.637 948.597 C 1106.013 943.441 1112.679 938.072 1118.634 932.488 C 1119.878 931.322 1121.091 930.146 1122.272 928.962 C 1148.999 902.165 1159.88 870.591 1154.915 834.239 Q 1154.26 829.444 1152.124 819.606 Q 1071.006 869.393 1094.082 951.694 Z " fill="rgb(0,255,42)"/><path d=" M 1047.173 954.971 Q 1049.414 953.32 1051.567 951.648 C 1058.673 946.127 1065.06 940.428 1070.726 934.551 C 1071.91 933.324 1073.061 932.088 1074.182 930.846 C 1099.524 902.736 1108.799 870.653 1102.007 834.597 Q 1101.111 829.842 1098.481 820.125 Q 1019.977 873.938 1047.173 954.971 Z " fill="rgb(0,255,42)"/><path d=" M 996.205 958.451 Q 998.153 956.465 1000.011 954.47 C 1006.146 947.886 1011.541 941.24 1016.196 934.534 C 1017.169 933.134 1018.109 931.731 1019.016 930.325 C 1039.547 898.531 1043.582 865.379 1031.123 830.87 Q 1029.479 826.318 1025.332 817.145 Q 956.423 882.798 996.205 958.451 Z " fill="rgb(0,255,42)"/><path d=" M 996.387 961.716 Q 998.633 963.359 1000.791 965.025 C 1007.915 970.523 1014.32 976.201 1020.005 982.06 C 1021.193 983.283 1022.348 984.515 1023.473 985.754 C 1048.905 1013.782 1058.284 1045.834 1051.608 1081.912 Q 1050.728 1086.67 1048.129 1096.396 Q 969.452 1042.836 996.387 961.716 Z " fill="rgb(0,255,42)"/><path d=" M 1046.826 957.668 Q 1049.405 958.714 1051.903 959.803 C 1060.153 963.399 1067.749 967.345 1074.691 971.641 C 1076.14 972.538 1077.561 973.451 1078.954 974.379 C 1110.451 995.362 1127.359 1024.162 1129.678 1060.779 Q 1129.984 1065.608 1129.835 1075.674 Q 1040.475 1042.906 1046.826 957.668 Z " fill="rgb(0,255,42)"/><path d=" M 771.63 935.497 C 768.191 934.852 761.098 936.357 758.733 927.759 C 755.651 916.55 754.864 922.6 772.92 925.824 C 790.976 929.049 850.089 956.778 953.481 958.712 C 1000.844 959.598 1046.437 955.843 1086.968 951.404 C 1136.377 945.992 1177.866 939.243 1200.893 934.637 L 1172.304 940.871 Q 1125.583 949.901 1086.968 953.983 C 1016.507 961.432 969.125 963.822 945.743 963.011 C 887.1 960.979 858.704 951.823 771.63 935.497 Z " fill="rgb(0,255,42)"/></g></g><g><g><g><path d=" M 140.551 1516.994 Q 338.901 1426.374 379.187 1346.701 Q 264.138 1459.013 127.232 1512.648 L 140.551 1516.994 Z " fill="rgb(0,254,74)"/><path d=" M 133.64 1522.511 Q 325.477 1487.102 390.733 1383.275 Q 292.932 1488.098 123.892 1514.711 L 133.64 1522.511 Z " fill="rgb(0,254,74)"/><path d=" M 142.453 1520.901 Q 339.032 1526.37 410.998 1446.677 Q 305.961 1520.99 132.997 1512.093 L 142.453 1520.901 Z " fill="rgb(0,254,74)"/><path d=" M 132.314 1506.364 L 119.252 1507.039 Q 120.891 1514.865 78.391 1511.476 L 77.911 1519.986 Q 77.449 1525.215 90.666 1531.375 Q 123.627 1515.786 136.999 1528.781 Q 143.915 1530.826 149.039 1521.886 L 132.314 1506.364 Z " fill="rgb(0,186,43)"/></g></g></g><g><g><path d=" M 139.689 2091.339 C 244.464 2087.75 333.15 2042.967 405.707 1956.973 Q 280.509 2073.783 131.583 2078.833 L 139.689 2091.339 Z " fill="rgb(0,254,74)"/><path d=" M 139.66 2077.689 L 125.536 2076.451 Q 112.327 2074.889 101.908 2067.479 L 100.237 2073.75 Q 100.101 2080.702 107.187 2085.494 Q 113.687 2089.639 119.589 2091.067 Q 143.779 2098.406 148.7 2092.975 L 139.66 2077.689 Z " fill="rgb(0,186,43)"/></g></g><g><g><path d=" M 314.025 815.653 C 310.681 809.727 309.764 725.388 346.316 728.909 C 388.219 732.945 378.753 772.544 383.449 801.179 C 384.318 806.472 384.794 810.994 385.047 816.351 C 392.633 824.736 398.362 821.149 402.216 805.571 L 413.595 771.333 L 431.762 723.319 C 440.147 704.021 450.401 703.095 462.507 720.524 C 466.14 723.756 469.074 723.362 471.291 719.326 C 482.471 705.884 492.592 702.296 501.636 708.546 C 518.406 721.323 516.016 751.142 494.449 797.985 C 490.781 810.861 503.059 816.401 514.813 806.769 C 533.398 778.321 552.171 767.679 571.111 774.826 C 590.703 779.947 595.9 789.669 586.683 803.974 C 581.226 819.413 587.221 825.275 604.651 821.542 C 621.554 819.812 630.743 826.339 632.201 841.107 C 635.395 853.085 629.013 861.343 613.036 865.862 C 597.319 871.367 596.659 876.83 611.039 882.233 C 619.823 895.143 618.498 906.195 607.046 915.373 C 596.182 923.08 577.422 924.55 550.748 919.765 C 538.237 915.506 532.121 919.771 532.381 932.542 L 549.949 965.682 C 553.942 984.182 547.154 1000.02 533.18 993.233 C 529.386 988.042 523.27 982.924 520.802 984.648 C 516.238 986.076 516.776 992.005 516.41 995.628 C 516.676 1000.686 513.222 1004.685 506.028 1007.607 C 488.349 1009.054 459.607 977.383 419.784 912.578 C 418.586 909.65 416.596 908.857 413.795 910.182 C 411.133 912.179 410.607 915.512 412.198 920.164 C 425.375 938.22 432.568 955.262 433.759 971.272 C 435.22 983.913 431.638 992.576 422.978 997.225 C 413.395 1005.61 401.157 1006.282 386.244 999.222 C 374.079 991.767 364.902 980.993 358.694 966.88 C 356.46 959.146 349.545 950.235 337.932 940.128 C 331.141 934.136 327.293 935.346 326.352 943.722 C 329.28 958.495 322.632 965.023 306.388 963.287 C 282.432 945.053 257.948 929.753 232.921 917.369 C 222.017 919.385 207.649 929.373 193.791 943.323 L 189 928.948 L 227.73 910.582 C 232.255 904.859 235.189 895.149 236.514 881.434 L 250.09 821.143 C 249.957 801.179 266.067 797.059 282.432 807.967 L 297.205 829.128 C 304.791 833.109 312.927 827.994 314.025 815.653 Z " fill="rgb(0,254,43)"/><path d=" M 255.681 901.238 Q 277.062 891.08 299.872 882.69 C 378.085 853.923 468.897 840.754 572.309 843.184 Q 359.035 833.387 255.681 901.238 Z " fill="rgb(0,205,74)"/></g></g><g><g/></g><g><g/></g><g><g/></g><g><g/></g><g><g/></g><g><g/></g><g><g/></g><g><g><path d=" M 229.336 2421.01 L 199.174 2397.36 C 206.402 2387.571 213.983 2381.219 221.948 2378.231 C 250.228 2366.112 267.274 2362.416 273.117 2367.069 L 229.336 2421.01 Z " fill="rgb(1,255,1)" vector-effect="non-scaling-stroke" stroke-width="1" stroke="rgb(0,165,1)" stroke-linejoin="miter" stroke-linecap="square" stroke-miterlimit="3"/><path d=" M 229.349 2421.043 L 224.112 2459.012 C 236.113 2461.022 245.978 2460.317 253.78 2456.927 C 282.533 2445.978 297.355 2436.784 298.32 2429.377 L 229.349 2421.043 Z " fill="rgb(0,255,0)" vector-effect="non-scaling-stroke" stroke-width="1" stroke="rgb(0,165,1)" stroke-linejoin="miter" stroke-linecap="square" stroke-miterlimit="3"/><path d=" M 229.328 2421.029 L 293.736 2428.81 C 298.48 2416.727 300.131 2404.542 298.721 2392.182 C 290.393 2383.123 281.095 2375.685 270.858 2369.794 L 229.328 2421.029 Z " fill="rgb(0,255,0)" vector-effect="non-scaling-stroke" stroke-width="1" stroke="rgb(1,165,0)" stroke-linejoin="miter" stroke-linecap="square" stroke-miterlimit="3"/><path d=" M 150.933 2452.721 L 116.555 2425.765 C 124.794 2414.608 133.434 2407.368 142.513 2403.963 C 174.745 2390.149 194.174 2385.936 200.833 2391.24 L 150.933 2452.721 Z " fill="rgb(1,255,1)" vector-effect="non-scaling-stroke" stroke-width="1" stroke="rgb(0,165,1)" stroke-linejoin="miter" stroke-linecap="square" stroke-miterlimit="3"/><path d=" M 150.948 2452.758 L 144.979 2496.034 C 158.657 2498.326 169.901 2497.522 178.794 2493.658 C 211.566 2481.178 228.459 2470.699 229.559 2462.257 L 150.948 2452.758 Z " fill="rgb(0,255,0)" vector-effect="non-scaling-stroke" stroke-width="1" stroke="rgb(0,165,1)" stroke-linejoin="miter" stroke-linecap="square" stroke-miterlimit="3"/><path d=" M 150.924 2452.743 L 224.334 2461.61 C 229.741 2447.839 231.623 2433.951 230.016 2419.863 C 220.524 2409.539 209.926 2401.061 198.259 2394.346 L 150.924 2452.743 Z " fill="rgb(0,255,0)" vector-effect="non-scaling-stroke" stroke-width="1" stroke="rgb(1,165,0)" stroke-linejoin="miter" stroke-linecap="square" stroke-miterlimit="3"/><path d=" M 298.666 2393.138 L 272.74 2372.808 C 278.953 2364.394 285.47 2358.935 292.316 2356.366 C 316.624 2345.949 331.276 2342.772 336.298 2346.772 L 298.666 2393.138 Z " fill="rgb(1,255,1)" vector-effect="non-scaling-stroke" stroke-width="1" stroke="rgb(0,165,1)" stroke-linejoin="miter" stroke-linecap="square" stroke-miterlimit="3"/><path d=" M 298.677 2393.165 L 294.176 2425.802 C 304.491 2427.531 312.971 2426.924 319.678 2424.01 C 344.393 2414.598 357.133 2406.696 357.962 2400.329 L 298.677 2393.165 Z " fill="rgb(0,255,0)" vector-effect="non-scaling-stroke" stroke-width="1" stroke="rgb(0,165,1)" stroke-linejoin="miter" stroke-linecap="square" stroke-miterlimit="3"/><path d=" M 298.659 2393.154 L 354.022 2399.841 C 358.1 2389.456 359.519 2378.982 358.307 2368.358 C 351.148 2360.571 343.156 2354.178 334.357 2349.114 L 298.659 2393.154 Z " fill="rgb(0,255,0)" vector-effect="non-scaling-stroke" stroke-width="1" stroke="rgb(1,165,0)" stroke-linejoin="miter" stroke-linecap="square" stroke-miterlimit="3"/><path d=" M 356.922 2369.577 L 336.731 2353.744 C 341.569 2347.191 346.644 2342.939 351.977 2340.939 C 370.909 2332.825 382.32 2330.351 386.231 2333.466 L 356.922 2369.577 Z " fill="rgb(1,255,1)" vector-effect="non-scaling-stroke" stroke-width="1" stroke="rgb(0,165,1)" stroke-linejoin="miter" stroke-linecap="square" stroke-miterlimit="3"/><path d=" M 356.931 2369.599 L 353.425 2395.017 C 361.459 2396.363 368.063 2395.891 373.286 2393.621 C 392.535 2386.291 402.457 2380.136 403.103 2375.178 L 356.931 2369.599 Z " fill="rgb(0,255,0)" vector-effect="non-scaling-stroke" stroke-width="1" stroke="rgb(0,165,1)" stroke-linejoin="miter" stroke-linecap="square" stroke-miterlimit="3"/><path d=" M 356.917 2369.59 L 400.034 2374.798 C 403.21 2366.709 404.316 2358.552 403.372 2350.278 C 397.796 2344.214 391.572 2339.235 384.719 2335.291 L 356.917 2369.59 Z " fill="rgb(0,255,0)" vector-effect="non-scaling-stroke" stroke-width="1" stroke="rgb(1,165,0)" stroke-linejoin="miter" stroke-linecap="square" stroke-miterlimit="3"/><path d=" M 402.737 2351.048 L 386.394 2338.232 C 390.31 2332.928 394.418 2329.486 398.734 2327.867 C 414.058 2321.3 423.294 2319.297 426.46 2321.819 L 402.737 2351.048 Z " fill="rgb(1,255,1)" vector-effect="non-scaling-stroke" stroke-width="1" stroke="rgb(0,165,1)" stroke-linejoin="miter" stroke-linecap="square" stroke-miterlimit="3"/><path d=" M 402.744 2351.065 L 399.907 2371.639 C 406.409 2372.729 411.755 2372.347 415.983 2370.51 C 431.563 2364.576 439.594 2359.595 440.117 2355.581 L 402.744 2351.065 Z " fill="rgb(0,255,0)" vector-effect="non-scaling-stroke" stroke-width="1" stroke="rgb(0,165,1)" stroke-linejoin="miter" stroke-linecap="square" stroke-miterlimit="3"/><path d=" M 402.733 2351.058 L 437.633 2355.274 C 440.204 2348.727 441.099 2342.124 440.335 2335.426 C 435.822 2330.518 430.783 2326.488 425.237 2323.295 L 402.733 2351.058 Z " fill="rgb(0,255,0)" vector-effect="non-scaling-stroke" stroke-width="1" stroke="rgb(1,165,0)" stroke-linejoin="miter" stroke-linecap="square" stroke-miterlimit="3"/><path d=" M 441.261 2335.467 L 427.785 2324.899 C 431.014 2320.526 434.402 2317.688 437.96 2316.353 C 450.596 2310.938 458.212 2309.286 460.823 2311.365 L 441.261 2335.467 Z " fill="rgb(1,255,1)" vector-effect="non-scaling-stroke" stroke-width="1" stroke="rgb(0,165,1)" stroke-linejoin="miter" stroke-linecap="square" stroke-miterlimit="3"/><path d=" M 441.267 2335.481 L 438.927 2352.446 C 444.289 2353.344 448.697 2353.029 452.183 2351.515 C 465.03 2346.622 471.653 2342.514 472.084 2339.205 L 441.267 2335.481 Z " fill="rgb(0,255,0)" vector-effect="non-scaling-stroke" stroke-width="1" stroke="rgb(0,165,1)" stroke-linejoin="miter" stroke-linecap="square" stroke-miterlimit="3"/><path d=" M 441.258 2335.475 L 470.036 2338.951 C 472.155 2333.553 472.893 2328.109 472.263 2322.586 C 468.542 2318.539 464.387 2315.215 459.813 2312.583 L 441.258 2335.475 Z " fill="rgb(0,255,0)" vector-effect="non-scaling-stroke" stroke-width="1" stroke="rgb(1,165,0)" stroke-linejoin="miter" stroke-linecap="square" stroke-miterlimit="3"/><path d=" M 474.679 2321.95 L 463.089 2312.862 C 465.867 2309.101 468.78 2306.66 471.841 2305.512 C 482.708 2300.855 489.258 2299.435 491.503 2301.223 L 474.679 2321.95 Z " fill="rgb(1,255,1)" vector-effect="non-scaling-stroke" stroke-width="1" stroke="rgb(0,165,1)" stroke-linejoin="miter" stroke-linecap="square" stroke-miterlimit="3"/><path d=" M 474.684 2321.963 L 472.672 2336.553 C 477.284 2337.326 481.074 2337.055 484.073 2335.752 C 495.121 2331.545 500.817 2328.012 501.187 2325.165 L 474.684 2321.963 Z " fill="rgb(0,255,0)" vector-effect="non-scaling-stroke" stroke-width="1" stroke="rgb(0,165,1)" stroke-linejoin="miter" stroke-linecap="square" stroke-miterlimit="3"/><path d=" M 474.676 2321.958 L 499.426 2324.947 C 501.249 2320.305 501.884 2315.622 501.342 2310.873 C 498.141 2307.392 494.568 2304.534 490.635 2302.27 L 474.676 2321.958 Z " fill="rgb(0,255,0)" vector-effect="non-scaling-stroke" stroke-width="1" stroke="rgb(1,165,0)" stroke-linejoin="miter" stroke-linecap="square" stroke-miterlimit="3"/><path d=" M 116.17 2427.406 C 115.187 2455.197 123.612 2476.314 143.433 2495.041 L 159.21 2449.185 L 116.17 2427.406 Z " fill="rgb(1,255,1)" vector-effect="non-scaling-stroke" stroke-width="1" stroke="rgb(0,165,1)" stroke-linejoin="miter" stroke-linecap="square" stroke-miterlimit="3"/></g></g><g><g><path d=" M 17313.458 7316.613 L 17295.833 7326.738 C 17292.458 7321.238 17290.843 7316.248 17290.958 7311.738 C 17290.624 7295.425 17292.196 7286.31 17295.646 7284.363 L 17313.458 7316.613 Z " fill="rgb(1,255,1)" vector-effect="non-scaling-stroke" stroke-width="1" stroke="rgb(0,165,1)" stroke-linejoin="miter" stroke-linecap="square" stroke-miterlimit="3"/><path d=" M 17313.477 7316.613 L 17331.102 7326.738 C 17334.477 7321.238 17336.092 7316.248 17335.977 7311.738 C 17336.311 7295.425 17334.739 7286.31 17331.289 7284.363 L 17313.477 7316.613 Z " fill="rgb(0,255,0)" vector-effect="non-scaling-stroke" stroke-width="1" stroke="rgb(0,165,1)" stroke-linejoin="miter" stroke-linecap="square" stroke-miterlimit="3"/><path d=" M 17313.466 7316.621 L 17330.099 7286.504 C 17325.102 7281.769 17319.44 7278.534 17313.083 7276.77 C 17306.974 7279.063 17301.468 7282.155 17296.536 7286.016 L 17313.466 7316.621 Z " fill="rgb(0,255,0)" vector-effect="non-scaling-stroke" stroke-width="1" stroke="rgb(1,165,0)" stroke-linejoin="miter" stroke-linecap="square" stroke-miterlimit="3"/></g></g></g><defs><image width="300" height="456" xlink:href="cloud://id=GQANzUgDH" id="img_9WwLnrbhnltZiYcPn4W6GocktPeP57M2"/><image width="400" height="396" xlink:href="cloud://id=dB170eL9R" id="img_gustNhMm9yf3khyxvuBUky4B3QXydBmm"/><image width="300" height="198" xlink:href="cloud://id=BCr5olBMO" id="img_mYtlHbfBh46MLAtcJJb0UYcE1KYioh4Z"/><image width="450" height="227" xlink:href="cloud://id=NLLCnxlQ2" id="img_PF2NZztFrhPyq6h8XwAul5mhW2PdhAN4"/></defs></svg>