<?xml version="1.0" encoding="UTF-8" standalone="no"?><!-- Generator: Gravit.io --><svg xmlns="http://www.w3.org/2000/svg" xmlns:xlink="http://www.w3.org/1999/xlink" style="isolation:isolate" viewBox="809.333 1454.649 420 387" width="420pt" height="387pt"><defs><clipPath id="_clipPath_sWqOvBswVGZhskFZcl4ylJ6DspvEppat"><rect width="1440" height="3072"/></clipPath></defs><g clip-path="url(#_clipPath_sWqOvBswVGZhskFZcl4ylJ6DspvEppat)"><defs><mask id="_mask_AhZOF0vYMu8dLm7RbQ5f6kJMO9qaTRB5"><path d="M 1134.5 2627 L 1434.5 2627 L 1434.5 3083 L 1134.5 3083 L 1134.5 2627 Z" style="stroke:black;fill:white;stroke-miterlimit:10;"/></mask><mask id="_mask_M3tjHG9N7fkCfe5Q1FGanQhrUwdChsrG"><path d="M 1134.5 2627 L 1434.5 2627 L 1434.5 3083 L 1134.5 3083 L 1134.5 2627 Z" style="stroke:black;fill:white;stroke-miterlimit:10;"/></mask></defs><g mask="url(#_mask_M3tjHG9N7fkCfe5Q1FGanQhrUwdChsrG)"><g mask="url(#_mask_AhZOF0vYMu8dLm7RbQ5f6kJMO9qaTRB5)"/></g><g mask="url(#_mask_AhZOF0vYMu8dLm7RbQ5f6kJMO9qaTRB5)"><use xlink:href="#img_9WwLnrbhnltZiYcPn4W6GocktPeP57M2" transform="matrix(1,0,0,1,1134.5,2627)" preserveAspectRatio="none" style=""/></g><defs><mask id="_mask_xRn7vYdBk7pglnZZjcPHbJelbC6pPoRA"><path d="M 726.5 2665 L 1126.5 2665 L 1126.5 3061 L 726.5 3061 L 726.5 2665 Z" style="stroke:black;fill:white;stroke-miterlimit:10;"/></mask><mask id="_mask_9kIY8BoNyd5gR2QPKn85orR2JIGKIdue"><path d="M 726.5 2665 L 1126.5 2665 L 1126.5 3061 L 726.5 3061 L 726.5 2665 Z" style="stroke:black;fill:white;stroke-miterlimit:10;"/></mask></defs><g mask="url(#_mask_9kIY8BoNyd5gR2QPKn85orR2JIGKIdue)"><g mask="url(#_mask_xRn7vYdBk7pglnZZjcPHbJelbC6pPoRA)"/></g><g mask="url(#_mask_xRn7vYdBk7pglnZZjcPHbJelbC6pPoRA)"><use xlink:href="#img_gustNhMm9yf3khyxvuBUky4B3QXydBmm" transform="matrix(1,0,0,1,726.5,2665)" preserveAspectRatio="none" style=""/></g><g><path d=" M 30.5 135.881 L 31.104 140.71 Q 49.814 143.124 66.714 134.071 Q 112.886 193.522 175.959 166.059 Q 239.031 138.597 301.5 67.075 Q 102.928 -8.37 66.714 122.603 Q 63.696 136.485 30.5 135.881 Z " fill="rgb(0,255,0)"/><path d=" M 86.028 127.017 Q 155.218 72.952 245.972 79.335 Q 153.572 85.096 86.028 127.017 Z " fill="rgb(1,164,1)"/></g><g><g><path d=" M 911.802 372.164 Q 913.529 373.262 915.243 374.279 C 920.902 377.637 926.453 380.336 931.894 382.377 C 933.03 382.803 934.162 383.2 935.289 383.569 C 960.775 391.906 983.833 385.548 1004.464 364.493 Q 1007.185 361.716 1012.5 355.396 Q 954.506 315.206 911.802 372.164 Z " fill="rgb(0,255,42)"/><path d=" M 889.944 372.998 Q 891.762 372.28 893.524 371.531 C 899.34 369.057 904.688 366.329 909.568 363.346 C 910.587 362.723 911.585 362.089 912.563 361.443 C 934.689 346.849 946.375 326.565 947.623 300.59 Q 947.787 297.164 947.572 290.016 Q 884.509 312.417 889.944 372.998 Z " fill="rgb(0,255,42)"/><path d=" M 698.346 386.94 Q 700.178 385.272 701.924 383.594 C 707.688 378.052 712.749 372.418 717.107 366.691 C 718.017 365.496 718.896 364.296 719.745 363.092 C 738.941 335.865 742.452 306.585 730.278 275.252 Q 728.673 271.119 724.644 262.748 Q 659.815 317.611 698.346 386.94 Z " fill="rgb(0,255,42)"/><path d=" M 651.601 383.834 Q 653.006 382.643 654.347 381.441 C 658.774 377.473 662.681 373.418 666.068 369.277 C 666.775 368.412 667.46 367.543 668.122 366.671 C 683.093 346.939 686.464 325.274 678.234 301.676 Q 677.148 298.563 674.372 292.238 Q 624.774 331.317 651.601 383.834 Z " fill="rgb(0,255,42)"/><path d=" M 651.199 388.103 Q 652.371 389.524 653.478 390.943 C 657.135 395.631 660.265 400.312 662.868 404.986 C 663.411 405.962 663.932 406.938 664.429 407.914 C 675.682 429.978 675.175 451.898 662.908 473.673 Q 661.29 476.545 657.44 482.281 Q 615.521 435.059 651.199 388.103 Z " fill="rgb(0,255,42)"/><path d=" M 698.007 391.296 Q 699.926 392.862 701.76 394.444 C 707.815 399.667 713.172 405.02 717.833 410.503 C 718.806 411.648 719.748 412.798 720.661 413.955 C 741.297 440.107 746.382 469.155 735.915 501.099 Q 734.535 505.312 730.963 513.889 Q 663.27 462.601 698.007 391.296 Z " fill="rgb(0,255,42)"/><path d=" M 890.76 376.04 Q 892.676 376.428 894.542 376.856 C 900.702 378.27 906.446 380.017 911.773 382.097 C 912.886 382.532 913.98 382.981 915.057 383.444 C 939.4 393.927 954.467 411.845 960.255 437.198 Q 961.018 440.542 962.061 447.617 Q 896.045 436.634 890.76 376.04 Z " fill="rgb(0,255,42)"/><path d=" M 846.666 381.678 Q 849.301 382.571 851.86 383.511 C 860.307 386.614 868.123 390.105 875.305 393.985 C 876.805 394.795 878.278 395.622 879.723 396.466 C 912.401 415.557 930.978 443.311 935.451 479.727 Q 936.041 484.53 936.485 494.587 Q 845.35 467.143 846.666 381.678 Z " fill="rgb(0,255,42)"/><path d=" M 846.582 380.194 Q 848.903 378.659 851.137 377.097 C 858.513 371.941 865.179 366.572 871.134 360.988 C 872.378 359.822 873.591 358.646 874.772 357.462 C 901.499 330.665 912.38 299.091 907.415 262.739 Q 906.76 257.944 904.624 248.106 Q 823.506 297.893 846.582 380.194 Z " fill="rgb(0,255,42)"/><path d=" M 799.673 383.471 Q 801.914 381.82 804.067 380.148 C 811.173 374.627 817.56 368.928 823.226 363.051 C 824.41 361.824 825.561 360.588 826.682 359.346 C 852.024 331.236 861.299 299.153 854.507 263.097 Q 853.611 258.342 850.981 248.625 Q 772.477 302.438 799.673 383.471 Z " fill="rgb(0,255,42)"/><path d=" M 748.705 386.951 Q 750.653 384.965 752.511 382.97 C 758.646 376.386 764.041 369.74 768.696 363.034 C 769.669 361.634 770.609 360.231 771.516 358.825 C 792.047 327.031 796.082 293.879 783.623 259.37 Q 781.979 254.818 777.832 245.645 Q 708.923 311.298 748.705 386.951 Z " fill="rgb(0,255,42)"/><path d=" M 748.887 390.216 Q 751.133 391.859 753.291 393.525 C 760.415 399.023 766.82 404.701 772.505 410.56 C 773.693 411.783 774.848 413.015 775.973 414.254 C 801.405 442.282 810.784 474.334 804.108 510.412 Q 803.228 515.17 800.629 524.896 Q 721.952 471.336 748.887 390.216 Z " fill="rgb(0,255,42)"/><path d=" M 799.326 386.168 Q 801.905 387.214 804.403 388.303 C 812.653 391.899 820.249 395.845 827.191 400.141 C 828.64 401.038 830.061 401.951 831.454 402.879 C 862.951 423.862 879.859 452.662 882.178 489.279 Q 882.484 494.108 882.335 504.174 Q 792.975 471.406 799.326 386.168 Z " fill="rgb(0,255,42)"/><path d=" M 524.13 363.997 C 520.691 363.352 513.598 364.857 511.233 356.259 C 508.151 345.05 507.364 351.1 525.42 354.324 C 543.476 357.549 602.589 385.278 705.981 387.212 C 753.344 388.098 798.937 384.343 839.468 379.904 C 888.877 374.492 930.366 367.743 953.393 363.137 L 924.804 369.371 Q 878.083 378.401 839.468 382.483 C 769.007 389.932 721.625 392.322 698.243 391.511 C 639.6 389.479 611.204 380.323 524.13 363.997 Z " fill="rgb(0,255,42)"/></g></g><g><g/></g><g><g/></g><g><g/></g><g><g/></g><g><g/></g><g><g/></g><g><g><g><path d=" M 851.551 198.494 Q 1049.901 107.874 1090.187 28.201 Q 975.138 140.513 838.232 194.148 L 851.551 198.494 Z " fill="rgb(0,254,74)"/><path d=" M 844.64 204.011 Q 1036.477 168.602 1101.733 64.775 Q 1003.932 169.598 834.892 196.211 L 844.64 204.011 Z " fill="rgb(0,254,74)"/><path d=" M 853.453 202.401 Q 1050.032 207.87 1121.998 128.177 Q 1016.961 202.49 843.997 193.593 L 853.453 202.401 Z " fill="rgb(0,254,74)"/><path d=" M 843.314 187.864 L 830.252 188.539 Q 831.891 196.365 789.391 192.976 L 788.911 201.486 Q 788.449 206.715 801.666 212.875 Q 834.627 197.286 847.999 210.281 Q 854.915 212.326 860.039 203.386 L 843.314 187.864 Z " fill="rgb(0,186,43)"/></g></g></g><g><g><path d=" M 1129.689 232.839 C 1234.464 229.25 1323.15 184.467 1395.707 98.473 Q 1270.509 215.283 1121.583 220.333 L 1129.689 232.839 Z " fill="rgb(0,254,74)"/><path d=" M 1129.66 219.189 L 1115.536 217.951 Q 1102.327 216.389 1091.908 208.979 L 1090.237 215.25 Q 1090.101 222.202 1097.187 226.994 Q 1103.687 231.139 1109.589 232.567 Q 1133.779 239.906 1138.7 234.475 L 1129.66 219.189 Z " fill="rgb(0,186,43)"/></g></g><g><g><path d=" M 479.419 112.482 C 477.068 108.314 476.423 49.006 502.127 51.482 C 531.594 54.32 524.937 82.167 528.24 102.303 C 528.85 106.025 529.185 109.205 529.363 112.973 C 534.698 118.869 538.727 116.346 541.437 105.392 L 549.439 81.315 L 562.214 47.551 C 568.111 33.98 575.322 33.329 583.835 45.586 C 586.389 47.858 588.453 47.582 590.012 44.743 C 597.874 35.29 604.991 32.768 611.351 37.162 C 623.144 46.147 621.463 67.116 606.297 100.057 C 603.717 109.112 612.351 113.008 620.617 106.234 C 633.687 86.229 646.887 78.746 660.207 83.772 C 673.984 87.373 677.639 94.21 671.157 104.269 C 667.32 115.126 671.536 119.248 683.792 116.623 C 695.679 115.406 702.141 119.997 703.166 130.381 C 705.412 138.805 700.924 144.612 689.689 147.79 C 678.636 151.661 678.173 155.503 688.285 159.302 C 694.462 168.38 693.53 176.153 685.477 182.606 C 677.837 188.026 664.644 189.06 645.887 185.695 C 637.089 182.7 632.788 185.699 632.971 194.68 L 645.325 217.985 C 648.133 230.994 643.36 242.132 633.533 237.359 C 630.865 233.708 626.564 230.109 624.828 231.322 C 621.619 232.326 621.998 236.495 621.74 239.043 C 621.927 242.6 619.498 245.412 614.44 247.467 C 602.007 248.484 581.795 226.213 553.791 180.641 C 552.949 178.582 551.549 178.025 549.579 178.956 C 547.707 180.36 547.337 182.704 548.456 185.976 C 557.722 198.673 562.781 210.657 563.618 221.916 C 564.646 230.805 562.127 236.897 556.037 240.166 C 549.299 246.063 540.692 246.535 530.205 241.57 C 521.651 236.328 515.197 228.751 510.832 218.827 C 509.261 213.388 504.398 207.122 496.231 200.015 C 491.456 195.801 488.75 196.652 488.088 202.542 C 490.147 212.931 485.472 217.521 474.049 216.3 C 457.203 203.478 439.986 192.719 422.386 184.01 C 414.718 185.428 404.614 192.452 394.869 202.261 L 391.5 192.153 L 418.736 179.237 C 421.918 175.213 423.981 168.384 424.913 158.74 L 434.459 116.342 C 434.366 102.303 445.695 99.406 457.203 107.077 L 467.591 121.958 C 472.926 124.757 478.647 121.16 479.419 112.482 Z " fill="rgb(0,254,43)"/><path d=" M 438.391 172.667 Q 453.427 165.523 469.467 159.623 C 524.468 139.394 588.328 130.133 661.049 131.842 Q 511.071 124.953 438.391 172.667 Z " fill="rgb(0,205,74)"/></g></g><g><g/></g><g><g/></g><g><g/></g><g><g/></g><g><g/></g><g><g/></g><g><g/></g><g><g><path d=" M 175.336 391.51 L 145.174 367.86 C 152.402 358.071 159.983 351.719 167.948 348.731 C 196.228 336.612 213.274 332.916 219.117 337.569 L 175.336 391.51 Z " fill="rgb(1,255,1)" vector-effect="non-scaling-stroke" stroke-width="1" stroke="rgb(0,165,1)" stroke-linejoin="miter" stroke-linecap="square" stroke-miterlimit="3"/><path d=" M 175.349 391.543 L 170.112 429.512 C 182.113 431.522 191.978 430.817 199.78 427.427 C 228.533 416.478 243.355 407.284 244.32 399.877 L 175.349 391.543 Z " fill="rgb(0,255,0)" vector-effect="non-scaling-stroke" stroke-width="1" stroke="rgb(0,165,1)" stroke-linejoin="miter" stroke-linecap="square" stroke-miterlimit="3"/><path d=" M 175.328 391.529 L 239.736 399.31 C 244.48 387.227 246.131 375.042 244.721 362.682 C 236.393 353.623 227.095 346.185 216.858 340.294 L 175.328 391.529 Z " fill="rgb(0,255,0)" vector-effect="non-scaling-stroke" stroke-width="1" stroke="rgb(1,165,0)" stroke-linejoin="miter" stroke-linecap="square" stroke-miterlimit="3"/><path d=" M 96.933 423.221 L 62.555 396.265 C 70.794 385.108 79.434 377.868 88.513 374.463 C 120.745 360.649 140.174 356.436 146.833 361.74 L 96.933 423.221 Z " fill="rgb(1,255,1)" vector-effect="non-scaling-stroke" stroke-width="1" stroke="rgb(0,165,1)" stroke-linejoin="miter" stroke-linecap="square" stroke-miterlimit="3"/><path d=" M 96.948 423.258 L 90.979 466.534 C 104.657 468.826 115.901 468.022 124.794 464.158 C 157.566 451.678 174.459 441.199 175.559 432.757 L 96.948 423.258 Z " fill="rgb(0,255,0)" vector-effect="non-scaling-stroke" stroke-width="1" stroke="rgb(0,165,1)" stroke-linejoin="miter" stroke-linecap="square" stroke-miterlimit="3"/><path d=" M 96.924 423.243 L 170.334 432.11 C 175.741 418.339 177.623 404.451 176.016 390.363 C 166.524 380.039 155.926 371.561 144.259 364.846 L 96.924 423.243 Z " fill="rgb(0,255,0)" vector-effect="non-scaling-stroke" stroke-width="1" stroke="rgb(1,165,0)" stroke-linejoin="miter" stroke-linecap="square" stroke-miterlimit="3"/><path d=" M 244.666 363.638 L 218.74 343.308 C 224.953 334.894 231.47 329.435 238.316 326.866 C 262.624 316.449 277.276 313.272 282.298 317.272 L 244.666 363.638 Z " fill="rgb(1,255,1)" vector-effect="non-scaling-stroke" stroke-width="1" stroke="rgb(0,165,1)" stroke-linejoin="miter" stroke-linecap="square" stroke-miterlimit="3"/><path d=" M 244.677 363.665 L 240.176 396.302 C 250.491 398.031 258.971 397.424 265.678 394.51 C 290.393 385.098 303.133 377.196 303.962 370.829 L 244.677 363.665 Z " fill="rgb(0,255,0)" vector-effect="non-scaling-stroke" stroke-width="1" stroke="rgb(0,165,1)" stroke-linejoin="miter" stroke-linecap="square" stroke-miterlimit="3"/><path d=" M 244.659 363.654 L 300.022 370.341 C 304.1 359.956 305.519 349.482 304.307 338.858 C 297.148 331.071 289.156 324.678 280.357 319.614 L 244.659 363.654 Z " fill="rgb(0,255,0)" vector-effect="non-scaling-stroke" stroke-width="1" stroke="rgb(1,165,0)" stroke-linejoin="miter" stroke-linecap="square" stroke-miterlimit="3"/><path d=" M 302.922 340.077 L 282.731 324.244 C 287.569 317.691 292.644 313.439 297.977 311.439 C 316.909 303.325 328.32 300.851 332.231 303.966 L 302.922 340.077 Z " fill="rgb(1,255,1)" vector-effect="non-scaling-stroke" stroke-width="1" stroke="rgb(0,165,1)" stroke-linejoin="miter" stroke-linecap="square" stroke-miterlimit="3"/><path d=" M 302.931 340.099 L 299.425 365.517 C 307.459 366.863 314.063 366.391 319.286 364.121 C 338.535 356.791 348.457 350.636 349.103 345.678 L 302.931 340.099 Z " fill="rgb(0,255,0)" vector-effect="non-scaling-stroke" stroke-width="1" stroke="rgb(0,165,1)" stroke-linejoin="miter" stroke-linecap="square" stroke-miterlimit="3"/><path d=" M 302.917 340.09 L 346.034 345.298 C 349.21 337.209 350.316 329.052 349.372 320.778 C 343.796 314.714 337.572 309.735 330.719 305.791 L 302.917 340.09 Z " fill="rgb(0,255,0)" vector-effect="non-scaling-stroke" stroke-width="1" stroke="rgb(1,165,0)" stroke-linejoin="miter" stroke-linecap="square" stroke-miterlimit="3"/><path d=" M 348.737 321.548 L 332.394 308.732 C 336.31 303.428 340.418 299.986 344.734 298.367 C 360.058 291.8 369.294 289.797 372.46 292.319 L 348.737 321.548 Z " fill="rgb(1,255,1)" vector-effect="non-scaling-stroke" stroke-width="1" stroke="rgb(0,165,1)" stroke-linejoin="miter" stroke-linecap="square" stroke-miterlimit="3"/><path d=" M 348.744 321.565 L 345.907 342.139 C 352.409 343.229 357.755 342.847 361.983 341.01 C 377.563 335.076 385.594 330.095 386.117 326.081 L 348.744 321.565 Z " fill="rgb(0,255,0)" vector-effect="non-scaling-stroke" stroke-width="1" stroke="rgb(0,165,1)" stroke-linejoin="miter" stroke-linecap="square" stroke-miterlimit="3"/><path d=" M 348.733 321.558 L 383.633 325.774 C 386.204 319.227 387.099 312.624 386.335 305.926 C 381.822 301.018 376.783 296.988 371.237 293.795 L 348.733 321.558 Z " fill="rgb(0,255,0)" vector-effect="non-scaling-stroke" stroke-width="1" stroke="rgb(1,165,0)" stroke-linejoin="miter" stroke-linecap="square" stroke-miterlimit="3"/><path d=" M 387.261 305.967 L 373.785 295.399 C 377.014 291.026 380.402 288.188 383.96 286.853 C 396.596 281.438 404.212 279.786 406.823 281.865 L 387.261 305.967 Z " fill="rgb(1,255,1)" vector-effect="non-scaling-stroke" stroke-width="1" stroke="rgb(0,165,1)" stroke-linejoin="miter" stroke-linecap="square" stroke-miterlimit="3"/><path d=" M 387.267 305.981 L 384.927 322.946 C 390.289 323.844 394.697 323.529 398.183 322.015 C 411.03 317.122 417.653 313.014 418.084 309.705 L 387.267 305.981 Z " fill="rgb(0,255,0)" vector-effect="non-scaling-stroke" stroke-width="1" stroke="rgb(0,165,1)" stroke-linejoin="miter" stroke-linecap="square" stroke-miterlimit="3"/><path d=" M 387.258 305.975 L 416.036 309.451 C 418.155 304.053 418.893 298.609 418.263 293.086 C 414.542 289.039 410.387 285.715 405.813 283.083 L 387.258 305.975 Z " fill="rgb(0,255,0)" vector-effect="non-scaling-stroke" stroke-width="1" stroke="rgb(1,165,0)" stroke-linejoin="miter" stroke-linecap="square" stroke-miterlimit="3"/><path d=" M 420.679 292.45 L 409.089 283.362 C 411.867 279.601 414.78 277.16 417.841 276.012 C 428.708 271.355 435.258 269.935 437.503 271.723 L 420.679 292.45 Z " fill="rgb(1,255,1)" vector-effect="non-scaling-stroke" stroke-width="1" stroke="rgb(0,165,1)" stroke-linejoin="miter" stroke-linecap="square" stroke-miterlimit="3"/><path d=" M 420.684 292.463 L 418.672 307.053 C 423.284 307.826 427.074 307.555 430.073 306.252 C 441.121 302.045 446.817 298.512 447.187 295.665 L 420.684 292.463 Z " fill="rgb(0,255,0)" vector-effect="non-scaling-stroke" stroke-width="1" stroke="rgb(0,165,1)" stroke-linejoin="miter" stroke-linecap="square" stroke-miterlimit="3"/><path d=" M 420.676 292.458 L 445.426 295.447 C 447.249 290.805 447.884 286.122 447.342 281.373 C 444.141 277.892 440.568 275.034 436.635 272.77 L 420.676 292.458 Z " fill="rgb(0,255,0)" vector-effect="non-scaling-stroke" stroke-width="1" stroke="rgb(1,165,0)" stroke-linejoin="miter" stroke-linecap="square" stroke-miterlimit="3"/><path d=" M 62.17 397.906 C 61.187 425.697 69.612 446.814 89.433 465.541 L 105.21 419.685 L 62.17 397.906 Z " fill="rgb(1,255,1)" vector-effect="non-scaling-stroke" stroke-width="1" stroke="rgb(0,165,1)" stroke-linejoin="miter" stroke-linecap="square" stroke-miterlimit="3"/></g></g><g><g><path d=" M 17313.458 7316.613 L 17295.833 7326.738 C 17292.458 7321.238 17290.843 7316.248 17290.958 7311.738 C 17290.624 7295.425 17292.196 7286.31 17295.646 7284.363 L 17313.458 7316.613 Z " fill="rgb(1,255,1)" vector-effect="non-scaling-stroke" stroke-width="1" stroke="rgb(0,165,1)" stroke-linejoin="miter" stroke-linecap="square" stroke-miterlimit="3"/><path d=" M 17313.477 7316.613 L 17331.102 7326.738 C 17334.477 7321.238 17336.092 7316.248 17335.977 7311.738 C 17336.311 7295.425 17334.739 7286.31 17331.289 7284.363 L 17313.477 7316.613 Z " fill="rgb(0,255,0)" vector-effect="non-scaling-stroke" stroke-width="1" stroke="rgb(0,165,1)" stroke-linejoin="miter" stroke-linecap="square" stroke-miterlimit="3"/><path d=" M 17313.466 7316.621 L 17330.099 7286.504 C 17325.102 7281.769 17319.44 7278.534 17313.083 7276.77 C 17306.974 7279.063 17301.468 7282.155 17296.536 7286.016 L 17313.466 7316.621 Z " fill="rgb(0,255,0)" vector-effect="non-scaling-stroke" stroke-width="1" stroke="rgb(1,165,0)" stroke-linejoin="miter" stroke-linecap="square" stroke-miterlimit="3"/></g></g><g><g><g><g><g><g><rect x="826.413" y="720.752" width="0.587" height="0.587" transform="matrix(0,1,-1,0,1547.752,-105.661)" fill="rgb(0,255,0)"/><path d=" M 487.487 1042.668 Q 486.842 1043.682 486.245 1044.688 C 484.274 1048.01 482.69 1051.268 481.492 1054.462 C 481.242 1055.129 481.009 1055.794 480.792 1056.455 C 475.898 1071.415 479.631 1084.951 491.99 1097.061 Q 493.62 1098.659 497.33 1101.778 Q 520.922 1067.736 487.487 1042.668 Z " fill="rgb(0,255,42)"/><path d=" M 486.998 1029.837 Q 487.419 1030.905 487.859 1031.939 C 489.31 1035.353 490.912 1038.492 492.663 1041.357 C 493.029 1041.955 493.401 1042.541 493.78 1043.115 C 502.347 1056.103 514.254 1062.963 529.501 1063.695 Q 531.512 1063.792 535.708 1063.665 Q 522.558 1026.647 486.998 1029.837 Z " fill="rgb(0,255,42)"/><path d=" M 478.813 917.368 Q 479.792 918.444 480.778 919.469 C 484.031 922.852 487.338 925.823 490.699 928.381 C 491.401 928.915 492.106 929.431 492.812 929.93 C 508.794 941.198 525.982 943.259 544.375 936.113 Q 546.801 935.17 551.715 932.805 Q 519.51 894.75 478.813 917.368 Z " fill="rgb(0,255,42)"/><path d=" M 480.637 889.929 Q 481.336 890.753 482.041 891.541 C 484.371 894.139 486.751 896.433 489.182 898.421 C 489.689 898.836 490.199 899.238 490.711 899.627 C 502.294 908.415 515.011 910.394 528.864 905.562 Q 530.691 904.925 534.404 903.295 Q 511.464 874.181 480.637 889.929 Z " fill="rgb(0,255,42)"/><path d=" M 478.13 889.692 Q 477.297 890.381 476.463 891.031 C 473.712 893.177 470.964 895.015 468.22 896.542 C 467.647 896.861 467.074 897.167 466.502 897.459 C 453.55 904.065 440.683 903.767 427.901 896.566 Q 426.215 895.616 422.848 893.356 Q 450.567 868.75 478.13 889.692 Z " fill="rgb(0,255,42)"/><path d=" M 476.257 917.17 Q 475.337 918.296 474.409 919.372 C 471.343 922.927 468.2 926.071 464.982 928.807 C 464.31 929.378 463.634 929.932 462.955 930.467 C 447.604 942.581 430.553 945.566 411.801 939.422 Q 409.328 938.612 404.293 936.515 Q 434.4 896.779 476.257 917.17 Z " fill="rgb(0,255,42)"/><path d=" M 485.212 1030.316 Q 484.984 1031.441 484.733 1032.536 C 483.903 1036.152 482.877 1039.524 481.656 1042.651 C 481.401 1043.304 481.138 1043.947 480.865 1044.579 C 474.712 1058.869 464.194 1067.712 449.312 1071.11 Q 447.349 1071.558 443.196 1072.17 Q 449.643 1033.419 485.212 1030.316 Z " fill="rgb(0,255,42)"/><path d=" M 481.902 1004.433 Q 481.378 1005.98 480.826 1007.482 C 479.005 1012.44 476.955 1017.028 474.678 1021.245 C 474.202 1022.125 473.717 1022.989 473.221 1023.837 C 462.015 1043.02 445.723 1053.924 424.347 1056.55 Q 421.528 1056.897 415.624 1057.157 Q 431.734 1003.66 481.902 1004.433 Z " fill="rgb(0,255,42)"/><path d=" M 482.773 1004.384 Q 483.675 1005.746 484.591 1007.057 C 487.618 1011.387 490.77 1015.3 494.047 1018.796 C 494.732 1019.526 495.422 1020.238 496.117 1020.932 C 511.847 1036.62 530.381 1043.008 551.72 1040.093 Q 554.534 1039.709 560.309 1038.455 Q 531.084 990.838 482.773 1004.384 Z " fill="rgb(0,255,42)"/><path d=" M 480.85 976.848 Q 481.819 978.163 482.8 979.427 C 486.041 983.599 489.387 987.348 492.836 990.674 C 493.557 991.368 494.282 992.044 495.011 992.702 C 511.512 1007.578 530.345 1013.022 551.51 1009.036 Q 554.301 1008.51 560.005 1006.966 Q 528.417 960.884 480.85 976.848 Z " fill="rgb(0,255,42)"/><path d=" M 478.807 946.929 Q 479.973 948.073 481.144 949.164 C 485.009 952.765 488.91 955.932 492.846 958.664 C 493.668 959.235 494.492 959.787 495.317 960.32 C 513.98 972.371 533.441 974.74 553.698 967.426 Q 556.37 966.462 561.754 964.027 Q 523.215 923.577 478.807 946.929 Z " fill="rgb(0,255,42)"/><path d=" M 476.89 947.036 Q 475.926 948.354 474.948 949.621 C 471.721 953.803 468.387 957.563 464.948 960.9 C 464.23 961.597 463.507 962.276 462.78 962.936 C 446.327 977.865 427.512 983.37 406.335 979.451 Q 403.542 978.935 397.832 977.409 Q 429.272 931.225 476.89 947.036 Z " fill="rgb(0,255,42)"/><path d=" M 479.266 976.644 Q 478.652 978.158 478.013 979.624 C 475.902 984.467 473.586 988.926 471.064 993.001 C 470.537 993.852 470.002 994.686 469.457 995.503 C 457.14 1013.992 440.234 1023.917 418.74 1025.279 Q 415.905 1025.458 409.996 1025.371 Q 429.231 972.916 479.266 976.644 Z " fill="rgb(0,255,42)"/><path d=" M 492.281 815.103 C 492.659 813.084 491.776 808.92 496.823 807.532 C 503.403 805.723 499.852 805.261 497.959 815.86 C 496.066 826.459 479.789 861.158 478.654 921.85 C 478.133 949.653 480.337 976.416 482.944 1000.207 C 486.121 1029.211 490.082 1053.565 492.786 1067.082 L 489.126 1050.301 Q 483.826 1022.875 481.429 1000.207 C 477.057 958.846 475.654 931.033 476.13 917.308 C 477.323 882.884 482.697 866.215 492.281 815.103 Z " fill="rgb(0,255,42)"/><path d=" M 487.614 570.607 Q 486.97 569.593 486.373 568.587 C 484.402 565.265 482.817 562.007 481.62 558.813 C 481.369 558.146 481.136 557.481 480.92 556.82 C 476.026 541.86 479.758 528.324 492.117 516.214 Q 493.747 514.616 497.457 511.497 Q 521.049 545.539 487.614 570.607 Z " fill="rgb(0,255,42)"/><path d=" M 487.125 583.438 Q 487.547 582.37 487.986 581.336 C 489.438 577.922 491.04 574.783 492.791 571.918 C 493.157 571.32 493.529 570.734 493.908 570.16 C 502.474 557.172 514.381 550.312 529.629 549.58 Q 531.64 549.483 535.836 549.61 Q 522.686 586.628 487.125 583.438 Z " fill="rgb(0,255,42)"/><path d=" M 478.941 695.907 Q 479.92 694.831 480.905 693.806 C 484.158 690.423 487.466 687.452 490.827 684.894 C 491.529 684.36 492.233 683.844 492.94 683.345 C 508.922 672.077 526.11 670.016 544.503 677.162 Q 546.928 678.105 551.843 680.47 Q 519.637 718.525 478.941 695.907 Z " fill="rgb(0,255,42)"/><path d=" M 480.764 723.346 Q 481.463 722.522 482.169 721.734 C 484.498 719.136 486.878 716.842 489.309 714.854 C 489.817 714.439 490.327 714.037 490.839 713.648 C 502.421 704.86 515.139 702.881 528.992 707.713 Q 530.819 708.35 534.532 709.98 Q 511.592 739.094 480.764 723.346 Z " fill="rgb(0,255,42)"/><path d=" M 478.258 723.583 Q 477.424 722.894 476.591 722.244 C 473.839 720.098 471.092 718.26 468.348 716.733 C 467.775 716.414 467.202 716.108 466.629 715.816 C 453.677 709.21 440.81 709.508 428.028 716.709 Q 426.342 717.659 422.975 719.919 Q 450.695 744.525 478.258 723.583 Z " fill="rgb(0,255,42)"/><path d=" M 476.384 696.105 Q 475.465 694.979 474.536 693.903 C 471.47 690.348 468.328 687.204 465.109 684.468 C 464.437 683.897 463.762 683.343 463.083 682.808 C 447.732 670.694 430.68 667.709 411.929 673.853 Q 409.456 674.663 404.421 676.76 Q 434.527 716.496 476.384 696.105 Z " fill="rgb(0,255,42)"/><path d=" M 485.339 582.959 Q 485.112 581.834 484.86 580.739 C 484.03 577.123 483.005 573.751 481.784 570.624 C 481.529 569.971 481.265 569.328 480.993 568.696 C 474.839 554.406 464.321 545.563 449.439 542.165 Q 447.476 541.717 443.323 541.105 Q 449.77 579.856 485.339 582.959 Z " fill="rgb(0,255,42)"/><path d=" M 482.03 608.842 Q 481.506 607.295 480.954 605.793 C 479.132 600.835 477.083 596.247 474.805 592.03 C 474.33 591.15 473.844 590.286 473.349 589.438 C 462.142 570.255 445.851 559.351 424.474 556.725 Q 421.655 556.378 415.751 556.118 Q 431.861 609.615 482.03 608.842 Z " fill="rgb(0,255,42)"/><path d=" M 482.901 608.891 Q 483.802 607.529 484.719 606.218 C 487.745 601.888 490.897 597.975 494.175 594.479 C 494.859 593.749 495.549 593.037 496.245 592.343 C 511.974 576.655 530.509 570.267 551.848 573.182 Q 554.662 573.566 560.437 574.82 Q 531.212 622.437 482.901 608.891 Z " fill="rgb(0,255,42)"/><path d=" M 480.977 636.427 Q 481.946 635.112 482.928 633.848 C 486.169 629.676 489.514 625.927 492.964 622.601 C 493.684 621.907 494.409 621.231 495.139 620.573 C 511.639 605.697 530.472 600.253 551.637 604.239 Q 554.429 604.765 560.133 606.309 Q 528.544 652.391 480.977 636.427 Z " fill="rgb(0,255,42)"/><path d=" M 478.934 666.346 Q 480.1 665.202 481.271 664.111 C 485.136 660.51 489.037 657.343 492.974 654.611 C 493.796 654.04 494.619 653.488 495.444 652.955 C 514.108 640.904 533.568 638.535 553.825 645.849 Q 556.497 646.813 561.882 649.248 Q 523.343 689.698 478.934 666.346 Z " fill="rgb(0,255,42)"/><path d=" M 477.018 666.239 Q 476.053 664.921 475.076 663.654 C 471.848 659.472 468.515 655.712 465.076 652.375 C 464.358 651.678 463.635 650.999 462.908 650.339 C 446.455 635.41 427.64 629.905 406.462 633.824 Q 403.669 634.34 397.96 635.866 Q 429.4 682.05 477.018 666.239 Z " fill="rgb(0,255,42)"/><path d=" M 479.394 636.631 Q 478.78 635.117 478.141 633.651 C 476.03 628.808 473.714 624.349 471.192 620.274 C 470.665 619.423 470.129 618.589 469.585 617.772 C 457.267 599.283 440.361 589.358 418.867 587.996 Q 416.033 587.817 410.124 587.904 Q 429.359 640.359 479.394 636.631 Z " fill="rgb(0,255,42)"/><path d=" M 492.408 798.172 C 492.787 800.191 491.904 804.355 496.951 805.743 C 503.531 807.552 499.979 808.014 498.086 797.415 C 496.194 786.816 479.917 752.117 478.781 691.425 C 478.261 663.622 480.465 636.859 483.071 613.068 C 486.248 584.064 490.21 559.71 492.913 546.193 L 489.254 562.974 Q 483.953 590.4 481.557 613.068 C 477.185 654.429 475.782 682.242 476.258 695.967 C 477.45 730.391 482.825 747.06 492.408 798.172 Z " fill="rgb(0,255,42)"/><path d=" M 720.735 620.569 Q 720.789 619.369 720.877 618.202 C 721.168 614.35 721.74 610.773 722.591 607.469 C 722.769 606.779 722.959 606.102 723.161 605.436 C 727.735 590.374 738.557 581.429 755.628 578.6 Q 757.879 578.227 762.708 577.8 Q 762.502 619.217 720.735 620.569 Z " fill="rgb(0,255,42)"/><path d=" M 712.974 630.798 Q 713.931 630.165 714.885 629.57 C 718.032 627.607 721.145 625.954 724.223 624.613 C 724.865 624.333 725.507 624.066 726.146 623.813 C 740.614 618.09 754.302 619.302 767.211 627.449 Q 768.914 628.524 772.278 631.035 Q 740.271 653.811 712.974 630.798 Z " fill="rgb(0,255,42)"/><path d=" M 641.748 718.223 Q 643.167 717.904 644.562 717.63 C 649.168 716.724 653.581 716.188 657.802 716.022 C 658.683 715.987 659.556 715.968 660.421 715.965 C 679.976 715.905 695.236 724.077 706.202 740.482 Q 707.648 742.645 710.316 747.402 Q 662.106 760.096 641.748 718.223 Z " fill="rgb(0,255,42)"/><path d=" M 627.5 741.744 Q 628.546 741.47 629.575 741.23 C 632.974 740.437 636.239 739.924 639.371 739.691 C 640.025 739.642 640.673 739.605 641.316 739.581 C 655.844 739.027 667.396 744.702 675.971 756.606 Q 677.102 758.176 679.208 761.641 Q 643.716 772.328 627.5 741.744 Z " fill="rgb(0,255,42)"/><path d=" M 625.312 740.5 Q 625.024 739.458 624.714 738.447 C 623.692 735.111 622.495 732.029 621.124 729.204 C 620.838 728.614 620.544 728.035 620.243 727.467 C 613.423 714.626 602.713 707.489 588.113 706.054 Q 586.187 705.865 582.133 705.784 Q 590.721 741.841 625.312 740.5 Z " fill="rgb(0,255,42)"/><path d=" M 639.54 716.919 Q 639.433 715.469 639.29 714.054 C 638.818 709.385 638.048 705.006 636.981 700.919 C 636.759 700.065 636.523 699.225 636.274 698.397 C 630.649 679.668 618.395 667.441 599.512 661.716 Q 597.022 660.961 591.695 659.79 Q 593.558 709.608 639.54 716.919 Z " fill="rgb(0,255,42)"/><path d=" M 711.786 629.381 Q 712.245 628.329 712.667 627.287 C 714.062 623.85 715.156 620.5 715.95 617.237 C 716.116 616.556 716.268 615.879 716.408 615.205 C 719.565 599.97 716.024 586.693 705.784 575.372 Q 704.433 573.879 701.382 570.995 Q 684.432 606.434 711.786 629.381 Z " fill="rgb(0,255,42)"/><path d=" M 694.226 648.683 Q 694.684 647.115 695.094 645.568 C 696.447 640.462 697.4 635.528 697.953 630.768 C 698.069 629.774 698.167 628.788 698.248 627.809 C 700.074 605.668 692.985 587.39 676.983 572.976 Q 674.872 571.075 670.186 567.474 Q 652.691 620.534 694.226 648.683 Z " fill="rgb(0,255,42)"/><path d=" M 694.911 649.223 Q 696.431 648.624 697.934 648.075 C 702.897 646.265 707.724 644.869 712.414 643.886 C 713.393 643.68 714.367 643.493 715.334 643.324 C 737.218 639.497 756.064 644.899 771.87 659.528 Q 773.955 661.457 777.965 665.797 Q 726.711 688.033 694.911 649.223 Z " fill="rgb(0,255,42)"/><path d=" M 677.539 670.673 Q 679.087 670.151 680.616 669.68 C 685.664 668.122 690.555 666.97 695.289 666.225 C 696.277 666.07 697.259 665.932 698.234 665.811 C 720.283 663.093 738.832 669.438 753.88 684.845 Q 755.865 686.877 759.652 691.414 Q 707.341 711.037 677.539 670.673 Z " fill="rgb(0,255,42)"/><path d=" M 658.701 694.007 Q 660.313 693.739 661.897 693.517 C 667.129 692.785 672.141 692.429 676.933 692.449 C 677.934 692.453 678.925 692.474 679.907 692.51 C 702.107 693.346 719.405 702.57 731.802 720.182 Q 733.437 722.505 736.451 727.588 Q 681.679 738.61 658.701 694.007 Z " fill="rgb(0,255,42)"/><path d=" M 657.193 692.82 Q 657.159 691.186 657.085 689.588 C 656.841 684.311 656.268 679.319 655.365 674.613 C 655.177 673.63 654.974 672.66 654.757 671.702 C 649.846 650.035 637.593 634.732 617.999 625.792 Q 615.415 624.613 609.863 622.587 Q 609.12 678.452 657.193 692.82 Z " fill="rgb(0,255,42)"/><path d=" M 676.125 669.932 Q 676.49 668.339 676.808 666.771 C 677.858 661.594 678.518 656.613 678.79 651.829 C 678.847 650.83 678.887 649.839 678.91 648.857 C 679.428 626.647 671.274 608.819 654.45 595.373 Q 652.231 593.599 647.341 590.281 Q 633.004 644.28 676.125 669.932 Z " fill="rgb(0,255,42)"/><path d=" M 595.422 804.771 C 594.574 806.642 596.619 811.086 601.15 801.318 C 603.547 796.151 607.078 787.82 613.441 771.587 C 619.104 757.14 628.231 738.177 644.189 714.46 C 659.712 691.39 676.872 670.733 692.655 652.741 C 711.896 630.807 729.113 613.132 739.081 603.611 L 726.457 615.258 Q 706.381 634.681 691.415 651.872 C 664.105 683.242 647 705.218 639.516 716.733 C 620.744 745.613 616.895 757.408 595.422 804.771 Z " fill="rgb(0,255,42)"/><path d=" M 720.808 991.685 Q 720.862 992.885 720.951 994.052 C 721.242 997.903 721.813 1001.481 722.665 1004.784 C 722.842 1005.474 723.032 1006.152 723.235 1006.818 C 727.808 1021.879 738.631 1030.825 755.701 1033.654 Q 757.953 1034.027 762.781 1034.454 Q 762.575 993.036 720.808 991.685 Z " fill="rgb(0,255,42)"/><path d=" M 713.047 981.456 Q 714.005 982.089 714.958 982.683 C 718.106 984.647 721.218 986.299 724.296 987.641 C 724.939 987.921 725.58 988.188 726.22 988.441 C 740.687 994.164 754.376 992.952 767.285 984.804 Q 768.987 983.73 772.352 981.219 Q 740.344 958.442 713.047 981.456 Z " fill="rgb(0,255,42)"/><path d=" M 641.822 894.031 Q 643.24 894.35 644.635 894.624 C 649.241 895.529 653.654 896.065 657.875 896.232 C 658.756 896.267 659.629 896.286 660.494 896.288 C 680.049 896.349 695.309 888.177 706.275 871.772 Q 707.721 869.608 710.39 864.852 Q 662.18 852.158 641.822 894.031 Z " fill="rgb(0,255,42)"/><path d=" M 627.573 870.51 Q 628.619 870.784 629.649 871.024 C 633.047 871.816 636.313 872.329 639.445 872.563 C 640.098 872.612 640.747 872.649 641.389 872.673 C 655.918 873.227 667.469 867.551 676.044 855.647 Q 677.175 854.077 679.281 850.612 Q 643.789 839.926 627.573 870.51 Z " fill="rgb(0,255,42)"/><path d=" M 625.385 871.754 Q 625.097 872.796 624.787 873.806 C 623.765 877.143 622.569 880.224 621.198 883.05 C 620.911 883.64 620.617 884.219 620.316 884.786 C 613.497 897.627 602.787 904.765 588.186 906.2 Q 586.261 906.389 582.206 906.47 Q 590.794 870.412 625.385 871.754 Z " fill="rgb(0,255,42)"/><path d=" M 639.613 895.334 Q 639.507 896.785 639.364 898.199 C 638.891 902.869 638.122 907.248 637.055 911.335 C 636.832 912.188 636.596 913.029 636.348 913.857 C 630.723 932.586 618.469 944.813 599.585 950.538 Q 597.095 951.293 591.768 952.464 Q 593.631 902.645 639.613 895.334 Z " fill="rgb(0,255,42)"/><path d=" M 711.859 982.873 Q 712.318 983.925 712.74 984.966 C 714.135 988.404 715.229 991.754 716.023 995.016 C 716.189 995.697 716.342 996.375 716.481 997.048 C 719.639 1012.283 716.097 1025.561 705.857 1036.882 Q 704.506 1038.375 701.456 1041.259 Q 684.505 1005.819 711.859 982.873 Z " fill="rgb(0,255,42)"/><path d=" M 694.299 963.571 Q 694.758 965.139 695.167 966.686 C 696.52 971.792 697.473 976.725 698.027 981.486 C 698.142 982.479 698.24 983.466 698.321 984.445 C 700.147 1006.586 693.059 1024.864 677.056 1039.278 Q 674.946 1041.179 670.26 1044.779 Q 652.764 991.719 694.299 963.571 Z " fill="rgb(0,255,42)"/><path d=" M 694.985 963.031 Q 696.504 963.63 698.008 964.178 C 702.97 965.988 707.797 967.385 712.487 968.368 C 713.467 968.573 714.44 968.76 715.408 968.93 C 737.292 972.756 756.137 967.355 771.943 952.726 Q 774.028 950.797 778.039 946.456 Q 726.784 924.221 694.985 963.031 Z " fill="rgb(0,255,42)"/><path d=" M 677.612 941.581 Q 679.161 942.102 680.689 942.574 C 685.737 944.132 690.628 945.283 695.362 946.028 C 696.35 946.184 697.332 946.322 698.307 946.442 C 720.356 949.16 738.905 942.816 753.954 927.408 Q 755.938 925.376 759.725 920.839 Q 707.415 901.216 677.612 941.581 Z " fill="rgb(0,255,42)"/><path d=" M 658.775 918.247 Q 660.386 918.515 661.971 918.736 C 667.202 919.469 672.214 919.825 677.007 919.805 C 678.007 919.801 678.998 919.78 679.98 919.743 C 702.18 918.907 719.479 909.683 731.875 892.072 Q 733.51 889.749 736.524 884.666 Q 681.752 873.643 658.775 918.247 Z " fill="rgb(0,255,42)"/><path d=" M 657.266 919.434 Q 657.233 921.067 657.159 922.665 C 656.915 927.942 656.341 932.934 655.439 937.641 C 655.25 938.623 655.048 939.594 654.83 940.552 C 649.919 962.218 637.666 977.521 618.072 986.461 Q 615.488 987.64 609.937 989.666 Q 609.193 933.801 657.266 919.434 Z " fill="rgb(0,255,42)"/><path d=" M 676.198 942.322 Q 676.564 943.914 676.882 945.482 C 677.931 950.66 678.592 955.641 678.864 960.425 C 678.92 961.424 678.96 962.415 678.983 963.397 C 679.501 985.607 671.348 1003.435 654.524 1016.881 Q 652.305 1018.654 647.415 1021.972 Q 633.077 967.973 676.198 942.322 Z " fill="rgb(0,255,42)"/><path d=" M 594.982 807.853 C 594.134 805.982 596.693 801.168 601.223 810.935 C 603.62 816.103 607.152 824.434 613.515 840.666 C 619.178 855.114 628.304 874.077 644.262 897.793 C 659.786 920.864 676.945 941.521 692.728 959.513 C 711.969 981.446 729.186 999.122 739.155 1008.642 L 726.53 996.996 Q 706.455 977.573 691.488 960.381 C 664.179 929.012 647.074 907.035 639.589 895.52 C 620.818 866.64 616.455 855.216 594.982 807.853 Z " fill="rgb(0,255,42)"/><path d=" M 286.737 1042.751 Q 286.093 1043.765 285.496 1044.771 C 283.525 1048.093 281.94 1051.351 280.743 1054.545 C 280.493 1055.212 280.259 1055.876 280.043 1056.538 C 275.149 1071.498 278.881 1085.033 291.24 1097.144 Q 292.87 1098.741 296.58 1101.861 Q 320.172 1067.818 286.737 1042.751 Z " fill="rgb(0,255,42)"/><path d=" M 286.248 1029.92 Q 286.67 1030.987 287.109 1032.021 C 288.561 1035.435 290.163 1038.575 291.914 1041.439 C 292.28 1042.037 292.652 1042.623 293.031 1043.198 C 301.597 1056.185 313.505 1063.045 328.752 1063.778 Q 330.763 1063.874 334.959 1063.748 Q 321.809 1026.73 286.248 1029.92 Z " fill="rgb(0,255,42)"/><path d=" M 278.064 917.451 Q 279.043 918.526 280.028 919.551 C 283.281 922.935 286.589 925.906 289.95 928.464 C 290.652 928.998 291.356 929.514 292.063 930.012 C 308.045 941.28 325.233 943.341 343.626 936.195 Q 346.051 935.253 350.966 932.888 Q 318.761 894.833 278.064 917.451 Z " fill="rgb(0,255,42)"/><path d=" M 279.887 890.012 Q 280.587 890.836 281.292 891.623 C 283.621 894.222 286.002 896.515 288.433 898.504 C 288.94 898.919 289.45 899.321 289.962 899.709 C 301.545 908.498 314.262 910.476 328.115 905.645 Q 329.942 905.008 333.655 903.378 Q 310.715 874.264 279.887 890.012 Z " fill="rgb(0,255,42)"/><path d=" M 277.381 889.775 Q 276.547 890.463 275.714 891.113 C 272.963 893.26 270.215 895.097 267.471 896.625 C 266.898 896.944 266.325 897.25 265.752 897.542 C 252.8 904.147 239.933 903.849 227.151 896.648 Q 225.466 895.699 222.098 893.439 Q 249.818 868.832 277.381 889.775 Z " fill="rgb(0,255,42)"/><path d=" M 275.507 917.252 Q 274.588 918.379 273.659 919.455 C 270.593 923.009 267.451 926.154 264.232 928.89 C 263.56 929.461 262.885 930.014 262.206 930.55 C 246.855 942.663 229.803 945.648 211.052 939.504 Q 208.579 938.694 203.544 936.597 Q 233.65 896.861 275.507 917.252 Z " fill="rgb(0,255,42)"/><path d=" M 284.462 1030.399 Q 284.235 1031.524 283.983 1032.619 C 283.154 1036.235 282.128 1039.606 280.907 1042.734 C 280.652 1043.387 280.388 1044.029 280.116 1044.661 C 273.962 1058.951 263.445 1067.795 248.562 1071.193 Q 246.6 1071.641 242.446 1072.253 Q 248.894 1033.501 284.462 1030.399 Z " fill="rgb(0,255,42)"/><path d=" M 281.153 1004.515 Q 280.629 1006.063 280.077 1007.564 C 278.256 1012.523 276.206 1017.111 273.929 1021.327 C 273.453 1022.207 272.967 1023.072 272.472 1023.92 C 261.266 1043.103 244.974 1054.007 223.598 1056.633 Q 220.778 1056.979 214.875 1057.24 Q 230.985 1003.743 281.153 1004.515 Z " fill="rgb(0,255,42)"/><path d=" M 282.024 1004.466 Q 282.925 1005.829 283.842 1007.14 C 286.868 1011.47 290.02 1015.383 293.298 1018.879 C 293.983 1019.609 294.673 1020.32 295.368 1021.014 C 311.098 1036.703 329.632 1043.09 350.971 1040.176 Q 353.785 1039.791 359.56 1038.537 Q 330.335 990.92 282.024 1004.466 Z " fill="rgb(0,255,42)"/><path d=" M 280.101 976.931 Q 281.069 978.246 282.051 979.509 C 285.292 983.681 288.637 987.43 292.087 990.756 C 292.808 991.451 293.533 992.127 294.262 992.785 C 310.763 1007.66 329.595 1013.105 350.76 1009.118 Q 353.552 1008.592 359.256 1007.049 Q 327.667 960.966 280.101 976.931 Z " fill="rgb(0,255,42)"/><path d=" M 278.057 947.012 Q 279.224 948.155 280.394 949.246 C 284.259 952.847 288.16 956.014 292.097 958.747 C 292.919 959.318 293.743 959.869 294.568 960.402 C 313.231 972.454 332.691 974.823 352.949 967.509 Q 355.62 966.544 361.005 964.11 Q 322.466 923.66 278.057 947.012 Z " fill="rgb(0,255,42)"/><path d=" M 276.141 947.119 Q 275.176 948.437 274.199 949.704 C 270.972 953.886 267.638 957.646 264.199 960.983 C 263.481 961.68 262.758 962.358 262.031 963.018 C 245.578 977.947 226.763 983.452 205.585 979.534 Q 202.792 979.017 197.083 977.492 Q 228.523 931.308 276.141 947.119 Z " fill="rgb(0,255,42)"/><path d=" M 278.517 976.727 Q 277.903 978.24 277.264 979.707 C 275.153 984.55 272.837 989.009 270.315 993.083 C 269.788 993.934 269.253 994.768 268.708 995.586 C 256.39 1014.075 239.485 1024 217.99 1025.361 Q 215.156 1025.541 209.247 1025.453 Q 228.482 972.999 278.517 976.727 Z " fill="rgb(0,255,42)"/><path d=" M 291.532 815.185 C 291.91 813.167 291.027 809.003 296.074 807.615 C 302.654 805.805 299.102 805.343 297.21 815.942 C 295.317 826.541 279.04 861.241 277.904 921.933 C 277.384 949.735 279.588 976.499 282.194 1000.29 C 285.371 1029.294 289.333 1053.648 292.036 1067.165 L 288.377 1050.383 Q 283.076 1022.957 280.68 1000.29 C 276.308 958.929 274.905 931.116 275.381 917.39 C 276.574 882.966 281.948 866.298 291.532 815.185 Z " fill="rgb(0,255,42)"/><path d=" M 286.858 570.607 Q 286.214 569.593 285.617 568.587 C 283.646 565.265 282.061 562.007 280.864 558.813 C 280.614 558.146 280.38 557.481 280.164 556.82 C 275.27 541.86 279.002 528.324 291.361 516.214 Q 292.991 514.616 296.701 511.497 Q 320.293 545.539 286.858 570.607 Z " fill="rgb(0,255,42)"/><path d=" M 286.369 583.438 Q 286.791 582.37 287.23 581.336 C 288.682 577.922 290.284 574.783 292.035 571.918 C 292.401 571.32 292.773 570.734 293.152 570.16 C 301.718 557.172 313.626 550.312 328.873 549.58 Q 330.884 549.483 335.08 549.61 Q 321.93 586.628 286.369 583.438 Z " fill="rgb(0,255,42)"/><path d=" M 278.185 695.907 Q 279.164 694.831 280.149 693.806 C 283.402 690.423 286.71 687.452 290.071 684.894 C 290.773 684.36 291.477 683.844 292.184 683.345 C 308.166 672.077 325.354 670.016 343.747 677.162 Q 346.172 678.105 351.087 680.47 Q 318.882 718.525 278.185 695.907 Z " fill="rgb(0,255,42)"/><path d=" M 280.008 723.346 Q 280.707 722.522 281.413 721.734 C 283.742 719.136 286.122 716.842 288.553 714.854 C 289.061 714.439 289.571 714.037 290.083 713.648 C 301.666 704.86 314.383 702.881 328.236 707.713 Q 330.063 708.35 333.776 709.98 Q 310.836 739.094 280.008 723.346 Z " fill="rgb(0,255,42)"/><path d=" M 277.502 723.583 Q 276.668 722.894 275.835 722.244 C 273.083 720.098 270.336 718.26 267.592 716.733 C 267.019 716.414 266.446 716.108 265.873 715.816 C 252.921 709.21 240.054 709.508 227.272 716.709 Q 225.586 717.659 222.219 719.919 Q 249.939 744.525 277.502 723.583 Z " fill="rgb(0,255,42)"/><path d=" M 275.628 696.105 Q 274.709 694.979 273.78 693.903 C 270.714 690.348 267.572 687.204 264.353 684.468 C 263.681 683.897 263.006 683.343 262.327 682.808 C 246.976 670.694 229.924 667.709 211.173 673.853 Q 208.7 674.663 203.665 676.76 Q 233.771 716.496 275.628 696.105 Z " fill="rgb(0,255,42)"/><path d=" M 284.583 582.959 Q 284.356 581.834 284.104 580.739 C 283.274 577.123 282.249 573.751 281.028 570.624 C 280.773 569.971 280.509 569.328 280.237 568.696 C 274.083 554.406 263.565 545.563 248.683 542.165 Q 246.72 541.717 242.567 541.105 Q 249.015 579.856 284.583 582.959 Z " fill="rgb(0,255,42)"/><path d=" M 281.274 608.842 Q 280.75 607.295 280.198 605.793 C 278.377 600.835 276.327 596.247 274.049 592.03 C 273.574 591.15 273.088 590.286 272.593 589.438 C 261.387 570.255 245.095 559.351 223.718 556.725 Q 220.899 556.378 214.996 556.118 Q 231.105 609.615 281.274 608.842 Z " fill="rgb(0,255,42)"/><path d=" M 282.145 608.891 Q 283.046 607.529 283.963 606.218 C 286.989 601.888 290.141 597.975 293.419 594.479 C 294.104 593.749 294.794 593.037 295.489 592.343 C 311.218 576.655 329.753 570.267 351.092 573.182 Q 353.906 573.566 359.681 574.82 Q 330.456 622.437 282.145 608.891 Z " fill="rgb(0,255,42)"/><path d=" M 280.222 636.427 Q 281.19 635.112 282.172 633.848 C 285.413 629.676 288.758 625.927 292.208 622.601 C 292.928 621.907 293.653 621.231 294.383 620.573 C 310.883 605.697 329.716 600.253 350.881 604.239 Q 353.673 604.765 359.377 606.309 Q 327.788 652.391 280.222 636.427 Z " fill="rgb(0,255,42)"/><path d=" M 278.178 666.346 Q 279.345 665.202 280.515 664.111 C 284.38 660.51 288.281 657.343 292.218 654.611 C 293.04 654.04 293.863 653.488 294.689 652.955 C 313.352 640.904 332.812 638.535 353.07 645.849 Q 355.741 646.813 361.126 649.248 Q 322.587 689.698 278.178 666.346 Z " fill="rgb(0,255,42)"/><path d=" M 276.262 666.239 Q 275.297 664.921 274.32 663.654 C 271.092 659.472 267.759 655.712 264.32 652.375 C 263.602 651.678 262.879 650.999 262.152 650.339 C 245.699 635.41 226.884 629.905 205.706 633.824 Q 202.913 634.34 197.204 635.866 Q 228.644 682.05 276.262 666.239 Z " fill="rgb(0,255,42)"/><path d=" M 278.638 636.631 Q 278.024 635.117 277.385 633.651 C 275.274 628.808 272.958 624.349 270.436 620.274 C 269.909 619.423 269.373 618.589 268.829 617.772 C 256.511 599.283 239.606 589.358 218.111 587.996 Q 215.277 587.817 209.368 587.904 Q 228.603 640.359 278.638 636.631 Z " fill="rgb(0,255,42)"/><path d=" M 291.653 798.172 C 292.031 800.191 291.148 804.355 296.195 805.743 C 302.775 807.552 299.223 808.014 297.331 797.415 C 295.438 786.816 279.161 752.117 278.025 691.425 C 277.505 663.622 279.709 636.859 282.315 613.068 C 285.492 584.064 289.454 559.71 292.157 546.193 L 288.498 562.974 Q 283.197 590.4 280.801 613.068 C 276.429 654.429 275.026 682.242 275.502 695.967 C 276.695 730.391 282.069 747.06 291.653 798.172 Z " fill="rgb(0,255,42)"/><path d=" M 597.11 804.602 C 600.118 805.665 600.111 806.698 597.11 807.684 L 193.25 808.9 L 193.25 803.422 L 597.11 804.602 Z " fill="rgb(0,254,43)"/></g></g></g></g></g></g><g><g><g><g><g><path d=" M 1015 1718 L 996.667 1675.333 C 964.787 1603.376 915.463 1565.719 848.667 1562.333 C 838.213 1562.172 825.112 1557.96 809.333 1549.667 C 820.265 1561.546 826.941 1571.334 829.333 1579 C 841.344 1617.122 852.91 1642.688 864 1655.667 C 877.427 1673.635 903.771 1687.312 943 1696.667 L 1015 1718 Z " fill="rgb(1,254,42)"/><path d=" M 1014 1723.5 C 985.276 1709.409 956.036 1706.919 926.25 1716 C 910.132 1720.595 890.642 1734.605 867.75 1758 C 854.268 1770.398 841.528 1778.158 829.5 1781.25 C 880.69 1786.268 914.71 1787.538 931.5 1785 C 974.633 1781.032 1002.143 1760.542 1014 1723.5 Z " fill="rgb(1,254,42)"/><path d=" M 1023.75 1718.667 L 1042.083 1676 C 1073.963 1604.042 1123.287 1566.386 1190.083 1563 C 1200.537 1562.839 1213.638 1558.627 1229.417 1550.333 C 1218.485 1562.213 1211.809 1572.001 1209.417 1579.667 C 1197.406 1617.789 1185.84 1643.355 1174.75 1656.333 C 1161.323 1674.302 1134.979 1687.978 1095.75 1697.333 L 1023.75 1718.667 Z " fill="rgb(1,254,42)"/><path d=" M 1024.75 1724.167 C 1053.474 1710.076 1082.714 1707.586 1112.5 1716.667 C 1128.618 1721.262 1148.108 1735.272 1171 1758.667 C 1184.481 1771.065 1197.221 1778.825 1209.25 1781.917 C 1158.06 1786.935 1124.04 1788.205 1107.25 1785.667 C 1064.117 1781.698 1036.607 1761.208 1024.75 1724.167 Z " fill="rgb(0,254,43)"/><path d=" M 1018.014 1713.885 C 987.662 1652.553 972.379 1608.808 972.131 1582.625 C 970.314 1542.821 982.689 1512.061 1009.223 1490.32 C 1009.957 1489.835 1011.935 1486.381 1012.827 1485.031 C 1015.56 1480.895 1017.778 1473.123 1021.715 1454.649 C 1023.159 1472.01 1026.641 1483.134 1032.127 1487.997 C 1058.386 1518.364 1071.553 1546.269 1071.592 1571.686 C 1063.625 1623.581 1045.777 1670.989 1018.014 1713.885 Z " fill="rgb(0,254,43)"/><path d=" M 1015.5 1703.5 L 1023 1703.5 C 1016.506 1742.214 1024.849 1788.224 1048 1841.5 C 1043.013 1837.074 1038.134 1836.473 1033.333 1839.667 C 1020.677 1790.51 1012.52 1749.353 1015.5 1703.5 Z " fill="rgb(1,254,42)"/></g></g><path d=" M 997.333 1729.333 C 960.733 1746.073 918.743 1759.638 871.333 1770 Q 948 1759.333 997.333 1729.333 Z " fill="rgb(0,187,42)"/><path d=" M 1041.208 1732.083 C 1077.809 1748.823 1119.799 1762.388 1167.208 1772.75 Q 1090.542 1762.083 1041.208 1732.083 Z " fill="rgb(0,187,42)"/><path d=" M 984.598 1694.671 C 949.425 1657.75 906.412 1621.402 855.507 1585.645 Q 940.7 1636.979 984.598 1694.671 Z " fill="rgb(0,187,42)"/><path d=" M 1055.507 1689.338 C 1090.68 1652.417 1133.693 1616.069 1184.598 1580.311 Q 1099.405 1631.646 1055.507 1689.338 Z " fill="rgb(0,187,42)"/><path d=" M 1018 1516.667 C 1007.551 1567.551 1008.682 1622.682 1017.333 1684.667 C 1013.222 1632.698 1013.475 1576.728 1018 1516.667 Z " fill="rgb(0,186,43)"/></g></g></g></g><defs><image width="300" height="456" xlink:href="cloud://id=GQANzUgDH" id="img_9WwLnrbhnltZiYcPn4W6GocktPeP57M2"/><image width="400" height="396" xlink:href="cloud://id=dB170eL9R" id="img_gustNhMm9yf3khyxvuBUky4B3QXydBmm"/></defs></svg>