<?xml version="1.0" encoding="UTF-8" standalone="no"?><!-- Generator: Gravit.io --><svg xmlns="http://www.w3.org/2000/svg" xmlns:xlink="http://www.w3.org/1999/xlink" style="isolation:isolate" viewBox="348.491 2035.675 433 780" width="433pt" height="780pt"><defs><clipPath id="_clipPath_qVyBxYX5xPeLACnQF9EXnAHUABSgO5Ee"><rect width="1440" height="3072"/></clipPath></defs><g clip-path="url(#_clipPath_qVyBxYX5xPeLACnQF9EXnAHUABSgO5Ee)"><defs><mask id="_mask_B22F4cxa4wUauYA5CZQ1Q50AFX9OtshX"><path d="M 707 26 L 1007 26 L 1007 482 L 707 482 L 707 26 Z" style="stroke:black;fill:white;stroke-miterlimit:10;"/></mask><mask id="_mask_wMmQR70njVJUBsQgiJ9v9frctpdR7V46"><path d="M 707 26 L 1007 26 L 1007 482 L 707 482 L 707 26 Z" style="stroke:black;fill:white;stroke-miterlimit:10;"/></mask></defs><g mask="url(#_mask_wMmQR70njVJUBsQgiJ9v9frctpdR7V46)"><g mask="url(#_mask_B22F4cxa4wUauYA5CZQ1Q50AFX9OtshX)"/></g><g mask="url(#_mask_B22F4cxa4wUauYA5CZQ1Q50AFX9OtshX)"><use xlink:href="#img_9WwLnrbhnltZiYcPn4W6GocktPeP57M2" transform="matrix(1,0,0,1,707,26)" preserveAspectRatio="none" style=""/></g><defs><mask id="_mask_c8EWPTlg2qwMbtjRCKeCfG7x2GiwIs3O"><path d="M 1010 46 L 1410 46 L 1410 442 L 1010 442 L 1010 46 Z" style="stroke:black;fill:white;stroke-miterlimit:10;"/></mask><mask id="_mask_M1tyhUMhdBU6D66Te2jSyHtgfxzsRuRM"><path d="M 1010 46 L 1410 46 L 1410 442 L 1010 442 L 1010 46 Z" style="stroke:black;fill:white;stroke-miterlimit:10;"/></mask></defs><g mask="url(#_mask_M1tyhUMhdBU6D66Te2jSyHtgfxzsRuRM)"><g mask="url(#_mask_c8EWPTlg2qwMbtjRCKeCfG7x2GiwIs3O)"/></g><g mask="url(#_mask_c8EWPTlg2qwMbtjRCKeCfG7x2GiwIs3O)"><use xlink:href="#img_gustNhMm9yf3khyxvuBUky4B3QXydBmm" transform="matrix(1,0,0,1,1010,46)" preserveAspectRatio="none" style=""/></g><defs><mask id="_mask_YJbgg5hjrstYE3oPHUzCBDLetlK0WEkG"><path d="M 634.363 639.615 L 879.46 466.62 L 993.637 628.385 L 748.54 801.38 L 634.363 639.615 Z" style="stroke:black;fill:white;stroke-miterlimit:10;"/></mask><mask id="_mask_Yfqo9LIl4dn8iMoTLOFt1e8E51mUgAFb"><path d="M 634.363 639.615 L 879.46 466.62 L 993.637 628.385 L 748.54 801.38 L 634.363 639.615 Z" style="stroke:black;fill:white;stroke-miterlimit:10;"/></mask></defs><g mask="url(#_mask_Yfqo9LIl4dn8iMoTLOFt1e8E51mUgAFb)"><g mask="url(#_mask_YJbgg5hjrstYE3oPHUzCBDLetlK0WEkG)"/></g><g mask="url(#_mask_YJbgg5hjrstYE3oPHUzCBDLetlK0WEkG)"><use xlink:href="#img_mYtlHbfBh46MLAtcJJb0UYcE1KYioh4Z" transform="matrix(0.817,-0.577,0.577,0.817,634.363,639.615)" preserveAspectRatio="none" style=""/></g><defs><mask id="_mask_nuf7OsA1GP6W3yCEvz3Ks73SJG0vEEbY"><path d="M 31 32 L 481 32 L 481 259 L 31 259 L 31 32 Z" style="stroke:black;fill:white;stroke-miterlimit:10;"/></mask><mask id="_mask_kUdJso8VDvZKqo4c2gn7I6bKyc6229P9"><path d="M 31 32 L 481 32 L 481 259 L 31 259 L 31 32 Z" style="stroke:black;fill:white;stroke-miterlimit:10;"/></mask></defs><g mask="url(#_mask_kUdJso8VDvZKqo4c2gn7I6bKyc6229P9)"><g mask="url(#_mask_nuf7OsA1GP6W3yCEvz3Ks73SJG0vEEbY)"/></g><g mask="url(#_mask_nuf7OsA1GP6W3yCEvz3Ks73SJG0vEEbY)"><use xlink:href="#img_PF2NZztFrhPyq6h8XwAul5mhW2PdhAN4" transform="matrix(1,0,0,1,31,32)" preserveAspectRatio="none" style=""/></g><path d=" M 83 698.687 L 84 706.687 Q 115 710.687 143 695.687 Q 219.5 794.187 324 748.687 Q 428.5 703.187 532 584.687 Q 203 459.687 143 676.687 Q 138 699.687 83 698.687 Z " fill="rgb(0,255,0)"/><rect x="654.5" y="860" width="1" height="1" transform="matrix(1,0,0,1,0,0)" fill="rgb(0,255,0)"/><path d=" M 171 676 Q 285.636 586.424 436 597 Q 282.909 606.545 171 676 Z " fill="rgb(1,164,1)"/><path d=" M 33.182 1187.682 C 43.475 1188.349 56.78 1185.675 63.864 1178.591 C 67.142 1178.591 80.835 1167.907 82.045 1166.091 C 84.304 1162.704 89.278 1164.54 91.136 1162.682 C 99.444 1154.374 99.091 1150.125 99.091 1137.682 C 99.091 1126.82 107.253 1112.198 110.455 1104.727 C 111.122 1103.17 111.97 1101.697 112.727 1100.182 C 113.419 1098.798 117.273 1093.178 117.273 1092.227 C 117.273 1087.055 122.002 1082.292 122.955 1080.864 C 127.681 1073.775 125 1059.5 129.773 1054.727 C 137.274 1047.226 134.318 1026.35 134.318 1017.227 C 134.318 1011.503 138.587 1009.827 140 1007 C 143.429 1000.142 148.881 985.928 154.773 982 C 167.64 973.422 177.434 981.967 186.591 986.545 C 197.218 991.859 204.609 1005.7 211.591 1012.682 C 213.864 1014.955 216.136 1017.227 218.409 1019.5 C 230.415 1031.506 234.318 1012.548 234.318 1002.455 C 234.318 985.732 251.364 972.326 251.364 957 C 251.364 945.334 252.5 934.86 252.5 924.045 C 252.5 911.178 252.043 896.093 260.455 887.682 C 274.836 873.301 275.452 866.091 295.682 866.091 C 297.955 866.091 300.227 866.091 302.5 866.091 C 320.903 866.091 326.48 886.779 330.909 895.636 C 335.608 905.035 334.246 914.81 337.727 921.773 C 338.307 922.931 341.136 929.578 341.136 930.864 C 341.136 937.675 346.029 959.62 349.091 962.682 C 352.645 966.236 351.931 970.351 353.636 972.909 C 354.703 974.509 356.554 980.033 357.045 982 C 357.556 984.042 358.189 995.644 359.318 996.773 C 364.35 1001.805 363.19 1003.591 371.818 1003.591 C 374.434 1003.591 380.313 1003.105 380.909 1001.318 C 382.821 995.584 385.075 992.228 386.591 989.955 C 388.4 987.24 390.796 984.954 392.273 982 C 394.834 976.877 396.86 968.869 400.227 963.818 C 409.336 950.155 408.182 936.181 408.182 924.045 C 408.182 911.886 413.795 904.865 418.409 895.636 C 419.888 892.678 425.227 885.489 425.227 882 C 425.227 871.822 424.196 844.395 430.909 837.682 C 440.191 828.4 452.243 814.698 463.864 826.318 C 472.797 835.252 480.305 841.091 492.273 841.091 C 505.55 841.091 514.36 825.253 525.227 824.045 C 528.795 823.649 530.961 822.909 534.318 822.909 C 543.548 822.909 535.47 822.785 546.818 824.045 C 550.387 824.442 552.818 821.272 554.773 825.182 C 558.159 831.954 559.419 839.021 562.727 845.636 C 568.963 858.108 575.227 866.77 575.227 879.727 C 575.227 883.894 575.227 886.924 575.227 889.955 C 575.227 897.899 570.682 905.116 570.682 911.545 C 570.682 922.563 554.843 937.541 550.227 946.773 C 543.241 960.746 542.273 967.281 542.273 980.864 C 542.273 995.632 559.147 990.608 565 987.682 C 578.059 981.152 575.441 967.914 587.727 963.818 C 607.096 957.362 622.528 949.259 636.591 942.227 C 650.516 935.265 665.339 936.791 677.5 938.818 C 711.553 944.494 715 953.241 715 971.773 C 715 985.386 711.591 997.472 711.591 1008.136 C 711.591 1017.534 723.359 1017.632 728.636 1022.909 C 734.183 1028.456 740.427 1032.427 745.682 1037.682 C 756.794 1048.794 752.5 1061.353 752.5 1071.773 C 752.5 1075.958 750.38 1080.711 749.091 1082 C 749.091 1082 735.455 1100.182 735.455 1100.182 C 728.558 1100.182 732.907 1117.344 734.318 1120.636 C 737.278 1127.543 744.545 1128.026 744.545 1137.682 C 744.545 1158.828 753.047 1173.204 737.727 1180.864 C 724.931 1187.262 712.439 1199.045 699.091 1199.045 C 685.219 1199.045 671.895 1201.318 659.318 1201.318 C 643.149 1201.318 624.091 1195.648 624.091 1213.818 C 624.091 1224.84 629.62 1234.12 637.727 1242.227 C 645.166 1249.666 655.465 1264.707 651.364 1272.909 C 647.752 1280.132 638.749 1297.909 632.045 1297.909 C 628.268 1297.909 625.208 1302.464 622.955 1303.591 C 615.647 1307.244 606.355 1305.864 597.955 1305.864 C 588.673 1305.864 574.091 1318.854 574.091 1327.455 C 574.091 1344.866 558.586 1344.5 546.818 1344.5 C 542.645 1344.5 539.031 1340.122 537.727 1338.818 C 529.153 1330.244 520.46 1319.352 510.455 1312.682 C 495.166 1302.49 488.523 1288.478 478.636 1278.591 C 469.873 1269.827 464.665 1255.128 454.773 1250.182 C 443.494 1244.542 442.963 1223.599 436.591 1217.227 C 433.567 1214.204 432.764 1207.718 430.909 1205.864 C 428.738 1203.692 425.077 1202.004 424.091 1199.045 C 423.601 1197.577 421.301 1189.955 420.682 1189.955 C 416.837 1189.955 414.263 1177.455 412.727 1177.455 C 410.081 1177.455 403.636 1183.331 403.636 1185.409 C 403.636 1195.068 404.457 1208.957 409.318 1213.818 C 416.868 1221.368 416.375 1235.647 421.818 1241.091 C 428.795 1248.068 427.5 1264.488 427.5 1272.909 C 427.5 1286.893 427.375 1294.625 419.545 1302.455 C 412.218 1309.782 399.867 1312.682 391.136 1312.682 C 388.041 1312.682 376.995 1314.45 375.227 1312.682 C 373.166 1310.621 367.84 1310.124 366.136 1309.273 C 359.17 1305.79 353.668 1297.941 349.091 1293.364 C 347.7 1291.973 344.837 1286.123 343.409 1285.409 C 332.656 1280.033 321.591 1259.954 317.273 1251.318 C 312.391 1241.554 304.245 1229.199 299.091 1224.045 C 295.491 1220.446 293.748 1218.703 291.136 1216.091 C 288.604 1213.558 285.85 1210.805 283.182 1208.136 C 278.323 1203.277 262.727 1208.608 262.727 1216.091 C 262.727 1231.019 268.21 1238.08 262.727 1249.045 C 255.307 1263.886 226.853 1253.917 219.545 1249.045 C 218.409 1248.288 217.273 1247.53 216.136 1246.773 C 214.621 1246.394 212.93 1246.44 211.591 1245.636 C 209.068 1244.123 206.614 1240.66 204.773 1238.818 C 201.285 1235.331 199.433 1233.961 196.818 1232 C 188.72 1225.926 177.348 1227.302 170.682 1220.636 C 166.786 1216.74 162.127 1212.082 158.182 1208.136 C 145.157 1195.112 127.369 1189.824 116.136 1178.591 C 115 1177.455 100.227 1177.455 100.227 1177.455 C 83.617 1178.641 71.703 1189.955 55.909 1189.955 C 44.211 1189.955 22.628 1212.355 9.318 1199.045 C -0.545 1189.182 14.24 1186.64 33.182 1187.682 Z " fill="rgb(0,255,42)"/><path d=" M 136 1140 Q 355.869 1054 666 1060 Q 309.002 1046.5 136 1140 Z " fill="rgb(0,205,74)"/><g><path d=" M 585.335 2191.83 Q 583.633 2189.151 582.056 2186.493 C 576.848 2177.717 572.663 2169.11 569.498 2160.672 C 568.838 2158.91 568.222 2157.156 567.65 2155.408 C 554.721 2115.887 564.581 2080.129 597.231 2048.137 Q 601.537 2043.917 611.338 2035.675 Q 673.662 2125.607 585.335 2191.83 Z " fill="rgb(0,255,42)"/><path d=" M 584.043 2225.726 Q 585.156 2222.905 586.318 2220.174 C 590.153 2211.155 594.384 2202.862 599.01 2195.295 C 599.976 2193.714 600.96 2192.166 601.96 2190.649 C 624.591 2156.339 656.047 2138.216 696.328 2136.281 Q 701.64 2136.026 712.725 2136.36 Q 677.986 2234.153 584.043 2225.726 Z " fill="rgb(0,255,42)"/><path d=" M 562.422 2522.84 Q 565.008 2519.999 567.611 2517.292 C 576.205 2508.353 584.942 2500.505 593.822 2493.747 C 595.676 2492.336 597.537 2490.972 599.404 2489.656 C 641.625 2459.889 687.03 2454.444 735.619 2473.322 Q 742.028 2475.812 755.01 2482.06 Q 669.932 2582.592 562.422 2522.84 Z " fill="rgb(0,255,42)"/><path d=" M 567.239 2595.328 Q 569.086 2593.15 570.95 2591.071 C 577.103 2584.206 583.391 2578.147 589.813 2572.894 C 591.154 2571.798 592.501 2570.736 593.854 2569.709 C 624.452 2546.493 658.048 2541.266 694.643 2554.029 Q 699.47 2555.712 709.279 2560.017 Q 648.677 2636.93 567.239 2595.328 Z " fill="rgb(0,255,42)"/><path d=" M 560.618 2595.953 Q 558.415 2594.135 556.214 2592.418 C 548.945 2586.747 541.686 2581.893 534.438 2577.857 C 532.924 2577.014 531.411 2576.207 529.898 2575.435 C 495.682 2557.985 461.69 2558.772 427.923 2577.795 Q 423.47 2580.304 414.575 2586.273 Q 487.803 2651.279 560.618 2595.953 Z " fill="rgb(0,255,42)"/><path d=" M 555.668 2523.365 Q 553.239 2520.389 550.786 2517.546 C 542.686 2508.157 534.385 2499.849 525.883 2492.622 C 524.107 2491.113 522.323 2489.651 520.53 2488.236 C 479.975 2456.236 434.929 2448.35 385.393 2464.581 Q 378.86 2466.721 365.559 2472.26 Q 445.092 2577.233 555.668 2523.365 Z " fill="rgb(0,255,42)"/><path d=" M 579.325 2224.46 Q 578.724 2221.488 578.06 2218.595 C 575.867 2209.043 573.158 2200.136 569.932 2191.874 C 569.258 2190.149 568.562 2188.451 567.843 2186.782 C 551.587 2149.032 523.801 2125.669 484.486 2116.693 Q 479.301 2115.509 468.329 2113.892 Q 485.361 2216.265 579.325 2224.46 Z " fill="rgb(0,255,42)"/><path d=" M 570.582 2292.838 Q 569.198 2288.75 567.74 2284.783 C 562.928 2271.684 557.514 2259.564 551.497 2248.425 C 550.241 2246.1 548.958 2243.816 547.649 2241.576 C 518.045 2190.9 475.007 2162.094 418.535 2155.157 Q 411.088 2154.242 395.491 2153.553 Q 438.05 2294.878 570.582 2292.838 Z " fill="rgb(0,255,42)"/><path d=" M 572.883 2292.968 Q 575.264 2289.369 577.686 2285.904 C 585.681 2274.466 594.008 2264.129 602.667 2254.894 C 604.475 2252.965 606.298 2251.085 608.135 2249.252 C 649.688 2207.806 698.651 2190.933 755.024 2198.632 Q 762.458 2199.648 777.714 2202.961 Q 700.509 2328.752 572.883 2292.968 Z " fill="rgb(0,255,42)"/><path d=" M 567.802 2365.71 Q 570.362 2362.235 572.955 2358.897 C 581.516 2347.877 590.354 2337.973 599.468 2329.186 C 601.371 2327.351 603.286 2325.565 605.213 2323.827 C 648.803 2284.529 698.555 2270.146 754.468 2280.678 Q 761.842 2282.067 776.911 2286.145 Q 693.461 2407.884 567.802 2365.71 Z " fill="rgb(0,255,42)"/><path d=" M 562.404 2444.748 Q 565.486 2441.726 568.578 2438.845 C 578.789 2429.332 589.094 2420.966 599.493 2413.746 C 601.665 2412.239 603.841 2410.781 606.021 2409.374 C 655.324 2377.537 706.734 2371.279 760.248 2390.6 Q 767.306 2393.148 781.531 2399.579 Q 679.721 2506.438 562.404 2444.748 Z " fill="rgb(0,255,42)"/><path d=" M 557.342 2444.465 Q 554.794 2440.983 552.211 2437.636 C 543.685 2426.588 534.88 2416.656 525.794 2407.84 C 523.897 2405.999 521.988 2404.206 520.066 2402.463 C 476.603 2363.024 426.898 2348.481 370.952 2358.833 Q 363.573 2360.198 348.491 2364.227 Q 431.547 2486.234 557.342 2444.465 Z " fill="rgb(0,255,42)"/><path d=" M 563.619 2366.249 Q 561.997 2362.25 560.308 2358.375 C 554.732 2345.582 548.613 2333.803 541.951 2323.038 C 540.559 2320.79 539.144 2318.587 537.706 2316.427 C 505.166 2267.584 460.505 2241.364 403.723 2237.768 Q 396.234 2237.293 380.625 2237.525 Q 431.438 2376.096 563.619 2366.249 Z " fill="rgb(0,255,42)"/><path d=" M 598 2793 C 599 2798.333 596.667 2809.333 610 2813 C 627.382 2817.78 618 2819 613 2791 C 608 2763 565 2671.333 562 2511 C 560.626 2437.553 566.449 2366.851 573.333 2304 C 581.726 2227.38 592.192 2163.042 599.333 2127.333 L 589.667 2171.667 Q 575.664 2244.119 569.333 2304 C 557.782 2413.265 554.077 2486.741 555.333 2523 C 558.485 2613.939 572.683 2657.974 598 2793 Z " fill="rgb(0,255,42)"/></g></g><defs><image width="300" height="456" xlink:href="cloud://id=GQANzUgDH" id="img_9WwLnrbhnltZiYcPn4W6GocktPeP57M2"/><image width="400" height="396" xlink:href="cloud://id=dB170eL9R" id="img_gustNhMm9yf3khyxvuBUky4B3QXydBmm"/><image width="300" height="198" xlink:href="cloud://id=BCr5olBMO" id="img_mYtlHbfBh46MLAtcJJb0UYcE1KYioh4Z"/><image width="450" height="227" xlink:href="cloud://id=NLLCnxlQ2" id="img_PF2NZztFrhPyq6h8XwAul5mhW2PdhAN4"/></defs></svg>