<?xml version="1.0" encoding="UTF-8" standalone="no"?><!-- Generator: Gravit.io --><svg xmlns="http://www.w3.org/2000/svg" xmlns:xlink="http://www.w3.org/1999/xlink" style="isolation:isolate" viewBox="314.25 950.139 1080 1006" width="1080pt" height="1006pt"><defs><clipPath id="_clipPath_WcaOlPtkhx2C2PaD37JjdEkPO1v5U52E"><rect width="1440" height="3072"/></clipPath></defs><g clip-path="url(#_clipPath_WcaOlPtkhx2C2PaD37JjdEkPO1v5U52E)"><defs><mask id="_mask_5MQoym41BI6vKs7mk9R7YXQqV9X5hgYi"><path d="M 1134.5 2627 L 1434.5 2627 L 1434.5 3083 L 1134.5 3083 L 1134.5 2627 Z" style="stroke:black;fill:white;stroke-miterlimit:10;"/></mask><mask id="_mask_kMvwUFO301ZhXsqdz1WYpqV2aSXK4lyD"><path d="M 1134.5 2627 L 1434.5 2627 L 1434.5 3083 L 1134.5 3083 L 1134.5 2627 Z" style="stroke:black;fill:white;stroke-miterlimit:10;"/></mask></defs><g mask="url(#_mask_kMvwUFO301ZhXsqdz1WYpqV2aSXK4lyD)"><g mask="url(#_mask_5MQoym41BI6vKs7mk9R7YXQqV9X5hgYi)"/></g><g mask="url(#_mask_5MQoym41BI6vKs7mk9R7YXQqV9X5hgYi)"><use xlink:href="#img_9WwLnrbhnltZiYcPn4W6GocktPeP57M2" transform="matrix(1,0,0,1,1134.5,2627)" preserveAspectRatio="none" style=""/></g><defs><mask id="_mask_7AK39rt5o5xqSQadarfYreU6xXXSZZZk"><path d="M 726.5 2665 L 1126.5 2665 L 1126.5 3061 L 726.5 3061 L 726.5 2665 Z" style="stroke:black;fill:white;stroke-miterlimit:10;"/></mask><mask id="_mask_7w71JPOHiWOaufYiOos53p9K3ENNA3dh"><path d="M 726.5 2665 L 1126.5 2665 L 1126.5 3061 L 726.5 3061 L 726.5 2665 Z" style="stroke:black;fill:white;stroke-miterlimit:10;"/></mask></defs><g mask="url(#_mask_7w71JPOHiWOaufYiOos53p9K3ENNA3dh)"><g mask="url(#_mask_7AK39rt5o5xqSQadarfYreU6xXXSZZZk)"/></g><g mask="url(#_mask_7AK39rt5o5xqSQadarfYreU6xXXSZZZk)"><use xlink:href="#img_gustNhMm9yf3khyxvuBUky4B3QXydBmm" transform="matrix(1,0,0,1,726.5,2665)" preserveAspectRatio="none" style=""/></g><g><path d=" M 30.5 135.881 L 31.104 140.71 Q 49.814 143.124 66.714 134.071 Q 112.886 193.522 175.959 166.059 Q 239.031 138.597 301.5 67.075 Q 102.928 -8.37 66.714 122.603 Q 63.696 136.485 30.5 135.881 Z " fill="rgb(0,255,0)"/><path d=" M 86.028 127.017 Q 155.218 72.952 245.972 79.335 Q 153.572 85.096 86.028 127.017 Z " fill="rgb(1,164,1)"/></g><g><g><path d=" M 911.802 372.164 Q 913.529 373.262 915.243 374.279 C 920.902 377.637 926.453 380.336 931.894 382.377 C 933.03 382.803 934.162 383.2 935.289 383.569 C 960.775 391.906 983.833 385.548 1004.464 364.493 Q 1007.185 361.716 1012.5 355.396 Q 954.506 315.206 911.802 372.164 Z " fill="rgb(0,255,42)"/><path d=" M 889.944 372.998 Q 891.762 372.28 893.524 371.531 C 899.34 369.057 904.688 366.329 909.568 363.346 C 910.587 362.723 911.585 362.089 912.563 361.443 C 934.689 346.849 946.375 326.565 947.623 300.59 Q 947.787 297.164 947.572 290.016 Q 884.509 312.417 889.944 372.998 Z " fill="rgb(0,255,42)"/><path d=" M 698.346 386.94 Q 700.178 385.272 701.924 383.594 C 707.688 378.052 712.749 372.418 717.107 366.691 C 718.017 365.496 718.896 364.296 719.745 363.092 C 738.941 335.865 742.452 306.585 730.278 275.252 Q 728.673 271.119 724.644 262.748 Q 659.815 317.611 698.346 386.94 Z " fill="rgb(0,255,42)"/><path d=" M 651.601 383.834 Q 653.006 382.643 654.347 381.441 C 658.774 377.473 662.681 373.418 666.068 369.277 C 666.775 368.412 667.46 367.543 668.122 366.671 C 683.093 346.939 686.464 325.274 678.234 301.676 Q 677.148 298.563 674.372 292.238 Q 624.774 331.317 651.601 383.834 Z " fill="rgb(0,255,42)"/><path d=" M 651.199 388.103 Q 652.371 389.524 653.478 390.943 C 657.135 395.631 660.265 400.312 662.868 404.986 C 663.411 405.962 663.932 406.938 664.429 407.914 C 675.682 429.978 675.175 451.898 662.908 473.673 Q 661.29 476.545 657.44 482.281 Q 615.521 435.059 651.199 388.103 Z " fill="rgb(0,255,42)"/><path d=" M 698.007 391.296 Q 699.926 392.862 701.76 394.444 C 707.815 399.667 713.172 405.02 717.833 410.503 C 718.806 411.648 719.748 412.798 720.661 413.955 C 741.297 440.107 746.382 469.155 735.915 501.099 Q 734.535 505.312 730.963 513.889 Q 663.27 462.601 698.007 391.296 Z " fill="rgb(0,255,42)"/><path d=" M 890.76 376.04 Q 892.676 376.428 894.542 376.856 C 900.702 378.27 906.446 380.017 911.773 382.097 C 912.886 382.532 913.98 382.981 915.057 383.444 C 939.4 393.927 954.467 411.845 960.255 437.198 Q 961.018 440.542 962.061 447.617 Q 896.045 436.634 890.76 376.04 Z " fill="rgb(0,255,42)"/><path d=" M 846.666 381.678 Q 849.301 382.571 851.86 383.511 C 860.307 386.614 868.123 390.105 875.305 393.985 C 876.805 394.795 878.278 395.622 879.723 396.466 C 912.401 415.557 930.978 443.311 935.451 479.727 Q 936.041 484.53 936.485 494.587 Q 845.35 467.143 846.666 381.678 Z " fill="rgb(0,255,42)"/><path d=" M 846.582 380.194 Q 848.903 378.659 851.137 377.097 C 858.513 371.941 865.179 366.572 871.134 360.988 C 872.378 359.822 873.591 358.646 874.772 357.462 C 901.499 330.665 912.38 299.091 907.415 262.739 Q 906.76 257.944 904.624 248.106 Q 823.506 297.893 846.582 380.194 Z " fill="rgb(0,255,42)"/><path d=" M 799.673 383.471 Q 801.914 381.82 804.067 380.148 C 811.173 374.627 817.56 368.928 823.226 363.051 C 824.41 361.824 825.561 360.588 826.682 359.346 C 852.024 331.236 861.299 299.153 854.507 263.097 Q 853.611 258.342 850.981 248.625 Q 772.477 302.438 799.673 383.471 Z " fill="rgb(0,255,42)"/><path d=" M 748.705 386.951 Q 750.653 384.965 752.511 382.97 C 758.646 376.386 764.041 369.74 768.696 363.034 C 769.669 361.634 770.609 360.231 771.516 358.825 C 792.047 327.031 796.082 293.879 783.623 259.37 Q 781.979 254.818 777.832 245.645 Q 708.923 311.298 748.705 386.951 Z " fill="rgb(0,255,42)"/><path d=" M 748.887 390.216 Q 751.133 391.859 753.291 393.525 C 760.415 399.023 766.82 404.701 772.505 410.56 C 773.693 411.783 774.848 413.015 775.973 414.254 C 801.405 442.282 810.784 474.334 804.108 510.412 Q 803.228 515.17 800.629 524.896 Q 721.952 471.336 748.887 390.216 Z " fill="rgb(0,255,42)"/><path d=" M 799.326 386.168 Q 801.905 387.214 804.403 388.303 C 812.653 391.899 820.249 395.845 827.191 400.141 C 828.64 401.038 830.061 401.951 831.454 402.879 C 862.951 423.862 879.859 452.662 882.178 489.279 Q 882.484 494.108 882.335 504.174 Q 792.975 471.406 799.326 386.168 Z " fill="rgb(0,255,42)"/><path d=" M 524.13 363.997 C 520.691 363.352 513.598 364.857 511.233 356.259 C 508.151 345.05 507.364 351.1 525.42 354.324 C 543.476 357.549 602.589 385.278 705.981 387.212 C 753.344 388.098 798.937 384.343 839.468 379.904 C 888.877 374.492 930.366 367.743 953.393 363.137 L 924.804 369.371 Q 878.083 378.401 839.468 382.483 C 769.007 389.932 721.625 392.322 698.243 391.511 C 639.6 389.479 611.204 380.323 524.13 363.997 Z " fill="rgb(0,255,42)"/></g></g><g><g/></g><g><g/></g><g><g/></g><g><g/></g><g><g/></g><g><g/></g><g><g><g><path d=" M 851.551 198.494 Q 1049.901 107.874 1090.187 28.201 Q 975.138 140.513 838.232 194.148 L 851.551 198.494 Z " fill="rgb(0,254,74)"/><path d=" M 844.64 204.011 Q 1036.477 168.602 1101.733 64.775 Q 1003.932 169.598 834.892 196.211 L 844.64 204.011 Z " fill="rgb(0,254,74)"/><path d=" M 853.453 202.401 Q 1050.032 207.87 1121.998 128.177 Q 1016.961 202.49 843.997 193.593 L 853.453 202.401 Z " fill="rgb(0,254,74)"/><path d=" M 843.314 187.864 L 830.252 188.539 Q 831.891 196.365 789.391 192.976 L 788.911 201.486 Q 788.449 206.715 801.666 212.875 Q 834.627 197.286 847.999 210.281 Q 854.915 212.326 860.039 203.386 L 843.314 187.864 Z " fill="rgb(0,186,43)"/></g></g></g><g><g><path d=" M 1129.689 232.839 C 1234.464 229.25 1323.15 184.467 1395.707 98.473 Q 1270.509 215.283 1121.583 220.333 L 1129.689 232.839 Z " fill="rgb(0,254,74)"/><path d=" M 1129.66 219.189 L 1115.536 217.951 Q 1102.327 216.389 1091.908 208.979 L 1090.237 215.25 Q 1090.101 222.202 1097.187 226.994 Q 1103.687 231.139 1109.589 232.567 Q 1133.779 239.906 1138.7 234.475 L 1129.66 219.189 Z " fill="rgb(0,186,43)"/></g></g><g><g><path d=" M 479.419 112.482 C 477.068 108.314 476.423 49.006 502.127 51.482 C 531.594 54.32 524.937 82.167 528.24 102.303 C 528.85 106.025 529.185 109.205 529.363 112.973 C 534.698 118.869 538.727 116.346 541.437 105.392 L 549.439 81.315 L 562.214 47.551 C 568.111 33.98 575.322 33.329 583.835 45.586 C 586.389 47.858 588.453 47.582 590.012 44.743 C 597.874 35.29 604.991 32.768 611.351 37.162 C 623.144 46.147 621.463 67.116 606.297 100.057 C 603.717 109.112 612.351 113.008 620.617 106.234 C 633.687 86.229 646.887 78.746 660.207 83.772 C 673.984 87.373 677.639 94.21 671.157 104.269 C 667.32 115.126 671.536 119.248 683.792 116.623 C 695.679 115.406 702.141 119.997 703.166 130.381 C 705.412 138.805 700.924 144.612 689.689 147.79 C 678.636 151.661 678.173 155.503 688.285 159.302 C 694.462 168.38 693.53 176.153 685.477 182.606 C 677.837 188.026 664.644 189.06 645.887 185.695 C 637.089 182.7 632.788 185.699 632.971 194.68 L 645.325 217.985 C 648.133 230.994 643.36 242.132 633.533 237.359 C 630.865 233.708 626.564 230.109 624.828 231.322 C 621.619 232.326 621.998 236.495 621.74 239.043 C 621.927 242.6 619.498 245.412 614.44 247.467 C 602.007 248.484 581.795 226.213 553.791 180.641 C 552.949 178.582 551.549 178.025 549.579 178.956 C 547.707 180.36 547.337 182.704 548.456 185.976 C 557.722 198.673 562.781 210.657 563.618 221.916 C 564.646 230.805 562.127 236.897 556.037 240.166 C 549.299 246.063 540.692 246.535 530.205 241.57 C 521.651 236.328 515.197 228.751 510.832 218.827 C 509.261 213.388 504.398 207.122 496.231 200.015 C 491.456 195.801 488.75 196.652 488.088 202.542 C 490.147 212.931 485.472 217.521 474.049 216.3 C 457.203 203.478 439.986 192.719 422.386 184.01 C 414.718 185.428 404.614 192.452 394.869 202.261 L 391.5 192.153 L 418.736 179.237 C 421.918 175.213 423.981 168.384 424.913 158.74 L 434.459 116.342 C 434.366 102.303 445.695 99.406 457.203 107.077 L 467.591 121.958 C 472.926 124.757 478.647 121.16 479.419 112.482 Z " fill="rgb(0,254,43)"/><path d=" M 438.391 172.667 Q 453.427 165.523 469.467 159.623 C 524.468 139.394 588.328 130.133 661.049 131.842 Q 511.071 124.953 438.391 172.667 Z " fill="rgb(0,205,74)"/></g></g><g><g/></g><g><g/></g><g><g/></g><g><g/></g><g><g/></g><g><g/></g><g><g/></g><g><g><path d=" M 175.336 391.51 L 145.174 367.86 C 152.402 358.071 159.983 351.719 167.948 348.731 C 196.228 336.612 213.274 332.916 219.117 337.569 L 175.336 391.51 Z " fill="rgb(1,255,1)" vector-effect="non-scaling-stroke" stroke-width="1" stroke="rgb(0,165,1)" stroke-linejoin="miter" stroke-linecap="square" stroke-miterlimit="3"/><path d=" M 175.349 391.543 L 170.112 429.512 C 182.113 431.522 191.978 430.817 199.78 427.427 C 228.533 416.478 243.355 407.284 244.32 399.877 L 175.349 391.543 Z " fill="rgb(0,255,0)" vector-effect="non-scaling-stroke" stroke-width="1" stroke="rgb(0,165,1)" stroke-linejoin="miter" stroke-linecap="square" stroke-miterlimit="3"/><path d=" M 175.328 391.529 L 239.736 399.31 C 244.48 387.227 246.131 375.042 244.721 362.682 C 236.393 353.623 227.095 346.185 216.858 340.294 L 175.328 391.529 Z " fill="rgb(0,255,0)" vector-effect="non-scaling-stroke" stroke-width="1" stroke="rgb(1,165,0)" stroke-linejoin="miter" stroke-linecap="square" stroke-miterlimit="3"/><path d=" M 96.933 423.221 L 62.555 396.265 C 70.794 385.108 79.434 377.868 88.513 374.463 C 120.745 360.649 140.174 356.436 146.833 361.74 L 96.933 423.221 Z " fill="rgb(1,255,1)" vector-effect="non-scaling-stroke" stroke-width="1" stroke="rgb(0,165,1)" stroke-linejoin="miter" stroke-linecap="square" stroke-miterlimit="3"/><path d=" M 96.948 423.258 L 90.979 466.534 C 104.657 468.826 115.901 468.022 124.794 464.158 C 157.566 451.678 174.459 441.199 175.559 432.757 L 96.948 423.258 Z " fill="rgb(0,255,0)" vector-effect="non-scaling-stroke" stroke-width="1" stroke="rgb(0,165,1)" stroke-linejoin="miter" stroke-linecap="square" stroke-miterlimit="3"/><path d=" M 96.924 423.243 L 170.334 432.11 C 175.741 418.339 177.623 404.451 176.016 390.363 C 166.524 380.039 155.926 371.561 144.259 364.846 L 96.924 423.243 Z " fill="rgb(0,255,0)" vector-effect="non-scaling-stroke" stroke-width="1" stroke="rgb(1,165,0)" stroke-linejoin="miter" stroke-linecap="square" stroke-miterlimit="3"/><path d=" M 244.666 363.638 L 218.74 343.308 C 224.953 334.894 231.47 329.435 238.316 326.866 C 262.624 316.449 277.276 313.272 282.298 317.272 L 244.666 363.638 Z " fill="rgb(1,255,1)" vector-effect="non-scaling-stroke" stroke-width="1" stroke="rgb(0,165,1)" stroke-linejoin="miter" stroke-linecap="square" stroke-miterlimit="3"/><path d=" M 244.677 363.665 L 240.176 396.302 C 250.491 398.031 258.971 397.424 265.678 394.51 C 290.393 385.098 303.133 377.196 303.962 370.829 L 244.677 363.665 Z " fill="rgb(0,255,0)" vector-effect="non-scaling-stroke" stroke-width="1" stroke="rgb(0,165,1)" stroke-linejoin="miter" stroke-linecap="square" stroke-miterlimit="3"/><path d=" M 244.659 363.654 L 300.022 370.341 C 304.1 359.956 305.519 349.482 304.307 338.858 C 297.148 331.071 289.156 324.678 280.357 319.614 L 244.659 363.654 Z " fill="rgb(0,255,0)" vector-effect="non-scaling-stroke" stroke-width="1" stroke="rgb(1,165,0)" stroke-linejoin="miter" stroke-linecap="square" stroke-miterlimit="3"/><path d=" M 302.922 340.077 L 282.731 324.244 C 287.569 317.691 292.644 313.439 297.977 311.439 C 316.909 303.325 328.32 300.851 332.231 303.966 L 302.922 340.077 Z " fill="rgb(1,255,1)" vector-effect="non-scaling-stroke" stroke-width="1" stroke="rgb(0,165,1)" stroke-linejoin="miter" stroke-linecap="square" stroke-miterlimit="3"/><path d=" M 302.931 340.099 L 299.425 365.517 C 307.459 366.863 314.063 366.391 319.286 364.121 C 338.535 356.791 348.457 350.636 349.103 345.678 L 302.931 340.099 Z " fill="rgb(0,255,0)" vector-effect="non-scaling-stroke" stroke-width="1" stroke="rgb(0,165,1)" stroke-linejoin="miter" stroke-linecap="square" stroke-miterlimit="3"/><path d=" M 302.917 340.09 L 346.034 345.298 C 349.21 337.209 350.316 329.052 349.372 320.778 C 343.796 314.714 337.572 309.735 330.719 305.791 L 302.917 340.09 Z " fill="rgb(0,255,0)" vector-effect="non-scaling-stroke" stroke-width="1" stroke="rgb(1,165,0)" stroke-linejoin="miter" stroke-linecap="square" stroke-miterlimit="3"/><path d=" M 348.737 321.548 L 332.394 308.732 C 336.31 303.428 340.418 299.986 344.734 298.367 C 360.058 291.8 369.294 289.797 372.46 292.319 L 348.737 321.548 Z " fill="rgb(1,255,1)" vector-effect="non-scaling-stroke" stroke-width="1" stroke="rgb(0,165,1)" stroke-linejoin="miter" stroke-linecap="square" stroke-miterlimit="3"/><path d=" M 348.744 321.565 L 345.907 342.139 C 352.409 343.229 357.755 342.847 361.983 341.01 C 377.563 335.076 385.594 330.095 386.117 326.081 L 348.744 321.565 Z " fill="rgb(0,255,0)" vector-effect="non-scaling-stroke" stroke-width="1" stroke="rgb(0,165,1)" stroke-linejoin="miter" stroke-linecap="square" stroke-miterlimit="3"/><path d=" M 348.733 321.558 L 383.633 325.774 C 386.204 319.227 387.099 312.624 386.335 305.926 C 381.822 301.018 376.783 296.988 371.237 293.795 L 348.733 321.558 Z " fill="rgb(0,255,0)" vector-effect="non-scaling-stroke" stroke-width="1" stroke="rgb(1,165,0)" stroke-linejoin="miter" stroke-linecap="square" stroke-miterlimit="3"/><path d=" M 387.261 305.967 L 373.785 295.399 C 377.014 291.026 380.402 288.188 383.96 286.853 C 396.596 281.438 404.212 279.786 406.823 281.865 L 387.261 305.967 Z " fill="rgb(1,255,1)" vector-effect="non-scaling-stroke" stroke-width="1" stroke="rgb(0,165,1)" stroke-linejoin="miter" stroke-linecap="square" stroke-miterlimit="3"/><path d=" M 387.267 305.981 L 384.927 322.946 C 390.289 323.844 394.697 323.529 398.183 322.015 C 411.03 317.122 417.653 313.014 418.084 309.705 L 387.267 305.981 Z " fill="rgb(0,255,0)" vector-effect="non-scaling-stroke" stroke-width="1" stroke="rgb(0,165,1)" stroke-linejoin="miter" stroke-linecap="square" stroke-miterlimit="3"/><path d=" M 387.258 305.975 L 416.036 309.451 C 418.155 304.053 418.893 298.609 418.263 293.086 C 414.542 289.039 410.387 285.715 405.813 283.083 L 387.258 305.975 Z " fill="rgb(0,255,0)" vector-effect="non-scaling-stroke" stroke-width="1" stroke="rgb(1,165,0)" stroke-linejoin="miter" stroke-linecap="square" stroke-miterlimit="3"/><path d=" M 420.679 292.45 L 409.089 283.362 C 411.867 279.601 414.78 277.16 417.841 276.012 C 428.708 271.355 435.258 269.935 437.503 271.723 L 420.679 292.45 Z " fill="rgb(1,255,1)" vector-effect="non-scaling-stroke" stroke-width="1" stroke="rgb(0,165,1)" stroke-linejoin="miter" stroke-linecap="square" stroke-miterlimit="3"/><path d=" M 420.684 292.463 L 418.672 307.053 C 423.284 307.826 427.074 307.555 430.073 306.252 C 441.121 302.045 446.817 298.512 447.187 295.665 L 420.684 292.463 Z " fill="rgb(0,255,0)" vector-effect="non-scaling-stroke" stroke-width="1" stroke="rgb(0,165,1)" stroke-linejoin="miter" stroke-linecap="square" stroke-miterlimit="3"/><path d=" M 420.676 292.458 L 445.426 295.447 C 447.249 290.805 447.884 286.122 447.342 281.373 C 444.141 277.892 440.568 275.034 436.635 272.77 L 420.676 292.458 Z " fill="rgb(0,255,0)" vector-effect="non-scaling-stroke" stroke-width="1" stroke="rgb(1,165,0)" stroke-linejoin="miter" stroke-linecap="square" stroke-miterlimit="3"/><path d=" M 62.17 397.906 C 61.187 425.697 69.612 446.814 89.433 465.541 L 105.21 419.685 L 62.17 397.906 Z " fill="rgb(1,255,1)" vector-effect="non-scaling-stroke" stroke-width="1" stroke="rgb(0,165,1)" stroke-linejoin="miter" stroke-linecap="square" stroke-miterlimit="3"/></g></g><g><g><path d=" M 17313.458 7316.613 L 17295.833 7326.738 C 17292.458 7321.238 17290.843 7316.248 17290.958 7311.738 C 17290.624 7295.425 17292.196 7286.31 17295.646 7284.363 L 17313.458 7316.613 Z " fill="rgb(1,255,1)" vector-effect="non-scaling-stroke" stroke-width="1" stroke="rgb(0,165,1)" stroke-linejoin="miter" stroke-linecap="square" stroke-miterlimit="3"/><path d=" M 17313.477 7316.613 L 17331.102 7326.738 C 17334.477 7321.238 17336.092 7316.248 17335.977 7311.738 C 17336.311 7295.425 17334.739 7286.31 17331.289 7284.363 L 17313.477 7316.613 Z " fill="rgb(0,255,0)" vector-effect="non-scaling-stroke" stroke-width="1" stroke="rgb(0,165,1)" stroke-linejoin="miter" stroke-linecap="square" stroke-miterlimit="3"/><path d=" M 17313.466 7316.621 L 17330.099 7286.504 C 17325.102 7281.769 17319.44 7278.534 17313.083 7276.77 C 17306.974 7279.063 17301.468 7282.155 17296.536 7286.016 L 17313.466 7316.621 Z " fill="rgb(0,255,0)" vector-effect="non-scaling-stroke" stroke-width="1" stroke="rgb(1,165,0)" stroke-linejoin="miter" stroke-linecap="square" stroke-miterlimit="3"/></g></g><g><g><g><g><g><g><rect x="1392.882" y="1306.618" width="1" height="1" transform="matrix(0,1,-1,0,2700.5,-86.264)" fill="rgb(0,255,0)"/><path d=" M 815.5 1855.022 Q 814.402 1856.75 813.385 1858.464 C 810.027 1864.123 807.328 1869.673 805.288 1875.114 C 804.862 1876.251 804.464 1877.382 804.096 1878.509 C 795.758 1903.995 802.117 1927.053 823.171 1947.684 Q 825.948 1950.405 832.268 1955.72 Q 872.459 1897.727 815.5 1855.022 Z " fill="rgb(0,255,42)"/><path d=" M 814.667 1833.164 Q 815.385 1834.983 816.134 1836.744 C 818.607 1842.56 821.335 1847.908 824.319 1852.788 C 824.942 1853.807 825.576 1854.806 826.221 1855.784 C 840.815 1877.909 861.1 1889.596 887.075 1890.843 Q 890.501 1891.008 897.649 1890.792 Q 875.247 1827.73 814.667 1833.164 Z " fill="rgb(0,255,42)"/><path d=" M 800.725 1641.567 Q 802.392 1643.399 804.071 1645.144 C 809.613 1650.908 815.247 1655.97 820.973 1660.327 C 822.169 1661.237 823.369 1662.117 824.572 1662.965 C 851.799 1682.161 881.079 1685.672 912.413 1673.499 Q 916.545 1671.893 924.917 1667.864 Q 870.054 1603.035 800.725 1641.567 Z " fill="rgb(0,255,42)"/><path d=" M 803.83 1594.822 Q 805.022 1596.226 806.224 1597.567 C 810.192 1601.994 814.247 1605.901 818.388 1609.289 C 819.253 1609.996 820.121 1610.68 820.994 1611.342 C 840.725 1626.314 862.39 1629.684 885.989 1621.454 Q 889.101 1620.369 895.427 1617.592 Q 856.347 1567.995 803.83 1594.822 Z " fill="rgb(0,255,42)"/><path d=" M 799.561 1594.419 Q 798.141 1595.591 796.721 1596.699 C 792.034 1600.356 787.353 1603.486 782.679 1606.088 C 781.702 1606.632 780.727 1607.152 779.751 1607.65 C 757.686 1618.903 735.767 1618.395 713.992 1606.128 Q 711.12 1604.51 705.384 1600.661 Q 752.606 1558.741 799.561 1594.419 Z " fill="rgb(0,255,42)"/><path d=" M 796.369 1641.228 Q 794.803 1643.147 793.221 1644.981 C 787.998 1651.035 782.644 1656.393 777.162 1661.053 C 776.017 1662.026 774.866 1662.969 773.71 1663.881 C 747.558 1684.517 718.509 1689.602 686.565 1679.136 Q 682.352 1677.756 673.775 1674.183 Q 725.063 1606.49 796.369 1641.228 Z " fill="rgb(0,255,42)"/><path d=" M 811.624 1833.98 Q 811.237 1835.897 810.809 1837.762 C 809.395 1843.922 807.648 1849.666 805.567 1854.994 C 805.133 1856.106 804.684 1857.201 804.221 1858.277 C 793.737 1882.621 775.819 1897.687 750.467 1903.475 Q 747.123 1904.239 740.048 1905.281 Q 751.031 1839.265 811.624 1833.98 Z " fill="rgb(0,255,42)"/><path d=" M 805.986 1789.886 Q 805.094 1792.522 804.154 1795.08 C 801.051 1803.528 797.559 1811.343 793.68 1818.526 C 792.869 1820.026 792.042 1821.498 791.198 1822.943 C 772.107 1855.622 744.354 1874.198 707.938 1878.671 Q 703.135 1879.261 693.077 1879.705 Q 720.522 1788.57 805.986 1789.886 Z " fill="rgb(0,255,42)"/><path d=" M 807.471 1789.802 Q 809.006 1792.123 810.568 1794.357 C 815.723 1801.733 821.093 1808.399 826.677 1814.355 C 827.843 1815.598 829.018 1816.811 830.203 1817.993 C 856.999 1844.72 888.573 1855.601 924.926 1850.635 Q 929.72 1849.981 939.558 1847.844 Q 889.772 1766.726 807.471 1789.802 Z " fill="rgb(0,255,42)"/><path d=" M 804.194 1742.894 Q 805.844 1745.135 807.517 1747.287 C 813.038 1754.394 818.737 1760.78 824.614 1766.447 C 825.841 1767.63 827.076 1768.782 828.319 1769.902 C 856.429 1795.244 888.511 1804.519 924.567 1797.727 Q 929.322 1796.832 939.04 1794.202 Q 885.227 1715.698 804.194 1742.894 Z " fill="rgb(0,255,42)"/><path d=" M 800.713 1691.925 Q 802.7 1693.874 804.694 1695.732 C 811.279 1701.866 817.924 1707.261 824.63 1711.917 C 826.031 1712.889 827.434 1713.829 828.839 1714.737 C 860.633 1735.267 893.785 1739.303 928.295 1726.843 Q 932.846 1725.2 942.02 1721.053 Q 876.366 1652.144 800.713 1691.925 Z " fill="rgb(0,255,42)"/><path d=" M 797.448 1692.107 Q 795.805 1694.353 794.14 1696.511 C 788.642 1703.636 782.963 1710.041 777.105 1715.726 C 775.881 1716.913 774.65 1718.069 773.411 1719.193 C 745.383 1744.626 713.33 1754.004 677.253 1747.329 Q 672.495 1746.448 662.769 1743.85 Q 716.329 1665.172 797.448 1692.107 Z " fill="rgb(0,255,42)"/><path d=" M 801.497 1742.546 Q 800.45 1745.125 799.361 1747.624 C 795.766 1755.873 791.82 1763.469 787.523 1770.411 C 786.626 1771.861 785.714 1773.282 784.786 1774.674 C 763.802 1806.171 735.002 1823.079 698.386 1825.399 Q 693.556 1825.705 683.49 1825.555 Q 716.258 1736.196 801.497 1742.546 Z " fill="rgb(0,255,42)"/><path d=" M 823.667 1467.351 C 824.312 1463.912 822.808 1456.818 831.406 1454.454 C 842.615 1451.371 836.565 1450.584 833.34 1468.641 C 830.116 1486.697 802.387 1545.809 800.452 1649.202 C 799.566 1696.565 803.321 1742.158 807.761 1782.688 C 813.173 1832.097 819.922 1873.587 824.527 1896.614 L 818.294 1868.025 Q 809.264 1821.303 805.181 1782.688 C 797.733 1712.227 795.343 1664.845 796.153 1641.463 C 798.186 1582.82 807.341 1554.424 823.667 1467.351 Z " fill="rgb(0,255,42)"/><path d=" M 815.717 1050.837 Q 814.62 1049.11 813.603 1047.396 C 810.245 1041.737 807.546 1036.186 805.505 1030.745 C 805.079 1029.609 804.682 1028.477 804.313 1027.35 C 795.976 1001.864 802.334 978.806 823.389 958.175 Q 826.165 955.454 832.486 950.139 Q 872.676 1008.133 815.717 1050.837 Z " fill="rgb(0,255,42)"/><path d=" M 814.884 1072.695 Q 815.602 1070.877 816.351 1069.115 C 818.824 1063.299 821.553 1057.951 824.536 1053.071 C 825.159 1052.052 825.793 1051.054 826.438 1050.076 C 841.032 1027.95 861.317 1016.264 887.292 1015.016 Q 890.718 1014.851 897.866 1015.067 Q 875.464 1078.13 814.884 1072.695 Z " fill="rgb(0,255,42)"/><path d=" M 800.942 1264.293 Q 802.609 1262.461 804.288 1260.715 C 809.83 1254.951 815.464 1249.89 821.19 1245.532 C 822.386 1244.622 823.586 1243.743 824.79 1242.894 C 852.017 1223.698 881.297 1220.187 912.63 1232.361 Q 916.763 1233.966 925.134 1237.995 Q 870.271 1302.824 800.942 1264.293 Z " fill="rgb(0,255,42)"/><path d=" M 804.048 1311.038 Q 805.239 1309.633 806.441 1308.292 C 810.409 1303.865 814.464 1299.958 818.605 1296.571 C 819.47 1295.864 820.339 1295.179 821.211 1294.517 C 840.942 1279.546 862.608 1276.175 886.206 1284.405 Q 889.319 1285.491 895.644 1288.267 Q 856.565 1337.865 804.048 1311.038 Z " fill="rgb(0,255,42)"/><path d=" M 799.779 1311.44 Q 798.358 1310.268 796.938 1309.161 C 792.251 1305.504 787.57 1302.374 782.896 1299.771 C 781.92 1299.228 780.944 1298.707 779.968 1298.21 C 757.904 1286.957 735.984 1287.464 714.209 1299.731 Q 711.337 1301.349 705.601 1305.199 Q 752.823 1347.118 799.779 1311.44 Z " fill="rgb(0,255,42)"/><path d=" M 796.586 1264.632 Q 795.02 1262.713 793.438 1260.879 C 788.215 1254.824 782.862 1249.467 777.379 1244.806 C 776.234 1243.833 775.083 1242.891 773.927 1241.978 C 747.775 1221.342 718.727 1216.257 686.783 1226.724 Q 682.57 1228.104 673.993 1231.676 Q 725.28 1299.369 796.586 1264.632 Z " fill="rgb(0,255,42)"/><path d=" M 811.842 1071.879 Q 811.454 1069.963 811.026 1068.097 C 809.612 1061.937 807.865 1056.193 805.785 1050.866 C 805.35 1049.753 804.901 1048.659 804.438 1047.582 C 793.955 1023.239 776.037 1008.172 750.684 1002.384 Q 747.34 1001.621 740.265 1000.578 Q 751.248 1066.594 811.842 1071.879 Z " fill="rgb(0,255,42)"/><path d=" M 806.204 1115.973 Q 805.311 1113.338 804.371 1110.779 C 801.268 1102.332 797.777 1094.516 793.897 1087.334 C 793.087 1085.834 792.26 1084.361 791.415 1082.916 C 772.325 1050.238 744.571 1031.661 708.155 1027.188 Q 703.352 1026.598 693.295 1026.154 Q 720.739 1117.289 806.204 1115.973 Z " fill="rgb(0,255,42)"/><path d=" M 807.688 1116.057 Q 809.223 1113.736 810.785 1111.502 C 815.94 1104.126 821.31 1097.46 826.894 1091.505 C 828.06 1090.261 829.236 1089.048 830.42 1087.867 C 857.216 1061.14 888.791 1050.259 925.143 1055.224 Q 929.938 1055.879 939.775 1058.015 Q 889.989 1139.133 807.688 1116.057 Z " fill="rgb(0,255,42)"/><path d=" M 804.411 1162.966 Q 806.062 1160.725 807.734 1158.572 C 813.255 1151.466 818.954 1145.079 824.831 1139.413 C 826.058 1138.229 827.293 1137.078 828.536 1135.957 C 856.646 1110.615 888.729 1101.34 924.785 1108.132 Q 929.54 1109.028 939.257 1111.658 Q 885.444 1190.162 804.411 1162.966 Z " fill="rgb(0,255,42)"/><path d=" M 800.93 1213.934 Q 802.917 1211.986 804.912 1210.128 C 811.496 1203.993 818.142 1198.598 824.848 1193.943 C 826.248 1192.97 827.651 1192.03 829.057 1191.123 C 860.851 1170.592 894.003 1166.557 928.512 1179.016 Q 933.064 1180.66 942.237 1184.807 Q 876.584 1253.716 800.93 1213.934 Z " fill="rgb(0,255,42)"/><path d=" M 797.666 1213.752 Q 796.023 1211.506 794.357 1209.348 C 788.859 1202.224 783.181 1195.819 777.322 1190.134 C 776.099 1188.946 774.867 1187.791 773.628 1186.666 C 745.6 1161.234 713.548 1151.855 677.47 1158.531 Q 672.712 1159.411 662.986 1162.01 Q 716.546 1240.687 797.666 1213.752 Z " fill="rgb(0,255,42)"/><path d=" M 801.714 1163.313 Q 800.668 1160.734 799.579 1158.236 C 795.983 1149.986 792.037 1142.39 787.741 1135.448 C 786.843 1133.999 785.931 1132.578 785.003 1131.185 C 764.02 1099.688 735.219 1082.78 698.603 1080.461 Q 693.774 1080.155 683.708 1080.304 Q 716.475 1169.663 801.714 1163.313 Z " fill="rgb(0,255,42)"/><path d=" M 823.885 1438.509 C 824.53 1441.948 823.025 1449.041 831.623 1451.406 C 842.832 1454.488 836.782 1455.275 833.558 1437.219 C 830.333 1419.163 802.604 1360.05 800.67 1256.658 C 799.783 1209.295 803.538 1163.702 807.978 1123.171 C 813.39 1073.762 820.139 1032.273 824.744 1009.246 L 818.511 1037.835 Q 809.481 1084.556 805.399 1123.171 C 797.95 1193.632 795.56 1241.014 796.371 1264.396 C 798.403 1323.039 807.558 1351.435 823.885 1438.509 Z " fill="rgb(0,255,42)"/><path d=" M 1212.853 1135.95 Q 1212.945 1133.906 1213.095 1131.918 C 1213.591 1125.357 1214.565 1119.262 1216.015 1113.634 C 1216.318 1112.459 1216.642 1111.305 1216.986 1110.17 C 1224.778 1084.512 1243.214 1069.273 1272.295 1064.454 Q 1276.131 1063.818 1284.356 1063.09 Q 1284.005 1133.648 1212.853 1135.95 Z " fill="rgb(0,255,42)"/><path d=" M 1199.631 1153.376 Q 1201.262 1152.298 1202.886 1151.285 C 1208.248 1147.94 1213.551 1145.125 1218.794 1142.839 C 1219.889 1142.362 1220.982 1141.908 1222.071 1141.477 C 1246.718 1131.727 1270.037 1133.792 1292.028 1147.671 Q 1294.929 1149.502 1300.66 1153.779 Q 1246.133 1192.581 1199.631 1153.376 Z " fill="rgb(0,255,42)"/><path d=" M 1078.295 1302.31 Q 1080.711 1301.766 1083.088 1301.299 C 1090.934 1299.757 1098.452 1298.844 1105.642 1298.56 C 1107.144 1298.5 1108.631 1298.469 1110.104 1298.464 C 1143.417 1298.361 1169.414 1312.283 1188.095 1340.229 Q 1190.558 1343.915 1195.104 1352.018 Q 1112.975 1373.643 1078.295 1302.31 Z " fill="rgb(0,255,42)"/><path d=" M 1054.022 1342.379 Q 1055.803 1341.912 1057.557 1341.504 C 1063.347 1340.154 1068.909 1339.28 1074.245 1338.881 C 1075.359 1338.798 1076.463 1338.736 1077.557 1338.694 C 1102.308 1337.751 1121.987 1347.419 1136.594 1367.699 Q 1138.521 1370.373 1142.109 1376.276 Q 1081.646 1394.481 1054.022 1342.379 Z " fill="rgb(0,255,42)"/><path d=" M 1050.294 1340.26 Q 1049.803 1338.485 1049.275 1336.764 C 1047.534 1331.079 1045.495 1325.83 1043.16 1321.017 C 1042.672 1320.012 1042.172 1319.025 1041.658 1318.058 C 1030.041 1296.183 1011.796 1284.024 986.923 1281.58 Q 983.643 1281.257 976.736 1281.119 Q 991.366 1342.545 1050.294 1340.26 Z " fill="rgb(0,255,42)"/><path d=" M 1074.532 1300.089 Q 1074.351 1297.618 1074.107 1295.209 C 1073.302 1287.253 1071.991 1279.794 1070.174 1272.832 C 1069.794 1271.378 1069.393 1269.945 1068.969 1268.535 C 1059.387 1236.629 1038.511 1215.8 1006.342 1206.046 Q 1002.1 1204.76 993.025 1202.765 Q 996.199 1287.634 1074.532 1300.089 Z " fill="rgb(0,255,42)"/><path d=" M 1197.607 1150.962 Q 1198.389 1149.17 1199.109 1147.396 C 1201.484 1141.54 1203.349 1135.833 1204.701 1130.275 C 1204.983 1129.115 1205.244 1127.961 1205.481 1126.813 C 1210.861 1100.86 1204.827 1078.24 1187.382 1058.955 Q 1185.082 1056.411 1179.885 1051.498 Q 1151.008 1111.871 1197.607 1150.962 Z " fill="rgb(0,255,42)"/><path d=" M 1167.693 1183.844 Q 1168.474 1181.173 1169.172 1178.538 C 1171.476 1169.839 1173.1 1161.434 1174.043 1153.325 C 1174.24 1151.632 1174.407 1149.951 1174.544 1148.284 C 1177.655 1110.565 1165.58 1079.428 1138.318 1054.873 Q 1134.723 1051.634 1126.74 1045.501 Q 1096.936 1135.892 1167.693 1183.844 Z " fill="rgb(0,255,42)"/><path d=" M 1168.861 1184.764 Q 1171.45 1183.744 1174.01 1182.81 C 1182.465 1179.726 1190.687 1177.346 1198.677 1175.672 C 1200.346 1175.322 1202.004 1175.003 1203.652 1174.715 C 1240.933 1168.196 1273.037 1177.398 1299.964 1202.319 Q 1303.516 1205.606 1310.348 1213 Q 1223.033 1250.88 1168.861 1184.764 Z " fill="rgb(0,255,42)"/><path d=" M 1139.266 1221.306 Q 1141.903 1220.417 1144.508 1219.614 C 1153.107 1216.96 1161.439 1214.998 1169.503 1213.729 C 1171.187 1213.464 1172.86 1213.229 1174.52 1213.024 C 1212.083 1208.393 1243.682 1219.202 1269.318 1245.449 Q 1272.699 1248.911 1279.15 1256.64 Q 1190.036 1290.069 1139.266 1221.306 Z " fill="rgb(0,255,42)"/><path d=" M 1107.175 1261.056 Q 1109.92 1260.6 1112.62 1260.222 C 1121.532 1258.975 1130.07 1258.368 1138.234 1258.402 C 1139.939 1258.409 1141.627 1258.444 1143.299 1258.507 C 1181.119 1259.931 1210.588 1275.644 1231.706 1305.647 Q 1234.491 1309.604 1239.626 1318.264 Q 1146.319 1337.041 1107.175 1261.056 Z " fill="rgb(0,255,42)"/><path d=" M 1104.605 1259.034 Q 1104.548 1256.252 1104.422 1253.529 C 1104.006 1244.539 1103.029 1236.035 1101.492 1228.018 C 1101.171 1226.343 1100.825 1224.69 1100.456 1223.058 C 1092.089 1186.148 1071.215 1160.078 1037.836 1144.849 Q 1033.433 1142.84 1023.976 1139.389 Q 1022.71 1234.558 1104.605 1259.034 Z " fill="rgb(0,255,42)"/><path d=" M 1136.857 1220.043 Q 1137.48 1217.331 1138.021 1214.659 C 1139.809 1205.839 1140.934 1197.354 1141.398 1189.203 C 1141.494 1187.501 1141.562 1185.814 1141.601 1184.141 C 1142.483 1146.305 1128.594 1115.933 1099.933 1093.027 Q 1096.153 1090.006 1087.822 1084.354 Q 1063.397 1176.344 1136.857 1220.043 Z " fill="rgb(0,255,42)"/><path d=" M 999.375 1449.75 C 997.93 1452.937 1001.414 1460.507 1009.132 1443.868 C 1013.215 1435.064 1019.232 1420.873 1030.071 1393.219 C 1039.719 1368.607 1055.266 1336.302 1082.452 1295.9 C 1108.897 1256.598 1138.129 1221.408 1165.017 1190.757 C 1197.795 1153.392 1227.125 1123.281 1244.107 1107.062 L 1222.6 1126.903 Q 1188.401 1159.991 1162.904 1189.278 C 1116.381 1242.717 1087.241 1280.156 1074.491 1299.772 C 1042.513 1348.971 1035.955 1369.064 999.375 1449.75 Z " fill="rgb(0,255,42)"/><path d=" M 1212.978 1768.169 Q 1213.07 1770.214 1213.22 1772.201 C 1213.716 1778.763 1214.69 1784.857 1216.14 1790.485 C 1216.443 1791.66 1216.767 1792.815 1217.111 1793.949 C 1224.903 1819.607 1243.339 1834.846 1272.42 1839.666 Q 1276.256 1840.301 1284.481 1841.029 Q 1284.13 1770.471 1212.978 1768.169 Z " fill="rgb(0,255,42)"/><path d=" M 1199.756 1750.744 Q 1201.387 1751.821 1203.011 1752.834 C 1208.373 1756.179 1213.676 1758.994 1218.919 1761.28 C 1220.014 1761.757 1221.107 1762.211 1222.196 1762.642 C 1246.843 1772.392 1270.162 1770.328 1292.153 1756.448 Q 1295.054 1754.617 1300.785 1750.34 Q 1246.258 1711.538 1199.756 1750.744 Z " fill="rgb(0,255,42)"/><path d=" M 1078.42 1601.809 Q 1080.836 1602.353 1083.213 1602.82 C 1091.059 1604.362 1098.577 1605.275 1105.767 1605.559 C 1107.269 1605.619 1108.756 1605.651 1110.229 1605.655 C 1143.542 1605.758 1169.539 1591.837 1188.22 1563.89 Q 1190.683 1560.205 1195.229 1552.101 Q 1113.1 1530.476 1078.42 1601.809 Z " fill="rgb(0,255,42)"/><path d=" M 1054.147 1561.74 Q 1055.928 1562.207 1057.682 1562.616 C 1063.472 1563.965 1069.034 1564.839 1074.37 1565.238 C 1075.484 1565.321 1076.588 1565.383 1077.682 1565.425 C 1102.433 1566.368 1122.112 1556.7 1136.719 1536.421 Q 1138.646 1533.746 1142.234 1527.843 Q 1081.771 1509.638 1054.147 1561.74 Z " fill="rgb(0,255,42)"/><path d=" M 1050.419 1563.859 Q 1049.928 1565.634 1049.4 1567.356 C 1047.659 1573.04 1045.62 1578.289 1043.285 1583.103 C 1042.797 1584.108 1042.297 1585.094 1041.783 1586.061 C 1030.166 1607.936 1011.921 1620.096 987.048 1622.54 Q 983.768 1622.862 976.861 1623 Q 991.491 1561.574 1050.419 1563.859 Z " fill="rgb(0,255,42)"/><path d=" M 1074.657 1604.03 Q 1074.476 1606.501 1074.232 1608.91 C 1073.427 1616.866 1072.116 1624.325 1070.299 1631.288 C 1069.919 1632.742 1069.518 1634.174 1069.094 1635.585 C 1059.512 1667.49 1038.636 1688.32 1006.467 1698.073 Q 1002.225 1699.359 993.15 1701.354 Q 996.324 1616.485 1074.657 1604.03 Z " fill="rgb(0,255,42)"/><path d=" M 1197.732 1753.158 Q 1198.514 1754.95 1199.234 1756.723 C 1201.609 1762.58 1203.474 1768.287 1204.826 1773.844 C 1205.108 1775.005 1205.369 1776.159 1205.606 1777.306 C 1210.986 1803.26 1204.952 1825.879 1187.507 1845.165 Q 1185.207 1847.708 1180.01 1852.621 Q 1151.133 1792.248 1197.732 1753.158 Z " fill="rgb(0,255,42)"/><path d=" M 1167.818 1720.275 Q 1168.599 1722.946 1169.297 1725.581 C 1171.601 1734.28 1173.225 1742.685 1174.168 1750.794 C 1174.365 1752.487 1174.532 1754.168 1174.669 1755.835 C 1177.78 1793.554 1165.705 1824.691 1138.443 1849.247 Q 1134.848 1852.485 1126.865 1858.619 Q 1097.061 1768.228 1167.818 1720.275 Z " fill="rgb(0,255,42)"/><path d=" M 1168.986 1719.355 Q 1171.575 1720.376 1174.135 1721.31 C 1182.59 1724.394 1190.812 1726.773 1198.802 1728.447 C 1200.471 1728.797 1202.129 1729.116 1203.777 1729.404 C 1241.058 1735.923 1273.162 1726.722 1300.089 1701.8 Q 1303.641 1698.513 1310.473 1691.12 Q 1223.158 1653.24 1168.986 1719.355 Z " fill="rgb(0,255,42)"/><path d=" M 1139.391 1682.814 Q 1142.028 1683.702 1144.633 1684.506 C 1153.232 1687.16 1161.564 1689.121 1169.628 1690.391 C 1171.312 1690.656 1172.985 1690.891 1174.645 1691.095 C 1212.208 1695.726 1243.807 1684.918 1269.443 1658.67 Q 1272.824 1655.208 1279.275 1647.48 Q 1190.161 1614.051 1139.391 1682.814 Z " fill="rgb(0,255,42)"/><path d=" M 1107.3 1643.063 Q 1110.045 1643.519 1112.745 1643.897 C 1121.657 1645.144 1130.195 1645.751 1138.359 1645.717 C 1140.064 1645.71 1141.752 1645.675 1143.424 1645.612 C 1181.244 1644.188 1210.713 1628.475 1231.831 1598.472 Q 1234.616 1594.515 1239.751 1585.856 Q 1146.444 1567.078 1107.3 1643.063 Z " fill="rgb(0,255,42)"/><path d=" M 1104.73 1645.085 Q 1104.673 1647.868 1104.547 1650.59 C 1104.131 1659.58 1103.154 1668.084 1101.617 1676.102 C 1101.296 1677.776 1100.95 1679.429 1100.581 1681.061 C 1092.214 1717.971 1071.34 1744.041 1037.961 1759.27 Q 1033.558 1761.279 1024.101 1764.73 Q 1022.835 1669.561 1104.73 1645.085 Z " fill="rgb(0,255,42)"/><path d=" M 1136.982 1684.076 Q 1137.605 1686.789 1138.146 1689.46 C 1139.934 1698.28 1141.059 1706.765 1141.523 1714.916 C 1141.619 1716.618 1141.687 1718.306 1141.726 1719.978 C 1142.608 1757.815 1128.719 1788.186 1100.058 1811.092 Q 1096.278 1814.113 1087.947 1819.765 Q 1063.522 1727.775 1136.982 1684.076 Z " fill="rgb(0,255,42)"/><path d=" M 998.625 1455 C 997.18 1451.813 1001.539 1443.612 1009.257 1460.251 C 1013.34 1469.055 1019.357 1483.247 1030.196 1510.9 C 1039.844 1535.512 1055.391 1567.817 1082.577 1608.219 C 1109.022 1647.521 1138.254 1682.712 1165.142 1713.362 C 1197.92 1750.727 1227.25 1780.838 1244.232 1797.057 L 1222.725 1777.217 Q 1188.526 1744.128 1163.029 1714.842 C 1116.506 1661.402 1087.366 1623.964 1074.616 1604.347 C 1042.638 1555.148 1035.205 1535.686 998.625 1455 Z " fill="rgb(0,255,42)"/><path d=" M 473.511 1855.163 Q 472.414 1856.89 471.397 1858.604 C 468.039 1864.263 465.34 1869.814 463.299 1875.255 C 462.873 1876.391 462.476 1877.523 462.107 1878.65 C 453.77 1904.136 460.128 1927.194 481.183 1947.825 Q 483.959 1950.546 490.28 1955.861 Q 530.47 1897.867 473.511 1855.163 Z " fill="rgb(0,255,42)"/><path d=" M 472.678 1833.305 Q 473.396 1835.123 474.145 1836.885 C 476.618 1842.701 479.347 1848.049 482.33 1852.929 C 482.953 1853.948 483.587 1854.946 484.233 1855.924 C 498.827 1878.05 519.111 1889.736 545.086 1890.984 Q 548.512 1891.149 555.66 1890.933 Q 533.258 1827.87 472.678 1833.305 Z " fill="rgb(0,255,42)"/><path d=" M 458.736 1641.707 Q 460.403 1643.539 462.082 1645.285 C 467.624 1651.049 473.258 1656.11 478.984 1660.468 C 480.18 1661.378 481.38 1662.257 482.584 1663.106 C 509.811 1682.302 539.091 1685.813 570.424 1673.639 Q 574.557 1672.034 582.928 1668.005 Q 528.065 1603.176 458.736 1641.707 Z " fill="rgb(0,255,42)"/><path d=" M 461.842 1594.962 Q 463.033 1596.367 464.235 1597.708 C 468.203 1602.135 472.258 1606.042 476.399 1609.429 C 477.264 1610.136 478.133 1610.821 479.005 1611.483 C 498.736 1626.454 520.402 1629.825 544 1621.595 Q 547.113 1620.509 553.438 1617.733 Q 514.359 1568.135 461.842 1594.962 Z " fill="rgb(0,255,42)"/><path d=" M 457.573 1594.56 Q 456.152 1595.732 454.732 1596.839 C 450.045 1600.496 445.364 1603.626 440.69 1606.229 C 439.714 1606.772 438.738 1607.293 437.762 1607.79 C 415.698 1619.043 393.778 1618.536 372.003 1606.269 Q 369.131 1604.651 363.395 1600.801 Q 410.617 1558.882 457.573 1594.56 Z " fill="rgb(0,255,42)"/><path d=" M 454.38 1641.368 Q 452.814 1643.287 451.232 1645.121 C 446.009 1651.176 440.656 1656.533 435.173 1661.194 C 434.028 1662.167 432.877 1663.109 431.721 1664.022 C 405.569 1684.658 376.521 1689.743 344.577 1679.276 Q 340.364 1677.896 331.787 1674.324 Q 383.074 1606.631 454.38 1641.368 Z " fill="rgb(0,255,42)"/><path d=" M 469.636 1834.121 Q 469.248 1836.037 468.82 1837.903 C 467.406 1844.063 465.659 1849.807 463.579 1855.134 C 463.144 1856.247 462.695 1857.341 462.232 1858.418 C 451.749 1882.761 433.831 1897.828 408.478 1903.616 Q 405.134 1904.379 398.059 1905.422 Q 409.042 1839.406 469.636 1834.121 Z " fill="rgb(0,255,42)"/><path d=" M 463.998 1790.027 Q 463.105 1792.662 462.165 1795.221 C 459.062 1803.668 455.571 1811.484 451.691 1818.666 C 450.881 1820.166 450.054 1821.639 449.21 1823.084 C 430.119 1855.762 402.365 1874.339 365.949 1878.812 Q 361.146 1879.402 351.089 1879.846 Q 378.533 1788.711 463.998 1790.027 Z " fill="rgb(0,255,42)"/><path d=" M 465.482 1789.943 Q 467.017 1792.264 468.579 1794.498 C 473.734 1801.874 479.104 1808.54 484.688 1814.495 C 485.854 1815.739 487.03 1816.952 488.214 1818.133 C 515.01 1844.86 546.585 1855.741 582.937 1850.776 Q 587.732 1850.121 597.569 1847.985 Q 547.783 1766.867 465.482 1789.943 Z " fill="rgb(0,255,42)"/><path d=" M 462.205 1743.034 Q 463.856 1745.275 465.528 1747.428 C 471.049 1754.534 476.748 1760.921 482.625 1766.587 C 483.852 1767.771 485.087 1768.922 486.33 1770.043 C 514.44 1795.385 546.523 1804.66 582.579 1797.868 Q 587.334 1796.972 597.051 1794.342 Q 543.238 1715.838 462.205 1743.034 Z " fill="rgb(0,255,42)"/><path d=" M 458.724 1692.066 Q 460.711 1694.014 462.706 1695.872 C 469.29 1702.007 475.936 1707.402 482.642 1712.057 C 484.042 1713.03 485.445 1713.97 486.851 1714.877 C 518.645 1735.408 551.797 1739.443 586.306 1726.984 Q 590.858 1725.34 600.031 1721.193 Q 534.378 1652.284 458.724 1692.066 Z " fill="rgb(0,255,42)"/><path d=" M 455.46 1692.248 Q 453.817 1694.494 452.151 1696.652 C 446.653 1703.776 440.975 1710.181 435.116 1715.866 C 433.893 1717.054 432.661 1718.209 431.422 1719.334 C 403.394 1744.766 371.342 1754.145 335.264 1747.469 Q 330.506 1746.589 320.78 1743.99 Q 374.34 1665.313 455.46 1692.248 Z " fill="rgb(0,255,42)"/><path d=" M 459.508 1742.687 Q 458.462 1745.266 457.373 1747.764 C 453.777 1756.014 449.831 1763.61 445.535 1770.552 C 444.637 1772.001 443.725 1773.422 442.797 1774.815 C 421.814 1806.312 393.014 1823.22 356.397 1825.539 Q 351.568 1825.845 341.502 1825.696 Q 374.269 1736.337 459.508 1742.687 Z " fill="rgb(0,255,42)"/><path d=" M 481.679 1467.491 C 482.324 1464.052 480.819 1456.959 489.417 1454.594 C 500.626 1451.512 494.576 1450.725 491.352 1468.781 C 488.127 1486.837 460.398 1545.95 458.464 1649.342 C 457.578 1696.705 461.332 1742.298 465.772 1782.829 C 471.184 1832.238 477.933 1873.727 482.539 1896.754 L 476.305 1868.165 Q 467.275 1821.444 463.193 1782.829 C 455.744 1712.368 453.354 1664.986 454.165 1641.604 C 456.197 1582.961 465.353 1554.565 481.679 1467.491 Z " fill="rgb(0,255,42)"/><path d=" M 473.717 1050.837 Q 472.62 1049.11 471.603 1047.396 C 468.245 1041.737 465.546 1036.186 463.505 1030.745 C 463.079 1029.609 462.682 1028.477 462.313 1027.35 C 453.976 1001.864 460.334 978.806 481.389 958.175 Q 484.165 955.454 490.486 950.139 Q 530.676 1008.133 473.717 1050.837 Z " fill="rgb(0,255,42)"/><path d=" M 472.884 1072.695 Q 473.602 1070.877 474.351 1069.115 C 476.824 1063.299 479.553 1057.951 482.536 1053.071 C 483.159 1052.052 483.793 1051.054 484.438 1050.076 C 499.032 1027.95 519.317 1016.264 545.292 1015.016 Q 548.718 1014.851 555.866 1015.067 Q 533.464 1078.13 472.884 1072.695 Z " fill="rgb(0,255,42)"/><path d=" M 458.942 1264.293 Q 460.609 1262.461 462.288 1260.715 C 467.83 1254.951 473.464 1249.89 479.19 1245.532 C 480.386 1244.622 481.586 1243.743 482.79 1242.894 C 510.017 1223.698 539.297 1220.187 570.63 1232.361 Q 574.763 1233.966 583.134 1237.995 Q 528.271 1302.824 458.942 1264.293 Z " fill="rgb(0,255,42)"/><path d=" M 462.048 1311.038 Q 463.239 1309.633 464.441 1308.292 C 468.409 1303.865 472.464 1299.958 476.605 1296.571 C 477.47 1295.864 478.339 1295.179 479.211 1294.517 C 498.942 1279.546 520.608 1276.175 544.206 1284.405 Q 547.319 1285.491 553.644 1288.267 Q 514.565 1337.865 462.048 1311.038 Z " fill="rgb(0,255,42)"/><path d=" M 457.779 1311.44 Q 456.358 1310.268 454.938 1309.161 C 450.251 1305.504 445.57 1302.374 440.896 1299.771 C 439.92 1299.228 438.944 1298.707 437.968 1298.21 C 415.904 1286.957 393.984 1287.464 372.209 1299.731 Q 369.337 1301.349 363.601 1305.199 Q 410.823 1347.118 457.779 1311.44 Z " fill="rgb(0,255,42)"/><path d=" M 454.586 1264.632 Q 453.02 1262.713 451.438 1260.879 C 446.215 1254.824 440.862 1249.467 435.379 1244.806 C 434.234 1243.833 433.083 1242.891 431.927 1241.978 C 405.775 1221.342 376.727 1216.257 344.783 1226.724 Q 340.57 1228.104 331.993 1231.676 Q 383.28 1299.369 454.586 1264.632 Z " fill="rgb(0,255,42)"/><path d=" M 469.842 1071.879 Q 469.454 1069.963 469.026 1068.097 C 467.612 1061.937 465.865 1056.193 463.785 1050.866 C 463.35 1049.753 462.901 1048.659 462.438 1047.582 C 451.955 1023.239 434.037 1008.172 408.684 1002.384 Q 405.34 1001.621 398.265 1000.578 Q 409.248 1066.594 469.842 1071.879 Z " fill="rgb(0,255,42)"/><path d=" M 464.204 1115.973 Q 463.311 1113.338 462.371 1110.779 C 459.268 1102.332 455.777 1094.516 451.897 1087.334 C 451.087 1085.834 450.26 1084.361 449.415 1082.916 C 430.325 1050.238 402.571 1031.661 366.155 1027.188 Q 361.352 1026.598 351.295 1026.154 Q 378.739 1117.289 464.204 1115.973 Z " fill="rgb(0,255,42)"/><path d=" M 465.688 1116.057 Q 467.223 1113.736 468.785 1111.502 C 473.94 1104.126 479.31 1097.46 484.894 1091.505 C 486.06 1090.261 487.236 1089.048 488.42 1087.867 C 515.216 1061.14 546.791 1050.259 583.143 1055.224 Q 587.938 1055.879 597.775 1058.015 Q 547.989 1139.133 465.688 1116.057 Z " fill="rgb(0,255,42)"/><path d=" M 462.411 1162.966 Q 464.062 1160.725 465.734 1158.572 C 471.255 1151.466 476.954 1145.079 482.831 1139.413 C 484.058 1138.229 485.293 1137.078 486.536 1135.957 C 514.646 1110.615 546.729 1101.34 582.785 1108.132 Q 587.54 1109.028 597.257 1111.658 Q 543.444 1190.162 462.411 1162.966 Z " fill="rgb(0,255,42)"/><path d=" M 458.93 1213.934 Q 460.917 1211.986 462.912 1210.128 C 469.496 1203.993 476.142 1198.598 482.848 1193.943 C 484.248 1192.97 485.651 1192.03 487.057 1191.123 C 518.851 1170.592 552.003 1166.557 586.512 1179.016 Q 591.064 1180.66 600.237 1184.807 Q 534.584 1253.716 458.93 1213.934 Z " fill="rgb(0,255,42)"/><path d=" M 455.666 1213.752 Q 454.023 1211.506 452.357 1209.348 C 446.859 1202.224 441.181 1195.819 435.322 1190.134 C 434.099 1188.946 432.867 1187.791 431.628 1186.666 C 403.6 1161.234 371.548 1151.855 335.47 1158.531 Q 330.712 1159.411 320.986 1162.01 Q 374.546 1240.687 455.666 1213.752 Z " fill="rgb(0,255,42)"/><path d=" M 459.714 1163.313 Q 458.668 1160.734 457.579 1158.236 C 453.983 1149.986 450.037 1142.39 445.741 1135.448 C 444.843 1133.999 443.931 1132.578 443.003 1131.185 C 422.02 1099.688 393.219 1082.78 356.603 1080.461 Q 351.774 1080.155 341.708 1080.304 Q 374.475 1169.663 459.714 1163.313 Z " fill="rgb(0,255,42)"/><path d=" M 481.885 1438.509 C 482.53 1441.948 481.025 1449.041 489.623 1451.406 C 500.832 1454.488 494.782 1455.275 491.558 1437.219 C 488.333 1419.163 460.604 1360.05 458.67 1256.658 C 457.783 1209.295 461.538 1163.702 465.978 1123.171 C 471.39 1073.762 478.139 1032.273 482.744 1009.246 L 476.511 1037.835 Q 467.481 1084.556 463.399 1123.171 C 455.95 1193.632 453.56 1241.014 454.371 1264.396 C 456.403 1323.039 465.558 1351.435 481.885 1438.509 Z " fill="rgb(0,255,42)"/><path d=" M 1002.25 1449.462 C 1007.375 1451.272 1007.362 1453.032 1002.25 1454.712 L 314.25 1456.785 L 314.25 1447.451 L 1002.25 1449.462 Z " fill="rgb(0,254,43)"/></g></g></g></g></g></g></g><defs><image width="300" height="456" xlink:href="cloud://id=GQANzUgDH" id="img_9WwLnrbhnltZiYcPn4W6GocktPeP57M2"/><image width="400" height="396" xlink:href="cloud://id=dB170eL9R" id="img_gustNhMm9yf3khyxvuBUky4B3QXydBmm"/></defs></svg>