<?xml version="1.0" encoding="UTF-8" standalone="no"?><!-- Generator: Gravit.io --><svg xmlns="http://www.w3.org/2000/svg" xmlns:xlink="http://www.w3.org/1999/xlink" style="isolation:isolate" viewBox="506 1319.696 532 362" width="532pt" height="362pt"><defs><clipPath id="_clipPath_n6xUrQpxWvLmMG17tuchJpUqwCWMtzXF"><rect width="1440" height="3072"/></clipPath></defs><g clip-path="url(#_clipPath_n6xUrQpxWvLmMG17tuchJpUqwCWMtzXF)"><defs><mask id="_mask_oCotByhDJ8bLX2Nw43aatKPn0TvMobzv"><path d="M 707 26 L 1007 26 L 1007 482 L 707 482 L 707 26 Z" style="stroke:black;fill:white;stroke-miterlimit:10;"/></mask><mask id="_mask_yRLh25cvik4NZoekLozWFy4nT7NzV9XX"><path d="M 707 26 L 1007 26 L 1007 482 L 707 482 L 707 26 Z" style="stroke:black;fill:white;stroke-miterlimit:10;"/></mask></defs><g mask="url(#_mask_yRLh25cvik4NZoekLozWFy4nT7NzV9XX)"><g mask="url(#_mask_oCotByhDJ8bLX2Nw43aatKPn0TvMobzv)"/></g><g mask="url(#_mask_oCotByhDJ8bLX2Nw43aatKPn0TvMobzv)"><use xlink:href="#img_9WwLnrbhnltZiYcPn4W6GocktPeP57M2" transform="matrix(1,0,0,1,707,26)" preserveAspectRatio="none" style=""/></g><defs><mask id="_mask_hGUevPV1TzTIRWldizEWMox2xpQWiMzd"><path d="M 1010 46 L 1410 46 L 1410 442 L 1010 442 L 1010 46 Z" style="stroke:black;fill:white;stroke-miterlimit:10;"/></mask><mask id="_mask_PH0THINWj9C5ieJYJCQnTq1Y6aT5OZws"><path d="M 1010 46 L 1410 46 L 1410 442 L 1010 442 L 1010 46 Z" style="stroke:black;fill:white;stroke-miterlimit:10;"/></mask></defs><g mask="url(#_mask_PH0THINWj9C5ieJYJCQnTq1Y6aT5OZws)"><g mask="url(#_mask_hGUevPV1TzTIRWldizEWMox2xpQWiMzd)"/></g><g mask="url(#_mask_hGUevPV1TzTIRWldizEWMox2xpQWiMzd)"><use xlink:href="#img_gustNhMm9yf3khyxvuBUky4B3QXydBmm" transform="matrix(1,0,0,1,1010,46)" preserveAspectRatio="none" style=""/></g><defs><mask id="_mask_mVl1b32ZdhhkVkJn0dtyNiUMbWez6oCO"><path d="M 634.363 639.615 L 879.46 466.62 L 993.637 628.385 L 748.54 801.38 L 634.363 639.615 Z" style="stroke:black;fill:white;stroke-miterlimit:10;"/></mask><mask id="_mask_O5DBji8xIfkSPljLfnqqBrsmN7xDv2Qk"><path d="M 634.363 639.615 L 879.46 466.62 L 993.637 628.385 L 748.54 801.38 L 634.363 639.615 Z" style="stroke:black;fill:white;stroke-miterlimit:10;"/></mask></defs><g mask="url(#_mask_O5DBji8xIfkSPljLfnqqBrsmN7xDv2Qk)"><g mask="url(#_mask_mVl1b32ZdhhkVkJn0dtyNiUMbWez6oCO)"/></g><g mask="url(#_mask_mVl1b32ZdhhkVkJn0dtyNiUMbWez6oCO)"><use xlink:href="#img_mYtlHbfBh46MLAtcJJb0UYcE1KYioh4Z" transform="matrix(0.817,-0.577,0.577,0.817,634.363,639.615)" preserveAspectRatio="none" style=""/></g><defs><mask id="_mask_EdfEyxgTkFzEIzaF9Eh2KjSXyMcqaoW9"><path d="M 31 32 L 481 32 L 481 259 L 31 259 L 31 32 Z" style="stroke:black;fill:white;stroke-miterlimit:10;"/></mask><mask id="_mask_3fSd2Sld04WGCUpqOEKWmaxLoGCjahHg"><path d="M 31 32 L 481 32 L 481 259 L 31 259 L 31 32 Z" style="stroke:black;fill:white;stroke-miterlimit:10;"/></mask></defs><g mask="url(#_mask_3fSd2Sld04WGCUpqOEKWmaxLoGCjahHg)"><g mask="url(#_mask_EdfEyxgTkFzEIzaF9Eh2KjSXyMcqaoW9)"/></g><g mask="url(#_mask_EdfEyxgTkFzEIzaF9Eh2KjSXyMcqaoW9)"><use xlink:href="#img_PF2NZztFrhPyq6h8XwAul5mhW2PdhAN4" transform="matrix(1,0,0,1,31,32)" preserveAspectRatio="none" style=""/></g><path d=" M 35 554.687 L 36 562.687 Q 67 566.687 95 551.687 Q 171.5 650.187 276 604.687 Q 380.5 559.187 484 440.687 Q 155 315.687 95 532.687 Q 90 555.687 35 554.687 Z " fill="rgb(0,255,0)"/><rect x="654.5" y="860" width="1" height="1" transform="matrix(1,0,0,1,0,0)" fill="rgb(0,255,0)"/><path d=" M 127 540 Q 241.636 450.424 392 461 Q 238.909 470.545 127 540 Z " fill="rgb(1,164,1)"/><g><path d=" M 130.433 1012.108 C 136.629 1012.51 144.64 1010.899 148.905 1006.634 C 150.879 1006.634 159.123 1000.202 159.852 999.108 C 161.211 997.069 164.206 998.175 165.325 997.056 C 170.327 992.054 170.114 989.496 170.114 982.004 C 170.114 975.465 175.028 966.661 176.956 962.164 C 177.357 961.226 177.868 960.339 178.324 959.427 C 178.741 958.594 181.061 955.21 181.061 954.638 C 181.061 951.524 183.908 948.656 184.482 947.796 C 187.327 943.528 185.713 934.934 188.586 932.06 C 193.103 927.544 191.323 914.975 191.323 909.483 C 191.323 906.036 193.893 905.027 194.744 903.325 C 196.809 899.196 200.091 890.639 203.638 888.274 C 211.385 883.109 217.281 888.254 222.795 891.01 C 229.193 894.21 233.643 902.543 237.846 906.746 C 239.215 908.115 240.583 909.483 241.951 910.851 C 249.179 918.079 251.53 906.666 251.53 900.589 C 251.53 890.521 261.792 882.449 261.792 873.222 C 261.792 866.198 262.476 859.892 262.476 853.381 C 262.476 845.634 262.201 836.552 267.265 831.488 C 275.924 822.83 276.295 818.489 288.475 818.489 C 289.843 818.489 291.211 818.489 292.58 818.489 C 303.659 818.489 307.017 830.945 309.684 836.277 C 312.513 841.936 311.693 847.821 313.789 852.013 C 314.137 852.711 315.841 856.712 315.841 857.486 C 315.841 861.587 318.787 874.799 320.63 876.643 C 322.77 878.783 322.34 881.26 323.367 882.8 C 324.009 883.764 325.123 887.089 325.419 888.274 C 325.727 889.503 326.108 896.488 326.788 897.168 C 329.817 900.197 329.119 901.273 334.314 901.273 C 335.889 901.273 339.428 900.981 339.787 899.905 C 340.938 896.452 342.295 894.432 343.208 893.063 C 344.297 891.429 345.739 890.052 346.629 888.274 C 348.171 885.189 349.39 880.368 351.418 877.327 C 356.902 869.101 356.207 860.688 356.207 853.381 C 356.207 846.06 359.586 841.834 362.364 836.277 C 363.255 834.496 366.469 830.168 366.469 828.067 C 366.469 821.939 365.849 805.426 369.89 801.385 C 375.478 795.797 382.735 787.547 389.731 794.543 C 395.11 799.922 399.63 803.437 406.835 803.437 C 414.829 803.437 420.133 793.902 426.676 793.175 C 428.824 792.936 430.128 792.491 432.149 792.491 C 437.706 792.491 432.843 792.416 439.675 793.175 C 441.823 793.414 443.287 791.505 444.464 793.859 C 446.503 797.936 447.262 802.191 449.253 806.174 C 453.008 813.683 456.779 818.898 456.779 826.699 C 456.779 829.208 456.779 831.032 456.779 832.856 C 456.779 837.64 454.042 841.985 454.042 845.856 C 454.042 852.489 444.506 861.507 441.727 867.065 C 437.521 875.477 436.938 879.412 436.938 887.59 C 436.938 896.481 447.098 893.457 450.622 891.695 C 458.484 887.763 456.908 879.793 464.305 877.327 C 475.966 873.44 485.257 868.561 493.724 864.328 C 502.108 860.136 511.032 861.055 518.354 862.276 C 538.856 865.693 540.931 870.959 540.931 882.116 C 540.931 890.312 538.879 897.589 538.879 904.01 C 538.879 909.668 545.964 909.726 549.141 912.904 C 552.481 916.243 556.24 918.634 559.404 921.798 C 566.094 928.488 563.509 936.049 563.509 942.323 C 563.509 944.843 562.232 947.704 561.456 948.48 C 561.456 948.48 553.246 959.427 553.246 959.427 C 549.094 959.427 551.712 969.759 552.562 971.742 C 554.344 975.9 558.72 976.191 558.72 982.004 C 558.72 994.736 563.838 1003.391 554.615 1008.003 C 546.911 1011.855 539.389 1018.949 531.353 1018.949 C 523.001 1018.949 514.98 1020.318 507.407 1020.318 C 497.672 1020.318 486.198 1016.904 486.198 1027.843 C 486.198 1034.479 489.527 1040.067 494.408 1044.948 C 498.887 1049.426 505.087 1058.481 502.618 1063.42 C 500.444 1067.769 495.023 1078.472 490.987 1078.472 C 488.713 1078.472 486.871 1081.214 485.514 1081.892 C 481.115 1084.092 475.52 1083.261 470.462 1083.261 C 464.874 1083.261 456.095 1091.082 456.095 1096.26 C 456.095 1106.742 446.76 1106.522 439.675 1106.522 C 437.162 1106.522 434.987 1103.887 434.202 1103.102 C 429.04 1097.939 423.806 1091.382 417.782 1087.366 C 408.577 1081.229 404.578 1072.793 398.625 1066.841 C 393.349 1061.565 390.214 1052.715 384.258 1049.737 C 377.467 1046.341 377.147 1033.732 373.311 1029.896 C 371.491 1028.075 371.007 1024.171 369.89 1023.054 C 368.583 1021.747 366.379 1020.731 365.785 1018.949 C 365.49 1018.065 364.105 1013.476 363.733 1013.476 C 361.418 1013.476 359.868 1005.95 358.944 1005.95 C 357.35 1005.95 353.47 1009.488 353.47 1010.739 C 353.47 1016.555 353.964 1024.917 356.891 1027.843 C 361.436 1032.389 361.139 1040.986 364.417 1044.263 C 368.618 1048.464 367.838 1058.35 367.838 1063.42 C 367.838 1071.839 367.762 1076.494 363.049 1081.208 C 358.637 1085.62 351.201 1087.366 345.944 1087.366 C 344.081 1087.366 337.43 1088.43 336.366 1087.366 C 335.125 1086.125 331.918 1085.826 330.893 1085.313 C 326.699 1083.216 323.386 1078.491 320.63 1075.735 C 319.793 1074.898 318.069 1071.376 317.209 1070.946 C 310.735 1067.709 304.073 1055.62 301.474 1050.421 C 298.534 1044.542 293.63 1037.104 290.527 1034.001 C 288.36 1031.834 287.31 1030.784 285.738 1029.212 C 284.213 1027.687 282.555 1026.029 280.949 1024.423 C 278.023 1021.497 268.634 1024.707 268.634 1029.212 C 268.634 1038.199 271.935 1042.45 268.634 1049.052 C 264.166 1057.987 247.035 1051.986 242.636 1049.052 C 241.951 1048.596 241.267 1048.14 240.583 1047.684 C 239.671 1047.456 238.653 1047.484 237.846 1047 C 236.327 1046.089 234.85 1044.004 233.741 1042.895 C 231.642 1040.795 230.526 1039.971 228.952 1038.79 C 224.076 1035.133 217.23 1035.962 213.216 1031.948 C 210.871 1029.603 208.066 1026.798 205.691 1024.423 C 197.849 1016.581 187.14 1013.397 180.377 1006.634 C 179.692 1005.95 170.798 1005.95 170.798 1005.95 C 160.798 1006.664 153.625 1013.476 144.116 1013.476 C 137.073 1013.476 124.078 1026.962 116.065 1018.949 C 110.127 1013.011 119.028 1011.48 130.433 1012.108 Z " fill="rgb(0,255,42)"/><path d=" M 192.336 983.4 Q 324.711 931.622 511.43 935.235 Q 296.494 927.107 192.336 983.4 Z " fill="rgb(0,205,74)"/><path d=" M 192.336 983.4 Q 213.883 974.972 236.87 968.011 C 315.693 944.144 407.213 933.219 511.43 935.235 Q 296.494 927.107 192.336 983.4 Z " fill="rgb(0,205,74)"/></g><g><g><path d=" M 1159.302 943.664 Q 1161.029 944.762 1162.743 945.779 C 1168.402 949.137 1173.953 951.836 1179.394 953.877 C 1180.53 954.303 1181.662 954.7 1182.789 955.069 C 1208.275 963.406 1231.333 957.048 1251.964 935.993 Q 1254.685 933.216 1260 926.896 Q 1202.006 886.706 1159.302 943.664 Z " fill="rgb(0,255,42)"/><path d=" M 1137.444 944.498 Q 1139.262 943.78 1141.024 943.031 C 1146.84 940.557 1152.188 937.829 1157.068 934.846 C 1158.087 934.223 1159.085 933.589 1160.063 932.943 C 1182.189 918.349 1193.875 898.065 1195.123 872.09 Q 1195.287 868.664 1195.072 861.516 Q 1132.009 883.917 1137.444 944.498 Z " fill="rgb(0,255,42)"/><path d=" M 945.846 958.44 Q 947.678 956.772 949.424 955.094 C 955.188 949.552 960.249 943.918 964.607 938.191 C 965.517 936.996 966.396 935.796 967.245 934.592 C 986.441 907.365 989.952 878.085 977.778 846.752 Q 976.173 842.619 972.144 834.248 Q 907.315 889.111 945.846 958.44 Z " fill="rgb(0,255,42)"/><path d=" M 899.101 955.334 Q 900.506 954.143 901.847 952.941 C 906.274 948.973 910.181 944.918 913.568 940.777 C 914.275 939.912 914.96 939.043 915.622 938.171 C 930.593 918.439 933.964 896.774 925.734 873.176 Q 924.648 870.063 921.872 863.738 Q 872.274 902.817 899.101 955.334 Z " fill="rgb(0,255,42)"/><path d=" M 898.699 959.603 Q 899.871 961.024 900.978 962.443 C 904.635 967.131 907.765 971.812 910.368 976.486 C 910.911 977.462 911.432 978.438 911.929 979.414 C 923.182 1001.478 922.675 1023.398 910.408 1045.173 Q 908.79 1048.045 904.94 1053.781 Q 863.021 1006.559 898.699 959.603 Z " fill="rgb(0,255,42)"/><path d=" M 945.507 962.796 Q 947.426 964.362 949.26 965.944 C 955.315 971.167 960.672 976.52 965.333 982.003 C 966.306 983.148 967.248 984.298 968.161 985.455 C 988.797 1011.607 993.882 1040.655 983.415 1072.599 Q 982.035 1076.812 978.463 1085.389 Q 910.77 1034.101 945.507 962.796 Z " fill="rgb(0,255,42)"/><path d=" M 1138.26 947.54 Q 1140.176 947.928 1142.042 948.356 C 1148.202 949.77 1153.946 951.517 1159.273 953.597 C 1160.386 954.032 1161.48 954.481 1162.557 954.944 C 1186.9 965.427 1201.967 983.345 1207.755 1008.698 Q 1208.518 1012.042 1209.561 1019.117 Q 1143.545 1008.134 1138.26 947.54 Z " fill="rgb(0,255,42)"/><path d=" M 1094.166 953.178 Q 1096.801 954.071 1099.36 955.011 C 1107.807 958.114 1115.623 961.605 1122.805 965.485 C 1124.305 966.295 1125.778 967.122 1127.223 967.966 C 1159.901 987.057 1178.478 1014.811 1182.951 1051.227 Q 1183.541 1056.03 1183.985 1066.087 Q 1092.85 1038.643 1094.166 953.178 Z " fill="rgb(0,255,42)"/><path d=" M 1094.082 951.694 Q 1096.403 950.159 1098.637 948.597 C 1106.013 943.441 1112.679 938.072 1118.634 932.488 C 1119.878 931.322 1121.091 930.146 1122.272 928.962 C 1148.999 902.165 1159.88 870.591 1154.915 834.239 Q 1154.26 829.444 1152.124 819.606 Q 1071.006 869.393 1094.082 951.694 Z " fill="rgb(0,255,42)"/><path d=" M 1047.173 954.971 Q 1049.414 953.32 1051.567 951.648 C 1058.673 946.127 1065.06 940.428 1070.726 934.551 C 1071.91 933.324 1073.061 932.088 1074.182 930.846 C 1099.524 902.736 1108.799 870.653 1102.007 834.597 Q 1101.111 829.842 1098.481 820.125 Q 1019.977 873.938 1047.173 954.971 Z " fill="rgb(0,255,42)"/><path d=" M 996.205 958.451 Q 998.153 956.465 1000.011 954.47 C 1006.146 947.886 1011.541 941.24 1016.196 934.534 C 1017.169 933.134 1018.109 931.731 1019.016 930.325 C 1039.547 898.531 1043.582 865.379 1031.123 830.87 Q 1029.479 826.318 1025.332 817.145 Q 956.423 882.798 996.205 958.451 Z " fill="rgb(0,255,42)"/><path d=" M 996.387 961.716 Q 998.633 963.359 1000.791 965.025 C 1007.915 970.523 1014.32 976.201 1020.005 982.06 C 1021.193 983.283 1022.348 984.515 1023.473 985.754 C 1048.905 1013.782 1058.284 1045.834 1051.608 1081.912 Q 1050.728 1086.67 1048.129 1096.396 Q 969.452 1042.836 996.387 961.716 Z " fill="rgb(0,255,42)"/><path d=" M 1046.826 957.668 Q 1049.405 958.714 1051.903 959.803 C 1060.153 963.399 1067.749 967.345 1074.691 971.641 C 1076.14 972.538 1077.561 973.451 1078.954 974.379 C 1110.451 995.362 1127.359 1024.162 1129.678 1060.779 Q 1129.984 1065.608 1129.835 1075.674 Q 1040.475 1042.906 1046.826 957.668 Z " fill="rgb(0,255,42)"/><path d=" M 771.63 935.497 C 768.191 934.852 761.098 936.357 758.733 927.759 C 755.651 916.55 754.864 922.6 772.92 925.824 C 790.976 929.049 850.089 956.778 953.481 958.712 C 1000.844 959.598 1046.437 955.843 1086.968 951.404 C 1136.377 945.992 1177.866 939.243 1200.893 934.637 L 1172.304 940.871 Q 1125.583 949.901 1086.968 953.983 C 1016.507 961.432 969.125 963.822 945.743 963.011 C 887.1 960.979 858.704 951.823 771.63 935.497 Z " fill="rgb(0,255,42)"/></g></g><path d=" M 347.826 2251.663 Q 345.952 2158.713 326.431 2128.481 Q 281.626 1996.617 271.758 1961.598 Q 251.343 1826.314 252.878 1786.394 Q 251.281 1706.855 265.736 1603.594 Q 255.668 1775.102 259.395 1796.625 C 263.122 1818.148 258.758 1859.639 282.528 1965.073 Q 316.633 2076.325 329.419 2111.157 Q 332.014 2125.46 342.358 2140.538 Q 342.305 2140.302 342.362 2140.603 C 343.949 2138.959 352.662 2178.894 361.564 2246.612 L 347.826 2251.663 Z " fill="rgb(0,255,42)"/><path d=" M 336 2250 Q 339.5 2149.5 324.5 2115.5 Q 293.5 1970 287 1931.5 Q 277 1784 280.5 1741 Q 283.5 1655 301.5 1544.5 Q 283.5 1729 285.5 1752.5 C 287.5 1776 281.5 1820.5 296 1936 Q 319 2058.5 328 2097 Q 329.43 2112.625 337.43 2129.625 Q 337.398 2129.367 337.43 2129.695 C 338.874 2128.031 344.119 2171.758 348 2245.5 L 336 2250 Z " fill="rgb(0,255,42)"/><path d=" M 338.422 2241.616 Q 346.067 2141.346 332.483 2106.756 Q 307.515 1960.1 302.609 1921.365 Q 298.706 1773.578 303.977 1730.759 Q 310.524 1644.956 333.07 1535.293 Q 307.47 1718.893 308.499 1742.455 C 309.527 1766.018 301.695 1810.232 311.416 1926.232 Q 329.34 2049.577 336.743 2088.416 Q 337.527 2104.087 344.819 2121.402 Q 344.797 2121.143 344.816 2121.473 C 346.328 2119.869 349.763 2163.775 350.597 2237.615 L 338.422 2241.616 Z " fill="rgb(0,255,42)"/><path d=" M 337.667 2240.667 L 330.667 2258 Q 338 2263 310.667 2314.333 L 317.333 2322.667 Q 321.333 2328 334 2316.667 Q 340.333 2260.333 358.667 2255 Q 364.333 2248 360 2233.333 L 337.667 2240.667 Z " fill="rgb(0,186,43)"/><g><g><path d=" M 655.804 1451.598 C 651.798 1444.498 650.699 1343.444 694.496 1347.662 C 744.704 1352.499 733.362 1399.946 738.989 1434.256 C 740.029 1440.598 740.599 1446.016 740.903 1452.436 C 749.993 1462.482 756.857 1458.184 761.475 1439.518 L 775.109 1398.494 L 796.877 1340.964 C 806.924 1317.841 819.211 1316.732 833.716 1337.616 C 838.069 1341.488 841.584 1341.016 844.241 1336.18 C 857.636 1320.074 869.763 1315.775 880.6 1323.263 C 900.694 1338.572 897.831 1374.301 871.989 1430.428 C 867.593 1445.857 882.305 1452.495 896.388 1440.954 C 918.658 1406.867 941.15 1394.117 963.845 1402.68 C 987.32 1408.816 993.547 1420.465 982.503 1437.605 C 975.965 1456.103 983.148 1463.127 1004.032 1458.655 C 1024.285 1456.582 1035.296 1464.403 1037.043 1482.097 C 1040.87 1496.45 1033.223 1506.344 1014.079 1511.759 C 995.247 1518.356 994.457 1524.901 1011.687 1531.374 C 1022.212 1546.843 1020.624 1560.087 1006.902 1571.083 C 993.885 1580.317 971.406 1582.078 939.446 1576.346 C 924.455 1571.242 917.127 1576.353 917.438 1591.655 L 938.489 1631.363 C 943.273 1653.53 935.14 1672.507 918.395 1664.374 C 913.85 1658.155 906.522 1652.022 903.564 1654.088 C 898.096 1655.8 898.741 1662.903 898.302 1667.245 C 898.621 1673.305 894.482 1678.096 885.863 1681.597 C 864.679 1683.331 830.24 1645.384 782.525 1567.734 C 781.09 1564.226 778.705 1563.276 775.349 1564.864 C 772.159 1567.256 771.529 1571.25 773.435 1576.824 C 789.224 1598.458 797.842 1618.877 799.27 1638.061 C 801.02 1653.208 796.729 1663.588 786.352 1669.158 C 774.87 1679.205 760.206 1680.01 742.338 1671.55 C 727.762 1662.619 716.765 1649.708 709.327 1632.799 C 706.65 1623.532 698.365 1612.854 684.449 1600.745 C 676.313 1593.565 671.702 1595.015 670.575 1605.051 C 674.084 1622.752 666.117 1630.573 646.655 1628.493 C 617.95 1606.645 588.614 1588.313 558.626 1573.475 C 545.561 1575.891 528.345 1587.858 511.741 1604.572 L 506 1587.349 L 552.406 1565.342 C 557.828 1558.485 561.344 1546.85 562.932 1530.418 L 579.198 1458.177 C 579.038 1434.256 598.342 1429.319 617.95 1442.389 L 635.651 1467.745 C 644.741 1472.515 654.489 1466.386 655.804 1451.598 Z " fill="rgb(0,254,43)"/><path d=" M 585.897 1554.147 Q 611.516 1541.975 638.846 1531.923 C 732.561 1497.453 841.373 1481.675 965.28 1484.586 Q 709.735 1472.848 585.897 1554.147 Z " fill="rgb(0,205,74)"/></g></g></g><defs><image width="300" height="456" xlink:href="cloud://id=GQANzUgDH" id="img_9WwLnrbhnltZiYcPn4W6GocktPeP57M2"/><image width="400" height="396" xlink:href="cloud://id=dB170eL9R" id="img_gustNhMm9yf3khyxvuBUky4B3QXydBmm"/><image width="300" height="198" xlink:href="cloud://id=BCr5olBMO" id="img_mYtlHbfBh46MLAtcJJb0UYcE1KYioh4Z"/><image width="450" height="227" xlink:href="cloud://id=NLLCnxlQ2" id="img_PF2NZztFrhPyq6h8XwAul5mhW2PdhAN4"/></defs></svg>