<?xml version="1.0" encoding="UTF-8" standalone="no"?><!-- Generator: Gravit.io --><svg xmlns="http://www.w3.org/2000/svg" xmlns:xlink="http://www.w3.org/1999/xlink" style="isolation:isolate" viewBox="0 0 1078.5 616" width="1078.5pt" height="616pt"><defs><clipPath id="_clipPath_0qvG2rMFWz0MHWqqhBMT2537YZaR77IO"><rect width="1078.5" height="616"/></clipPath></defs><g clip-path="url(#_clipPath_0qvG2rMFWz0MHWqqhBMT2537YZaR77IO)"><path d=" M 951.5 89.5 L 942.5 71.5 L 934.5 67.5 L 140.5 67.5 L 140.5 1.5 L 85.5 32.5 L 1.5 71.5 L 1.5 614.5 L 860.5 614.5 Q 885 569 925.5 596.5 L 942.5 582.5 L 991.5 566.5 L 1022.5 538.5 L 1043.5 516.5 L 1056.5 510.5 L 1001.5 449.5 L 991.5 433.5 L 977.5 378.5 L 991.5 344.5 L 977.5 312.5 L 1005.5 278.5 L 1031.5 247.5 L 1038.5 236.5 L 1056.5 224.5 L 1052.5 206.5 L 1031.5 198.5 L 1016.5 187.5 L 991.5 187.5 L 997.5 169.5 L 972.5 139.5 L 964.5 120.5 L 951.5 89.5 Z " fill="rgb(31,51,34)" fill-opacity="0.75"/></g></svg>